<?xml version="1.0" standalone="no"?>
<!DOCTYPE svg PUBLIC "-//W3C//DTD SVG 1.1//EN" "http://www.w3.org/Graphics/SVG/1.1/DTD/svg11.dtd" >
<svg xmlns="http://www.w3.org/2000/svg" xmlns:xlink="http://www.w3.org/1999/xlink" version="1.1">
<metadata>
Created by FontForge 20170731 at Fri Oct  2 07:59:18 2020
 By Aleksey,,,
Copyright 2019 The Big Shoulders Project Authors (https://github.com/xotypeco/big_shoulders)
</metadata>
<defs>
<font id="BigShouldersText-Regular" horiz-adv-x="0" >
  <font-face 
    font-family="Big Shoulders Text"
    font-weight="400"
    font-stretch="normal"
    units-per-em="2000"
    panose-1="0 0 0 0 0 0 0 0 0 0"
    ascent="1600"
    descent="-400"
    x-height="1200"
    cap-height="1600"
    bbox="-389 -625 2175 2302"
    underline-thickness="40"
    underline-position="-140"
    unicode-range="U+0020-FB02"
  />
<missing-glyph horiz-adv-x="1292" 
d="M119 0v1600h1054v-1600h-1054zM646 939l297 518h-593zM277 304l275 481l-275 483v-964zM1015 306v960l-274 -481zM367 143h559l-279 488z" />
    <glyph glyph-name="fi" unicode="fi" horiz-adv-x="922" 
d="M141 0v1076h-107v124h107v156q-2 140 67 200.5t222 60.5q30 0 69 -4t71 -8v-121q-29 2 -63.5 4t-73.5 2q-68 0 -101 -26t-31 -97v-167h232v-124h-232v-1076h-160zM626 1440v160h210v-160h-210zM652 0v1200h159v-1200h-159z" />
    <glyph glyph-name="fl" unicode="fl" horiz-adv-x="926" 
d="M141 0v1076h-107v124h107v156q-2 140 67 200.5t222 60.5q30 0 69 -4t71 -8v-121q-29 2 -63.5 4t-73.5 2q-68 0 -101 -26t-31 -97v-167h232v-124h-232v-1076h-160zM656 0v1600h159v-1600h-159z" />
    <glyph glyph-name="f_f" unicode="ff" horiz-adv-x="1060" 
d="M141 0l-2 1076h-105v124h105v156q0 140 69 200.5t222 60.5q30 0 69 -4t71 -8v-121q-29 2 -63.5 4t-73.5 2q-68 0 -101 -26t-33 -97v-167h354v156q0 140 69.5 200.5t222.5 60.5q30 0 69 -4t70 -8v-121q-28 2 -62.5 4t-73.5 2q-68 0 -101.5 -26t-33.5 -97v-167h219v-124
h-219l2 -1076h-160l-2 1076h-354l2 -1076h-160z" />
    <glyph glyph-name="f_f_i" unicode="ffi" horiz-adv-x="1437" 
d="M141 0l-2 1076h-105v124h105v156q0 140 69 200.5t222 60.5q30 0 69 -4t71 -8v-121q-29 2 -63.5 4t-73.5 2q-68 0 -101 -26t-33 -97v-167h354v156q0 140 69.5 200.5t222.5 60.5q30 0 69 -4t70 -8v-121q-28 2 -62.5 4t-73.5 2q-68 0 -101.5 -26t-33.5 -97v-167h219v-124
h-219l2 -1076h-160l-2 1076h-354l2 -1076h-160zM1141 1440v160h210v-160h-210zM1167 0v1200h159v-1200h-159z" />
    <glyph glyph-name="f_f_l" unicode="ffl" horiz-adv-x="1441" 
d="M141 0l-2 1076h-105v124h105v156q0 140 69 200.5t222 60.5q30 0 69 -4t71 -8v-121q-29 2 -63.5 4t-73.5 2q-68 0 -101 -26t-33 -97v-167h354v156q0 140 69.5 200.5t222.5 60.5q30 0 69 -4t70 -8v-121q-28 2 -62.5 4t-73.5 2q-68 0 -101.5 -26t-33.5 -97v-167h219v-124
h-219l2 -1076h-160l-2 1076h-354l2 -1076h-160zM1171 0v1600h159v-1600h-159z" />
    <glyph glyph-name=".notdef" horiz-adv-x="1292" 
d="M119 0v1600h1054v-1600h-1054zM646 939l297 518h-593zM277 304l275 481l-275 483v-964zM1015 306v960l-274 -481zM367 143h559l-279 488z" />
    <glyph glyph-name=".null" 
 />
    <glyph glyph-name="nonmarkingreturn" horiz-adv-x="666" 
 />
    <glyph glyph-name="space" unicode=" " horiz-adv-x="414" 
 />
    <glyph glyph-name="exclam" unicode="!" horiz-adv-x="468" 
d="M149 316l-22 606v678h165v-678l-20 -606h-123zM69 0v195h282v-195h-282z" />
    <glyph glyph-name="quotedbl" unicode="&#x22;" horiz-adv-x="624" 
d="M125 1165l-32 227v208h148v-208l-32 -227h-84zM415 1165l-32 227v208h148v-208l-33 -227h-83z" />
    <glyph glyph-name="numbersign" unicode="#" horiz-adv-x="1211" 
d="M116 0l123 435h-179l35 133h176l124 421h-179l35 133h178l138 478h159l-138 -478h219l137 478h157l-137 -478h187l-32 -133h-189l-124 -421h184l-34 -133h-183l-123 -435h-156l123 435h-220l-123 -435h-158zM430 568h219l124 421h-220z" />
    <glyph glyph-name="dollar" unicode="$" horiz-adv-x="802" 
d="M328 -184v175q-120 14 -174.5 78t-59.5 194q-3 84 -2.5 156t4.5 160h153q-4 -89 -5 -171t5 -165q3 -67 37.5 -93.5t116.5 -26.5q77 0 110 26.5t38 93.5q6 65 5 143.5t-5 144.5q-2 80 -32 120t-98 57l-111 27q-123 30 -169 103.5t-50 223.5q-2 65 -1 135.5t2 142.5
q4 129 58.5 193t177.5 76v189h144v-189q118 -12 172.5 -76.5t59.5 -194.5q1 -62 0.5 -136.5t-2.5 -156.5h-154q3 91 3.5 166.5t-2.5 146.5q-3 67 -36 93.5t-112 26.5t-112.5 -26.5t-37.5 -93.5q-4 -76 -4 -147t4 -149q2 -87 23.5 -127t76.5 -53l105 -24
q140 -32 194.5 -106.5t60.5 -220.5q2 -64 1.5 -135.5t-2.5 -132.5q-6 -131 -61 -195.5t-177 -76.5v-175h-144z" />
    <glyph glyph-name="percent" unicode="%" horiz-adv-x="1102" 
d="M279 869q-87 0 -137.5 42t-53.5 125q-2 83 -2.5 145t0 122t2.5 139q2 81 52.5 123t138.5 42q91 0 140.5 -43.5t52.5 -121.5q2 -53 2.5 -133t0 -156t-2.5 -116q-3 -80 -53.5 -124t-139.5 -44zM153 0l680 1600h114l-680 -1600h-114zM279 965q35 0 52.5 15.5t19.5 40.5
q3 48 4.5 129.5t0.5 165.5t-5 140q-3 56 -72 56q-67 0 -71 -55q-3 -61 -4 -145t0 -164.5t4 -129.5q2 -21 20.5 -37t50.5 -16zM809 -9q-87 0 -137.5 42t-53.5 125q-2 83 -2.5 145t0.5 122t2 139q2 81 52.5 123t138.5 42q91 0 140.5 -43.5t52.5 -121.5q2 -53 2.5 -133t0 -156
t-2.5 -116q-3 -80 -53.5 -124t-139.5 -44zM809 87q36 0 53.5 15.5t18.5 40.5q4 48 5 129.5t0 165.5t-5 140q-3 56 -72 56q-67 0 -71 -55q-3 -61 -4 -145t0 -164.5t4 -129.5q2 -21 20.5 -37t50.5 -16z" />
    <glyph glyph-name="ampersand" unicode="&#x26;" horiz-adv-x="1024" 
d="M416 -15q-163 0 -233 68t-75 215q-2 78 -2 132.5t4 100t12 97.5q8 90 47.5 150t87.5 110q-53 122 -86.5 241t-35.5 224q-16 292 268 292q153 0 218 -73t56 -212q-6 -133 -62 -246t-142 -207q-6 -7 -16 -18.5t-21 -25.5q39 -80 83 -159t91 -154q-2 69 -7 140.5t-15 146.5
l132 2q8 -63 14 -146.5t8.5 -171.5t0.5 -163q48 -70 93.5 -129.5t81.5 -104.5l-106 -95q-26 31 -54.5 66t-56.5 72q-30 -77 -98 -114.5t-187 -37.5zM373 968q20 30 57 74t69 112.5t36 173.5q7 86 -21.5 131.5t-110.5 45.5q-67 0 -96 -42.5t-28 -119.5q0 -82 25.5 -178
t68.5 -197zM419 115q68 0 100.5 17t45.5 55t23 102q-68 97 -133.5 203t-122.5 215q-19 -24 -34.5 -52.5t-21.5 -65.5q-8 -54 -13 -124t0 -199q3 -72 38.5 -111.5t117.5 -39.5z" />
    <glyph glyph-name="quotesingle" unicode="'" horiz-adv-x="342" 
d="M128 1165l-35 227v208h157v-208l-35 -227h-87z" />
    <glyph glyph-name="parenleft" unicode="(" horiz-adv-x="524" 
d="M341 -400q-89 129 -152 292t-96 345t-33 368q0 173 31 351t93 343.5t157 300.5h123q-119 -230 -179.5 -487t-60.5 -513q0 -255 61.5 -518t178.5 -482h-123z" />
    <glyph glyph-name="parenright" unicode=")" horiz-adv-x="509" 
d="M168 -400q89 129 152 292t96 345t33 368q0 173 -31 351t-93 343.5t-157 300.5h-123q119 -230 179.5 -487t60.5 -513q0 -255 -61.5 -518t-178.5 -482h123z" />
    <glyph glyph-name="asterisk" unicode="*" horiz-adv-x="529" 
d="M49 1318l156 74l-156 74l38 68l147 -91l-9 165h79l-9 -164l147 90l39 -68l-156 -74l156 -74l-39 -68l-147 93l9 -167h-79l9 165l-147 -91z" />
    <glyph glyph-name="plus" unicode="+" horiz-adv-x="931" 
d="M400 414v288h-287v129h287v288h133v-288h285v-129h-285v-288h-133z" />
    <glyph glyph-name="comma" unicode="," horiz-adv-x="426" 
d="M127 -217l96 217h-152v196h284v-178l-121 -235h-107z" />
    <glyph glyph-name="hyphen" unicode="-" horiz-adv-x="715" 
d="M60 687v143h595v-143h-595z" />
    <glyph glyph-name="period" unicode="." horiz-adv-x="419" 
d="M69 0v195h282v-195h-282z" />
    <glyph glyph-name="slash" unicode="/" horiz-adv-x="718" 
d="M60 -400l439 2000h159l-438 -2000h-160z" />
    <glyph glyph-name="zero" unicode="0" horiz-adv-x="819" 
d="M410 -15q-144 0 -224.5 71.5t-83.5 209.5q-5 315 -4.5 571.5t4.5 495.5q3 137 81.5 209.5t226.5 72.5q145 0 224.5 -72.5t82.5 -209.5q4 -159 5 -341t0 -368.5t-5 -357.5q-3 -138 -84 -209.5t-223 -71.5zM410 118q142 0 145 121q9 307 8.5 587.5t-8.5 533.5
q-3 122 -145 122q-143 0 -146 -122q-4 -177 -6 -318.5t-2 -267.5t2 -254t6 -279q3 -123 146 -123z" />
    <glyph glyph-name="one" unicode="1" horiz-adv-x="465" 
d="M180 0v1436h-93l-8 62l130 102h135v-1600h-164z" />
    <glyph glyph-name="two" unicode="2" horiz-adv-x="798" 
d="M94 0q0 47 -1 70t-1.5 44.5t0 62.5t0.5 125q4 199 69.5 306.5t172.5 170.5l113 67q74 45 91.5 103t22.5 119q3 68 3.5 142.5t-3.5 145.5q-4 66 -44 96t-117 30q-78 0 -113 -33t-36 -90q-3 -70 -3 -153.5t4 -166.5h-159q-2 93 -3.5 156.5t0.5 135.5q6 152 80 218t232 66
q166 0 239.5 -66t80.5 -219q2 -32 2.5 -85t0 -104.5t-2.5 -78.5q-7 -141 -63.5 -223.5t-157.5 -143.5l-120 -70q-68 -42 -96.5 -132.5t-28.5 -190.5v-160h463v-142h-625z" />
    <glyph glyph-name="three" unicode="3" horiz-adv-x="795" 
d="M408 -15q-165 0 -245 66.5t-85 218.5q-3 64 -3 129.5t3 150.5h161v-298q0 -134 164 -134q146 0 149 134q3 106 3 197t-4 182q-3 71 -41 109t-132 38l-140 -1l-5 135l302 547h-456v141h641l-1 -132l-309 -549q156 -5 226 -71t77 -220q2 -62 3 -132.5t0 -131.5t-3 -93
q-8 -153 -79 -219.5t-226 -66.5z" />
    <glyph glyph-name="four" unicode="4" horiz-adv-x="799" 
d="M440 0v477h-395v129l312 994h235v-982h157v-141h-157v-477h-152zM201 618h239l20 422l18 419h-44l-111 -419z" />
    <glyph glyph-name="five" unicode="5" horiz-adv-x="808" 
d="M416 -15q-170 0 -245 68t-80 217q-3 83 -2.5 147.5t2.5 132.5h162q-3 -40 -4 -96t-0.5 -110t2.5 -88q4 -74 45.5 -106t113.5 -32q151 0 158 136q7 117 8 237t-6 225q-7 130 -143 130q-72 0 -116 -41.5t-47 -87.5h-152v883h606v-141h-446v-568h34q20 38 71 64t114 26
q119 0 176 -68t63 -190q6 -96 5 -219t-7 -230q-10 -154 -83 -221.5t-229 -67.5z" />
    <glyph glyph-name="six" unicode="6" horiz-adv-x="819" 
d="M411 -17q-164 0 -235 67.5t-74 218.5q-4 285 -5 552t5 509q5 147 82.5 215.5t224.5 68.5q302 0 313 -278q2 -58 2 -121t-2 -128h-160q4 65 3.5 133t-3.5 136q-5 125 -152 125q-143 0 -146 -123q-3 -105 -5 -225.5t-3 -254.5h38q24 39 79 64t119 25q124 0 180.5 -58.5
t59.5 -199.5q3 -90 4 -156t0.5 -131.5t-4.5 -152.5q-7 -153 -82 -219.5t-239 -66.5zM412 118q76 0 116.5 29t41.5 97q2 93 3.5 161.5t1.5 137t-2 162.5q-2 68 -41 97.5t-103 29.5q-70 0 -120.5 -32t-52.5 -92q0 -215 6 -459q1 -71 40.5 -101t109.5 -30z" />
    <glyph glyph-name="seven" unicode="7" horiz-adv-x="678" 
d="M102 0l385 1459h-467v141h628v-141l-380 -1459h-166z" />
    <glyph glyph-name="eight" unicode="8" horiz-adv-x="803" 
d="M402 -15q-160 0 -230 68t-77 217q-2 60 -3 138.5t4 184.5q6 87 39 139.5t101 79.5v30q-113 41 -130 175q-7 101 -8.5 172.5t2.5 140.5q8 153 76.5 219t225.5 66q153 0 223.5 -66.5t78.5 -219.5q4 -62 2 -149.5t-8 -158.5q-17 -139 -132 -179v-31q62 -26 97 -76t43 -138
q6 -105 5.5 -186t-4.5 -141q-7 -152 -76.5 -218.5t-228.5 -66.5zM402 902q143 0 145 139q1 77 2 155.5t-2 151.5q-2 69 -35.5 101.5t-109.5 32.5q-73 0 -108 -31.5t-37 -100.5q-3 -68 -3.5 -114t0.5 -90t3 -108q2 -73 38 -104.5t107 -31.5zM402 118q75 0 109.5 31.5
t35.5 102.5q2 101 2.5 180t-2.5 180q-2 71 -36.5 104.5t-108.5 33.5q-76 0 -109.5 -33t-35.5 -105q-3 -95 -3.5 -180.5t2.5 -177.5q2 -66 35 -101t111 -35z" />
    <glyph glyph-name="nine" unicode="9" horiz-adv-x="817" 
d="M413 -17q-160 0 -234.5 66.5t-76.5 218.5q-1 27 -1 72t0.5 92t1.5 79h161q-2 -63 -3 -134t2 -130q2 -68 38.5 -98.5t109.5 -30.5q67 0 104 29.5t40 97.5q3 96 4.5 215.5t2.5 249.5h-33q-22 -38 -74.5 -64t-117.5 -26q-108 0 -179.5 62.5t-73.5 203.5q-1 72 -1.5 157.5
t0 162.5t1.5 123q7 152 83.5 218.5t238.5 66.5q164 0 234.5 -67.5t73.5 -217.5q4 -199 5.5 -367.5t0 -335t-5.5 -358.5q-2 -152 -75.5 -218.5t-225.5 -66.5zM393 755q160 0 168 117q0 126 -2 250t-6 235q-1 64 -40.5 94t-107.5 30q-157 0 -159 -125q0 -27 -1 -91.5
t-1.5 -141t-0.5 -142.5t1 -98q1 -68 42 -98t107 -30z" />
    <glyph glyph-name="colon" unicode=":" horiz-adv-x="425" 
d="M69 600v195h282v-195h-282zM69 0v195h282v-195h-282z" />
    <glyph glyph-name="semicolon" unicode=";" horiz-adv-x="426" 
d="M127 -217l96 217h-152v196h284v-178l-121 -235h-107zM69 604v195h282v-195h-282z" />
    <glyph glyph-name="less" unicode="&#x3c;" horiz-adv-x="999" 
d="M878 548v131l-399 52l-236 20v43l236 20l399 54v133l-758 -123v-212z" />
    <glyph glyph-name="equal" unicode="=" horiz-adv-x="917" 
d="M106 834v128h705v-128h-705zM106 572v128h705v-128h-705z" />
    <glyph glyph-name="greater" unicode="&#x3e;" horiz-adv-x="970" 
d="M106 548v131l399 52l236 20v43l-236 20l-399 54v133l758 -123v-212z" />
    <glyph glyph-name="question" unicode="?" horiz-adv-x="747" 
d="M270 346l-5 240q-3 85 20.5 140t109.5 96l44 21q49 22 60.5 68.5t11.5 131.5v308q0 59 -33 91t-108 32q-67 0 -99.5 -29.5t-36.5 -94.5q-3 -68 -3 -146t3 -154h-169q-2 93 -2.5 150t1.5 124q7 156 77 224t227 68q167 0 241 -68t74 -224q0 -89 0.5 -141t1 -83t-0.5 -59
q-2 -120 -22 -182t-56.5 -91t-90.5 -51l-44 -19q-44 -18 -53 -50t-11 -63l-8 -239h-129zM195 0v195h282v-195h-282z" />
    <glyph glyph-name="at" unicode="@" horiz-adv-x="1099" 
d="M551 -250q-225 0 -331 72t-109 239q-2 144 -4 270.5t-2 250t1.5 255t4.5 286.5q4 170 106.5 246t333.5 76q222 0 329 -74.5t110 -248.5q1 -167 1.5 -300t0 -250t-2.5 -238q-4 -146 -185 -146q-95 0 -133.5 27t-47.5 63h-25q-21 -43 -48 -67t-75 -24q-66 0 -99.5 41.5
t-39.5 138.5q-3 63 -4.5 147.5t-0.5 171t5 155.5q5 98 39.5 140t101.5 42q47 0 72.5 -22t46.5 -66h20v78h128l2 -678q0 -60 58 -60q53 0 55 61q2 164 4 352.5t-2 440.5q-3 108 -76.5 156.5t-233.5 48.5q-153 0 -229.5 -46t-79.5 -159q-4 -159 -5.5 -294.5t-1.5 -260.5
t1.5 -251.5t5.5 -267.5q3 -105 77 -149.5t232 -44.5q153 0 227.5 41.5t76.5 146.5q1 27 1.5 42t-1.5 39h128q3 -28 1 -78q-4 -165 -107 -233.5t-326 -68.5zM524 282q30 0 55 19.5t37 51.5v500q-11 37 -37 56t-55 19q-55 0 -58 -77q-6 -139 -7 -255.5t7 -235.5
q2 -44 15.5 -61t42.5 -17z" />
    <glyph glyph-name="A" unicode="A" horiz-adv-x="777" 
d="M53 0l172 1600h327l171 -1600h-162l-41 452h-264l-40 -452h-163zM270 595h237l-31 339l-44 523h-86l-45 -524z" />
    <glyph glyph-name="B" unicode="B" horiz-adv-x="824" 
d="M121 0v1600h300q159 0 230 -61.5t73 -203.5q0 -100 0.5 -171.5t-1.5 -141.5q-5 -85 -37 -134t-105 -68v-30q76 -21 110 -70t38 -135q3 -88 2.5 -160t-2.5 -159q-5 -143 -75 -204.5t-228 -61.5h-305zM280 878h156q71 0 99 33.5t30 112.5q3 86 2.5 158.5t-2.5 158.5
q-1 64 -33 90t-111 26h-141v-579zM280 146h146q80 0 111.5 27t32.5 94q3 85 3 156.5t-3 156.5q-1 87 -31.5 120t-107.5 33h-151v-587z" />
    <glyph glyph-name="C" unicode="C" horiz-adv-x="835" 
d="M420 -15q-159 0 -233.5 64t-76.5 212q-3 197 -4 368t0 341.5t4 367.5q2 145 76.5 209.5t233.5 64.5q158 0 233.5 -65t81.5 -209q3 -79 2.5 -147.5t-4.5 -146.5h-158q3 80 3 149.5t-2 149.5q-3 76 -37.5 104.5t-118.5 28.5q-81 0 -115.5 -28.5t-36.5 -104.5
q-3 -157 -5 -288.5t-2 -255t2 -255t5 -289.5q2 -76 36.5 -105t115.5 -29q88 0 124.5 29t39.5 105q3 68 2 138t-4 184h159q3 -96 4 -170t-2 -146q-6 -148 -82 -212t-241 -64z" />
    <glyph glyph-name="D" unicode="D" horiz-adv-x="835" 
d="M121 0v1600h302q159 0 229.5 -62t72.5 -204q3 -191 4 -362.5t0 -343t-4 -361.5q-2 -143 -70 -205t-221 -62h-313zM280 143h154q73 0 102 25.5t31 85.5q3 154 5 287t2 259.5t-2 259.5t-5 287q-2 60 -33.5 85t-110.5 25h-143v-1314z" />
    <glyph glyph-name="E" unicode="E" horiz-adv-x="708" 
d="M121 0v1600h531v-143h-372v-581h352v-142h-352v-591h372v-143h-531z" />
    <glyph glyph-name="F" unicode="F" horiz-adv-x="701" 
d="M121 0v1600h544v-143h-385v-581h365v-142h-365v-734h-159z" />
    <glyph glyph-name="G" unicode="G" horiz-adv-x="832" 
d="M425 -14q-168 0 -239 64t-75 213q-11 537 0 1069q4 151 75 216.5t238 65.5q163 0 233.5 -63.5t77.5 -212.5q6 -146 0 -293h-159q3 85 3 153.5t-3 152.5q-3 73 -34 100t-118 27q-89 0 -120.5 -27t-34.5 -100q-5 -202 -7 -376t0 -348.5t7 -376.5q3 -73 34.5 -100t121.5 -27
q94 0 126.5 27t35.5 100q3 140 0 280h-159v144h315q2 -125 1.5 -222.5t-3.5 -188.5q-4 -149 -76 -213t-240 -64z" />
    <glyph glyph-name="H" unicode="H" horiz-adv-x="855" 
d="M121 0v1600h159v-724h295v724h159v-1600h-159v734h-295v-734h-159z" />
    <glyph glyph-name="I" unicode="I" horiz-adv-x="401" 
d="M121 0v1600h159v-1600h-159z" />
    <glyph glyph-name="J" unicode="J" horiz-adv-x="750" 
d="M345 -14q-150 0 -217 64t-72 213q-2 84 -2 157.5t2 158.5h153q-3 -83 -3.5 -165t3.5 -164q2 -71 31 -99t105 -28q82 0 113 28t31 99v1350h158v-1337q0 -149 -70 -213t-232 -64z" />
    <glyph glyph-name="K" unicode="K" horiz-adv-x="785" 
d="M121 0v1600h166l-1 -376l-12 -470h49l144 503l111 343h171l-237 -716l262 -884h-163l-200 691l-129 -331v-360h-161z" />
    <glyph glyph-name="L" unicode="L" horiz-adv-x="663" 
d="M121 0v1600h159v-1457h371v-143h-530z" />
    <glyph glyph-name="M" unicode="M" horiz-adv-x="1298" 
d="M121 0v1600h343l95 -655l63 -795h55l62 795l96 655h341v-1600h-161v500l20 957h-85l-103 -998l-78 -452h-244l-73 452l-104 998h-84l20 -957v-500h-163z" />
    <glyph glyph-name="N" unicode="N" horiz-adv-x="1006" 
d="M121 0v1600h325l89 -507l134 -949h85l-20 890l-9 566h160v-1600h-335l-97 574l-113 884h-88l18 -859l11 -599h-160z" />
    <glyph glyph-name="O" unicode="O" horiz-adv-x="840" 
d="M419 -14q-163 0 -235 66t-74 219q-2 151 -3.5 281t-1.5 252.5t1.5 250t3.5 273.5q2 153 74 219.5t235 66.5q161 0 233 -66.5t75 -219.5q4 -146 5.5 -273.5t1.5 -250t-1.5 -252.5t-5.5 -281q-3 -153 -75 -219t-233 -66zM419 123q84 0 116.5 30t33.5 113q4 154 6 283
t2 250.5t-2 250.5t-6 284q-1 82 -33.5 113t-116.5 31t-116.5 -31t-34.5 -113q-4 -151 -6 -279t-2 -249t2 -252t6 -288q2 -83 34.5 -113t116.5 -30z" />
    <glyph glyph-name="P" unicode="P" horiz-adv-x="775" 
d="M121 0v1600h297q150 0 217.5 -60t71.5 -199q4 -134 4.5 -240t-4.5 -217q-5 -138 -73 -198t-218 -60h-136v-626h-159zM280 769h136q73 0 101.5 24.5t31.5 85.5q5 116 5 222t-5 246q-2 60 -31 85t-100 25h-138v-688z" />
    <glyph glyph-name="Q" unicode="Q" horiz-adv-x="840" 
d="M634 -229q-117 -8 -174.5 42.5t-66.5 172.5q-149 6 -215 72t-68 213q-2 151 -3.5 281t-1.5 252.5t1.5 250t3.5 273.5q2 153 74 219.5t235 66.5q161 0 233 -66.5t75 -219.5q4 -146 5.5 -273.5t1.5 -250t-1.5 -252.5t-5.5 -281q-2 -117 -45 -181.5t-136 -85.5
q-1 -61 19.5 -84t68.5 -17v-132zM419 123q84 0 116.5 30t33.5 113q4 154 6 283t2 250.5t-2 250.5t-6 284q-1 82 -33.5 113t-116.5 31t-116.5 -31t-34.5 -113q-4 -151 -6 -279t-2 -249t2 -252t6 -288q2 -83 34.5 -113t116.5 -30z" />
    <glyph glyph-name="R" unicode="R" horiz-adv-x="808" 
d="M121 0v1600h301q150 0 217.5 -60t72.5 -199q5 -142 5 -248t-5 -223q-8 -182 -132 -232l163 -638h-167l-147 612h-149v-612h-159zM280 755h141q71 0 100.5 25t32.5 84q3 91 4.5 166.5t0.5 150.5t-5 166q-3 60 -32 85t-100 25h-142v-702z" />
    <glyph glyph-name="S" unicode="S" horiz-adv-x="802" 
d="M403 -14q-161 0 -232.5 64t-76.5 213q-3 84 -2.5 156t4.5 160h153q-4 -89 -5 -171t5 -165q3 -67 37.5 -93.5t116.5 -26.5q77 0 110 26.5t38 93.5q6 65 5 143.5t-5 144.5q-2 80 -32 120t-98 57l-111 27q-123 30 -169 103.5t-50 223.5q-2 65 -1 135.5t2 142.5
q4 147 75.5 210.5t235.5 63.5q155 0 225 -63.5t76 -212.5q1 -62 0.5 -136.5t-2.5 -156.5h-154q3 91 3.5 166.5t-2.5 146.5q-3 67 -36 93.5t-112 26.5t-112.5 -26.5t-37.5 -93.5q-4 -76 -4 -147t4 -149q2 -87 23.5 -127t76.5 -53l105 -24q140 -32 194.5 -106.5t60.5 -220.5
q2 -64 1.5 -135.5t-2.5 -132.5q-6 -149 -77 -213t-230 -64z" />
    <glyph glyph-name="T" unicode="T" horiz-adv-x="673" 
d="M258 0v1457h-244v143h645v-143h-243v-1457h-158z" />
    <glyph glyph-name="U" unicode="U" horiz-adv-x="827" 
d="M414 -14q-163 0 -234 63.5t-73 208.5q-4 339 -3.5 671.5t3.5 670.5h159q-4 -338 -3.5 -677t1.5 -677q0 -67 33.5 -94t116.5 -27q82 0 115 27t33 94q1 338 2.5 677t-2.5 677h158q4 -338 4 -670.5t-4 -671.5q-2 -145 -73 -208.5t-233 -63.5z" />
    <glyph glyph-name="V" unicode="V" horiz-adv-x="791" 
d="M233 0l-177 1600h164l96 -891l38 -565h81l38 565l96 891h166l-179 -1600h-323z" />
    <glyph glyph-name="W" unicode="W" horiz-adv-x="1296" 
d="M179 0l-109 1600h160l34 -602l42 -854h79l44 854l73 592h290l73 -592l44 -854h79l44 854l36 602h158l-111 -1600h-324l-53 525l-52 926h-76l-53 -926l-54 -525h-324z" />
    <glyph glyph-name="X" unicode="X" horiz-adv-x="739" 
d="M41 0l188 816l-180 784h155l81 -377l53 -341h65l53 341l79 377h155l-175 -788l184 -812h-155l-86 396l-55 343h-65l-56 -343l-86 -396h-155z" />
    <glyph glyph-name="Y" unicode="Y" horiz-adv-x="729" 
d="M284 0v555h-51l-192 1045h161l78 -452l54 -457h61l52 457l78 452h163l-194 -1045h-51v-555h-159z" />
    <glyph glyph-name="Z" unicode="Z" horiz-adv-x="641" 
d="M36 0v132l401 1325h-378v143h546v-136l-407 -1321h371v-143h-533z" />
    <glyph glyph-name="bracketleft" unicode="[" horiz-adv-x="574" 
d="M106 -400v2000h408v-86h-245v-1828h245v-86h-408z" />
    <glyph glyph-name="backslash" unicode="\" horiz-adv-x="653" 
d="M593 -400l-439 2000h-159l438 -2000h160z" />
    <glyph glyph-name="bracketright" unicode="]" horiz-adv-x="574" 
d="M468 -400v2000h-408v-86h245v-1828h-245v-86h408z" />
    <glyph glyph-name="asciicircum" unicode="^" horiz-adv-x="787" 
d="M106 924l224 456h126l226 -456h-121l-168 343l-167 -343h-120z" />
    <glyph glyph-name="underscore" unicode="_" horiz-adv-x="1352" 
d="M60 -120v40h1232v-40h-1232z" />
    <glyph glyph-name="grave" unicode="`" horiz-adv-x="506" 
d="M263 1280l-163 234h127l160 -234h-124z" />
    <glyph glyph-name="a" unicode="a" horiz-adv-x="779" 
d="M317 -13q-226 0 -242 236q-2 25 -2.5 49.5t0.5 49.5q7 108 56.5 183.5t180.5 138.5q47 22 100.5 45t106.5 41v238q0 65 -27.5 94.5t-98.5 29.5q-60 0 -96 -25t-39 -89q-3 -45 -2.5 -106t2.5 -89h-156q-2 43 -3 88t1 87q6 132 72.5 194.5t227.5 62.5q160 0 218 -65.5
t58 -213.5l-1 -936h-159v111h-22q-26 -58 -61.5 -91t-113.5 -33zM359 107q113 0 156 113l2 375q-41 -13 -82.5 -31.5t-93.5 -50.5q-65 -38 -86 -84t-22 -107q-1 -28 -0.5 -48.5t1.5 -41.5q5 -58 37 -91.5t88 -33.5z" />
    <glyph glyph-name="b" unicode="b" horiz-adv-x="818" 
d="M499 -15q-81 0 -124 31t-78 95h-24v-111h-162v1600h162v-510h33q34 63 78 94t124 31q105 0 159.5 -58t57.5 -195q3 -98 4 -226.5t0 -260t-4 -237.5q-5 -135 -61.5 -194t-164.5 -59zM449 107q62 0 87.5 28t27.5 92q4 126 5.5 242.5t0.5 238.5t-5 265q-3 62 -28.5 91.5
t-87.5 29.5q-133 0 -176 -117v-753q23 -62 70 -89.5t106 -27.5z" />
    <glyph glyph-name="c" unicode="c" horiz-adv-x="770" 
d="M527 783q2 48 2 99t-1 91q-1 66 -32 92t-104 26q-74 0 -105 -26.5t-32 -92.5q-11 -363 0 -742q1 -68 33.5 -94.5t104.5 -26.5q73 0 103.5 27t31.5 95q1 42 1 86t-2 103h157q3 -36 3.5 -87.5t-1.5 -86.5q-5 -139 -72.5 -200t-220.5 -61q-157 0 -225 61.5t-74 199.5
q-3 95 -4.5 220.5t-0.5 254t5 231.5q7 141 76 202t222 61q154 0 222.5 -60t71.5 -198q1 -41 1 -88t-3 -86h-157z" />
    <glyph glyph-name="d" unicode="d" horiz-adv-x="819" 
d="M314 -15q-110 0 -162.5 59t-57.5 194q-4 109 -4.5 238.5t0.5 256.5t4 229q4 138 61.5 195.5t162.5 57.5q77 0 122 -31t78 -94h28v510h162v-1600h-162v111h-30q-34 -62 -79.5 -94t-122.5 -32zM370 107q60 0 107 27.5t69 89.5v753q-22 61 -68.5 89t-106.5 28
q-61 0 -87.5 -28t-27.5 -89q-5 -124 -6.5 -258t0 -260t4.5 -227q2 -71 30.5 -98t85.5 -27z" />
    <glyph glyph-name="e" unicode="e" horiz-adv-x="768" 
d="M396 -15q-159 0 -227 61.5t-75 200.5q-3 95 -4.5 220t-0.5 253t5 231q7 142 77.5 203t222.5 61q153 0 220 -62t73 -195q1 -23 2 -87.5t0 -146t-4 -155.5h-435q0 -83 1 -167.5t3 -171.5q1 -68 34.5 -94t104.5 -26t101.5 26t33.5 94q2 30 1.5 82t-3.5 108h159q2 -34 3 -88
t-1 -85q-7 -141 -72.5 -201.5t-218.5 -60.5zM250 691h280q1 56 1 114t-0.5 103t-2.5 63q-4 68 -36 94.5t-98 26.5q-76 0 -107.5 -30t-32.5 -91q-2 -69 -3 -139.5t-1 -140.5z" />
    <glyph glyph-name="f" unicode="f" horiz-adv-x="545" 
d="M141 0v1076h-107v124h107v156q-2 140 67 200.5t222 60.5q30 0 69 -4t71 -8v-121q-29 2 -63.5 4t-73.5 2q-68 0 -101 -26t-31 -97v-167h232v-124h-232v-1076h-160z" />
    <glyph glyph-name="g" unicode="g" horiz-adv-x="814" 
d="M389 -337q-137 0 -221.5 41.5t-93.5 128.5q-1 5 -1.5 21.5t-0.5 28.5q4 57 44 88t90 40v27q-101 27 -106 105q-2 19 0 39q2 40 33 69t77 35v29q-61 27 -90 84t-34 148q-3 80 -4 139.5t0 119.5t4 145q7 142 76 203t222 61q107 0 170.5 -28t93.5 -91h26q6 50 42 77t95 27
v-125h-22q-50 0 -79 -34t-29 -107v-49q2 -67 2.5 -118.5t-0.5 -103t-4 -116.5q-7 -141 -74 -201.5t-221 -60.5q-157 2 -157 -75v-11q0 -38 40.5 -53.5t130.5 -17.5q158 -6 239.5 -50t91.5 -153q2 -19 3 -25t-3 -33q-9 -117 -101 -160.5t-239 -43.5zM384 407q66 0 101.5 26.5
t38.5 98.5q5 95 5 215t-5 223q-3 66 -35 94t-105 28q-74 0 -107 -29.5t-36 -97.5q-2 -62 -3 -140t-0.5 -155t3.5 -137q3 -71 39 -98.5t104 -27.5zM396 -222q85 0 139 19t61 78q4 23 0 47q-7 61 -63.5 72.5t-138.5 14.5q-80 2 -130.5 -13.5t-55.5 -76.5q-2 -22 -2 -23t2 -22
q7 -61 56 -78.5t132 -17.5z" />
    <glyph glyph-name="h" unicode="h" horiz-adv-x="832" 
d="M111 0v1600h162v-510h33q34 63 78 94t124 31q111 0 164 -60.5t53 -192.5l2 -962h-160l-2 974q0 64 -27 92t-88 28q-134 0 -177 -117v-977h-162z" />
    <glyph glyph-name="i" unicode="i" horiz-adv-x="381" 
d="M85 1440v160h210v-160h-210zM111 0v1200h159v-1200h-159z" />
    <glyph glyph-name="j" unicode="j" horiz-adv-x="380" 
d="M94 1440v160h210v-160h-210zM-23 -412q-30 0 -71 3t-71 8v122q59 -5 139 -5q75 0 106.5 26.5t31.5 90.5v1367h162v-1352q-2 -139 -71.5 -199.5t-225.5 -60.5z" />
    <glyph glyph-name="k" unicode="k" horiz-adv-x="727" 
d="M111 0v1600h152v-310l-15 -618h35l117 299l105 229h167l-234 -490l287 -710h-168l-216 542l-74 -134v-408h-156z" />
    <glyph glyph-name="l" unicode="l" horiz-adv-x="381" 
d="M111 0v1600h159v-1600h-159z" />
    <glyph glyph-name="m" unicode="m" horiz-adv-x="1244" 
d="M111 0v1200h160v-110h31q32 61 73.5 93t120.5 32q78 0 127 -32t70 -102h29q32 62 80 98t127 36q104 0 156.5 -59t53.5 -194v-962h-160v974q0 64 -27.5 92t-82.5 28q-62 0 -100.5 -32t-60.5 -88v-974h-160v974q0 64 -27.5 92t-82.5 28q-126 0 -167 -117v-977h-160z" />
    <glyph glyph-name="n" unicode="n" horiz-adv-x="832" 
d="M111 0v1200h160v-110h35q33 62 80.5 93.5t121.5 31.5q111 0 164.5 -60.5t54.5 -192.5v-962h-159v974q-2 64 -29.5 92t-88.5 28q-58 0 -108.5 -31t-70.5 -86v-977h-160z" />
    <glyph glyph-name="o" unicode="o" horiz-adv-x="795" 
d="M398 -15q-162 0 -229.5 65.5t-73.5 215.5q-4 82 -5.5 200.5t-0.5 242.5t6 224q7 153 74 217.5t229 64.5q164 0 229.5 -65.5t72.5 -216.5q4 -91 5.5 -208t0 -237t-5.5 -222q-8 -150 -73.5 -215.5t-228.5 -65.5zM398 109q79 0 110 30t33 94q7 181 7.5 363.5t-7.5 371.5
q-2 67 -34 95t-109 28t-110 -29.5t-35 -96.5q-6 -160 -7 -352t7 -377q3 -69 35.5 -98t109.5 -29z" />
    <glyph glyph-name="p" unicode="p" horiz-adv-x="818" 
d="M111 -400v1600h162v-110h28q34 63 77 94t125 31q108 0 162.5 -59t59.5 -194q2 -61 3 -157.5t1 -203.5t-1 -203.5t-3 -159.5q-5 -135 -63 -194t-166 -59q-68 0 -113 29.5t-82 96.5h-28v-511h-162zM442 107q59 0 89.5 28t32.5 92q6 165 7 286t-1 229t-6 235q-2 61 -28.5 89
t-86.5 28q-133 0 -176 -117v-753q24 -65 64 -91t105 -26z" />
    <glyph glyph-name="q" unicode="q" horiz-adv-x="818" 
d="M545 -400v511h-26q-37 -69 -82.5 -97.5t-112.5 -28.5q-109 0 -167.5 59t-63.5 194q-2 71 -3.5 166.5t-1.5 198t1.5 196.5t3.5 163q5 135 59 194t164 59q79 0 123 -31t77 -94h29v110h162v-1600h-162zM377 107q65 0 105 26t63 91v753q-22 61 -68.5 89t-107.5 28
q-58 0 -86 -28t-30 -94q-4 -173 -5 -369.5t6 -375.5q2 -64 33 -92t90 -28z" />
    <glyph glyph-name="r" unicode="r" horiz-adv-x="569" 
d="M111 0v1200h163v-119h34q18 68 61 96t117 28q18 0 37 -2t38 -2v-125h-73q-92 0 -143 -29t-71 -103v-944h-163z" />
    <glyph glyph-name="s" unicode="s" horiz-adv-x="724" 
d="M356 -15q-152 0 -212.5 61t-65.5 200q-1 46 -0.5 86.5t2.5 84.5h145q-3 -61 -2.5 -107t0.5 -80q1 -68 31.5 -94.5t101.5 -26.5q76 0 109 26.5t35 95.5q1 44 1 70t-1 64q-2 70 -20.5 104t-74.5 52l-110 31q-119 35 -167 97t-52 194q-1 62 0 109q4 140 67.5 201.5
t221.5 61.5q149 0 211.5 -60t67.5 -201q0 -22 -0.5 -77t-3.5 -91h-148q3 48 2.5 101t-1.5 86q-1 67 -28.5 92.5t-99.5 25.5t-100 -25.5t-31 -93.5q-1 -18 -2 -48t0 -65q2 -71 18 -114t79 -61l104 -27q112 -29 165 -93.5t53 -193.5v-63.5t-2 -64.5q-4 -137 -68.5 -197
t-224.5 -60z" />
    <glyph glyph-name="t" unicode="t" horiz-adv-x="540" 
d="M418 -15q-161 0 -226 59.5t-65 204.5l-1 827h-94v124h99v340h160v-340h208v-124h-213l1 -845q0 -72 26.5 -97.5t107.5 -25.5q30 0 51.5 1.5t50.5 4.5v-119q-24 -4 -50 -7t-55 -3z" />
    <glyph glyph-name="u" unicode="u" horiz-adv-x="829" 
d="M326 -15q-110 0 -166.5 60t-56.5 195v960h161l1 -973q0 -64 26.5 -92t86.5 -28q59 0 108 30.5t70 86.5v976h161v-1200h-161v111h-28q-67 -126 -202 -126z" />
    <glyph glyph-name="v" unicode="v" horiz-adv-x="703" 
d="M214 0l-178 1200h166l80 -605l47 -473h42l50 473l81 605h165l-180 -1200h-273z" />
    <glyph glyph-name="w" unicode="w" horiz-adv-x="1139" 
d="M183 0l-143 1200h162l61 -605l36 -473h39l37 473l62 600h266l60 -600l36 -473h40l39 473l61 605h160l-145 -1200h-273l-46 462l-46 611h-40l-47 -611l-45 -462h-274z" />
    <glyph glyph-name="x" unicode="x" horiz-adv-x="663" 
d="M28 0l187 619l-183 581h157l68 -258l56 -258h35l58 258l68 258h157l-183 -584l187 -616h-157l-79 315l-52 249h-32l-51 -249l-79 -315h-157z" />
    <glyph glyph-name="y" unicode="y" horiz-adv-x="723" 
d="M186 -410q-29 0 -69.5 4t-71.5 8v123q26 -3 65.5 -5.5t71.5 -2.5q82 0 111.5 26.5t40.5 96.5l28 160h-121l-187 1200h166l76 -578l56 -500h46l58 500l66 578h166l-194 -1350q-13 -88 -44 -145.5t-93.5 -86t-170.5 -28.5z" />
    <glyph glyph-name="z" unicode="z" horiz-adv-x="641" 
d="M44 0v102l391 976l-382 -3v122l556 3v-106l-397 -972h383v-122h-551z" />
    <glyph glyph-name="braceleft" unicode="{" horiz-adv-x="645" 
d="M585 -401q-167 0 -275.5 78t-108.5 245q0 31 3 97.5t6.5 142t6 136t2.5 79.5q0 81 -31.5 108.5t-83.5 27.5h-44v172h44q52 0 83.5 27t31.5 109q0 18 -2.5 78.5t-6 136t-6 142.5t-2.5 99q0 167 108 245t275 78v-87q-99 0 -162 -66.5t-63 -169.5q0 -28 2.5 -86t5.5 -124.5
t5.5 -123t2.5 -80.5q0 -100 -39.5 -166.5t-115.5 -81.5v-32q76 -14 115.5 -81t39.5 -166q0 -24 -2.5 -80.5t-5.5 -123t-5.5 -125t-2.5 -85.5q0 -104 63 -170t162 -66v-87z" />
    <glyph glyph-name="bar" unicode="|" horiz-adv-x="372" 
d="M106 1827h161v-2067h-161v2067z" />
    <glyph glyph-name="braceright" unicode="}" horiz-adv-x="645" 
d="M60 -401q167 0 275.5 78t108.5 245q0 31 -3 97.5t-6.5 142t-6 136t-2.5 79.5q0 81 31.5 108.5t83.5 27.5h44v172h-44q-52 0 -83.5 27t-31.5 109q0 18 2.5 78.5t6 136t6 142.5t2.5 99q0 167 -108 245t-275 78v-87q99 0 162 -66.5t63 -169.5q0 -28 -2.5 -86t-5.5 -124.5
t-5.5 -123t-2.5 -80.5q0 -100 39.5 -166.5t115.5 -81.5v-32q-76 -14 -115.5 -81t-39.5 -166q0 -24 2.5 -80.5t5.5 -123t5.5 -125t2.5 -85.5q0 -104 -63 -170t-162 -66v-87z" />
    <glyph glyph-name="asciitilde" unicode="~" horiz-adv-x="956" 
d="M617 654q-67 5 -108.5 34t-77.5 59t-85 37q-56 9 -92 -23.5t-39 -94.5h-109q7 130 77.5 193t174.5 52q55 -6 90.5 -25t62.5 -42t53 -41t60 -21q53 -5 85.5 26t32.5 88h108q-2 -124 -67 -187t-166 -55z" />
    <glyph glyph-name="uni00A0" unicode="&#xa0;" horiz-adv-x="414" 
 />
    <glyph glyph-name="exclamdown" unicode="&#xa1;" horiz-adv-x="468" 
d="M149 884l-22 -606v-678h165v678l-20 606h-123zM69 1200v-195h282v195h-282z" />
    <glyph glyph-name="cent" unicode="&#xa2;" horiz-adv-x="770" 
d="M318 0v190q-115 12 -167 73.5t-57 182.5q-3 72 -4 172.5t-1 205.5t1.5 193t3.5 135q5 123 57.5 184.5t166.5 73.5v190h142v-189q117 -11 170 -72t56 -182q1 -35 1 -85t-3 -89h-158q3 48 2.5 101.5t-0.5 88.5q-1 66 -32 92t-105 26q-73 0 -104.5 -26.5t-32.5 -92.5
q-9 -363 0 -742q1 -68 34 -94.5t105 -26.5t103 27t32 95q0 36 0.5 82t-2.5 107h158q3 -36 3.5 -87.5t-1.5 -86.5q-5 -123 -57 -184t-169 -72v-190h-142z" />
    <glyph glyph-name="sterling" unicode="&#xa3;" horiz-adv-x="857" 
d="M127 0v136q65 48 91 160t26 262q0 58 -4.5 107.5t-12.5 93.5h-121v96h98q-16 68 -33.5 136.5t-29 150.5t-11.5 190q1 137 72 209.5t228 72.5q159 0 229 -66.5t74 -216.5q3 -71 2.5 -137t-2.5 -156h-160q1 44 1.5 102.5t0.5 116t-1 99.5q-2 66 -36 95.5t-108 29.5
q-72 0 -106 -29.5t-34 -95.5q0 -147 29.5 -262t54.5 -239h198v-96h-183q6 -41 9.5 -84t3.5 -90q0 -159 -32.5 -259.5t-83.5 -153.5v-30h465v-142h-624z" />
    <glyph glyph-name="currency" unicode="&#xa4;" horiz-adv-x="986" 
d="M189 51l-80 62l123 168q-40 61 -45 178q-3 82 -4.5 200t-0.5 242.5t5 224.5q5 115 46 180l-127 168l78 61l122 -162q66 35 184 35t184 -33l123 158l78 -62l-127 -164q40 -63 45 -181q4 -91 5.5 -208t0.5 -237t-6 -222q-5 -117 -45 -182l119 -162l-79 -62l-117 157
q-65 -32 -181 -32t-183 33zM490 302q80 0 111 30t33 94q7 181 7.5 363.5t-7.5 371.5q-2 67 -34.5 95t-109.5 28t-109.5 -29.5t-34.5 -96.5q-7 -160 -7 -352t8 -378q2 -68 34 -97t109 -29z" />
    <glyph glyph-name="yen" unicode="&#xa5;" horiz-adv-x="729" 
d="M286 0v215h-143v96h143v79h-143v98h143v67h-51l-194 1045h163l78 -452l52 -457h61l54 457l76 452h163l-194 -1045h-51v-67h145v-98h-145v-79h145v-96h-145v-215h-157z" />
    <glyph glyph-name="brokenbar" unicode="&#xa6;" horiz-adv-x="372" 
d="M106 1827h161v-811h-161v811zM106 536h161v-776h-161v776z" />
    <glyph glyph-name="section" unicode="&#xa7;" horiz-adv-x="795" 
d="M390 -415q-152 0 -212 53t-66 192q-1 43 -0.5 94t2.5 96h145q-2 -42 -3 -69.5t-0.5 -56t1.5 -72.5q3 -63 33.5 -88t99.5 -25q77 0 108.5 26t33.5 95q1 46 2 86.5t0 84.5q-2 69 -18 106.5t-77 49.5l-88 21q-101 23 -169.5 74t-72.5 165q-5 155 0 328q2 77 35.5 124.5
t81.5 70.5v37q-57 23 -85 65t-33 138q-4 86 2 183q8 94 34.5 147t86.5 74t168 21q151 0 212.5 -60t64.5 -198q1 -36 1.5 -83.5t-3.5 -98.5h-149q4 46 4 106.5t-2 89.5q-3 71 -31.5 92t-96.5 21q-76 0 -101 -22t-30 -88q-3 -40 -4 -94.5t1 -91.5q3 -71 17 -107.5t80 -50.5
l103 -22q99 -21 156 -84.5t64 -171.5q5 -93 4 -163t-6 -161q-9 -136 -117 -180v-29q61 -24 90 -79t31 -134q0 -37 -0.5 -83.5t-3.5 -81.5q-10 -137 -72 -191.5t-221 -54.5zM403 299q76 0 103 37t31 83q4 45 5 105.5t0 120t-4 101.5q-4 45 -31 82.5t-104 37.5
q-75 0 -106.5 -36t-34.5 -83q-5 -78 -4 -164t6 -164q4 -50 34.5 -85t104.5 -35z" />
    <glyph glyph-name="dieresis" unicode="&#xa8;" horiz-adv-x="627" 
d="M365 1310v134h134v-134h-134zM131 1310v134h134v-134h-134z" />
    <glyph glyph-name="copyright" unicode="&#xa9;" horiz-adv-x="1282" 
d="M641 -10q-272 0 -403.5 149.5t-131.5 460.5t131.5 460.5t403.5 149.5t403.5 -149.5t131.5 -460.5t-131.5 -460.5t-403.5 -149.5zM641 76q224 0 331 127t107 397q0 268 -107 396t-331 128q-225 0 -331.5 -127.5t-106.5 -396.5t106.5 -396.5t331.5 -127.5zM646 184
q-108 0 -159 44t-56 154q-3 60 -3.5 134.5t0.5 151t3 141.5q3 108 53 154.5t161 46.5t160 -46t52 -151q1 -20 0 -38t-2 -38h-104q2 23 1.5 44.5t-0.5 40.5q0 59 -25 81t-82 22t-82 -22t-26 -82q-3 -69 -3 -152t0.5 -161.5t2.5 -135.5q2 -60 27.5 -82t81.5 -22t80.5 22.5
t25.5 81.5q1 21 1 40t-2 53h104q3 -29 3 -46t-1 -38q-5 -105 -52.5 -151t-158.5 -46z" />
    <glyph glyph-name="ordfeminine" unicode="&#xaa;" horiz-adv-x="704" 
d="M293 754q-92 0 -133.5 42t-51.5 130q-2 14 -2 31v36q4 77 46 130t149 96q32 12 77 28.5t92 30.5q0 38 -1.5 77t-2.5 80q-2 40 -22 61t-84 21q-50 0 -76 -17.5t-31 -61.5q-1 -12 -0.5 -38t1 -53t1.5 -40h-127q-1 11 -2 36.5t-1 50t1 35.5q2 92 56 139t184 47
q131 0 179 -48.5t51 -159.5q1 -49 1.5 -134.5t0.5 -183t-1 -185t-1 -140.5h-130v40.5t2 38.5h-24q-21 -42 -55 -65.5t-96 -23.5zM338 850q39 0 75.5 16.5t54.5 59.5q2 68 3 130t1 121q-37 -10 -72 -22t-74 -32q-54 -25 -71 -57.5t-19 -72.5q-1 -7 -0.5 -27.5t1.5 -31.5
q3 -42 31.5 -63t69.5 -21z" />
    <glyph glyph-name="guillemotleft" unicode="&#xab;" horiz-adv-x="732" 
d="M350 239l-304 303v161l304 304v-161l-223 -223l223 -224v-160zM627 239l-304 303v161l304 304v-161l-223 -223l223 -224v-160z" />
    <glyph glyph-name="logicalnot" unicode="&#xac;" horiz-adv-x="917" 
d="M681 523v308h-575v129h705v-437h-130z" />
    <glyph glyph-name="uni00AD" unicode="&#xad;" horiz-adv-x="715" 
d="M60 687v143h595v-143h-595z" />
    <glyph glyph-name="registered" unicode="&#xae;" horiz-adv-x="855" 
d="M430 1028q-324 0 -324 348q0 354 324 354q319 0 319 -354q0 -348 -319 -348zM430 1082q137 0 200 70t63 224q0 157 -63 227.5t-200 70.5q-140 0 -204 -70t-64 -228q0 -154 64 -224t204 -70zM336 1176v424h96q49 0 77 -19t29 -71q4 -29 0 -63q0 -25 -13 -43.5t-41 -23.5
v-11q51 -12 54 -68q2 -20 1.5 -64.5t-1.5 -60.5h-63q1 33 0.5 71t-1.5 63q-2 40 -42 40h-34v-174h-62zM398 1404h36q38 0 40 35q1 35 0 77q-2 29 -42 29h-34v-141z" />
    <glyph glyph-name="macron" unicode="&#xaf;" horiz-adv-x="806" 
d="M53 1377h495v-94h-495v94z" />
    <glyph glyph-name="degree" unicode="&#xb0;" horiz-adv-x="690" 
d="M346 1182q-65 0 -119.5 30t-87.5 79.5t-33 108.5q0 60 33 110t87.5 80t119.5 30q64 0 118 -30t87 -80t33 -110q0 -59 -33 -108.5t-87 -79.5t-118 -30zM346 1258q64 0 112 42t48 100q0 60 -48 102.5t-112 42.5q-66 0 -114 -42.5t-48 -102.5q0 -58 48 -100t114 -42z" />
    <glyph glyph-name="plusminus" unicode="&#xb1;" horiz-adv-x="957" 
d="M415 562v143h-309v124h309v170h126v-170h310v-124h-310v-143h-126zM106 362v104h745v-104h-745z" />
    <glyph glyph-name="uni00B2" unicode="&#xb2;" horiz-adv-x="518" 
d="M79 880v83.5v61.5q1 83 42.5 131.5t100.5 79.5l62 34q29 16 41 36t14 51q3 26 2 52.5t-2 54.5q0 20 -15.5 35t-55.5 15q-68 0 -70 -50q-1 -33 0 -68.5t2 -61.5h-120q-1 36 -2 56.5t0 58.5q8 160 191 160q187 0 191 -160q1 -27 2 -40.5t0 -50.5q-1 -72 -37 -111.5
t-97 -68.5l-69 -33q-54 -31 -54 -108v-54h248v-103h-374z" />
    <glyph glyph-name="uni00B3" unicode="&#xb3;" horiz-adv-x="522" 
d="M262 871q-197 0 -198 153q-1 30 -1 44t1 53h121q-2 -25 -2 -52.5t1 -44.5q3 -57 74 -57q39 0 55 13.5t18 39.5q2 42 2 69.5t-2 62.5q-4 59 -81 59h-84l-5 88l144 198h-234v103h381l-1 -99l-154 -197q70 -6 113 -40.5t44 -109.5q1 -26 1 -68.5t-1 -60.5
q-2 -73 -48.5 -113.5t-143.5 -40.5z" />
    <glyph glyph-name="acute" unicode="&#xb4;" horiz-adv-x="508" 
d="M111 1280l167 234h125l-171 -234h-121z" />
    <glyph glyph-name="uni00B5" unicode="&#xb5;" horiz-adv-x="852" 
d="M107 -400l-1 1600h160l2 -973q1 -64 28 -92t87 -28q57 0 103 30.5t66 86.5v976h162v-998q0 -142 32 -202h-160q-21 38 -28 111h-33q-28 -53 -66.5 -84.5t-94.5 -36.5t-95 10v-400h-162z" />
    <glyph glyph-name="paragraph" unicode="&#xb6;" horiz-adv-x="993" 
d="M482 -200v1016h-77q-147 0 -217.5 58.5t-79.5 222.5q-3 59 -2.5 125t2.5 98q8 160 78 220t219 60h483v-94h-99v-1706h-118v1706h-72v-1706h-117z" />
    <glyph glyph-name="periodcentered" unicode="&#xb7;" horiz-adv-x="327" 
d="M93 759v141h141v-141h-141z" />
    <glyph glyph-name="cedilla" unicode="&#xb8;" horiz-adv-x="480" 
d="M83 -308v96h49q48 0 64.5 22.5t5.5 73.5l-27 116h105l27 -116q37 -192 -174 -192h-50z" />
    <glyph glyph-name="uni00B9" unicode="&#xb9;" horiz-adv-x="343" 
d="M125 880v615h-91l-4 42l122 63h102v-720h-129z" />
    <glyph glyph-name="ordmasculine" unicode="&#xba;" horiz-adv-x="715" 
d="M356 754q-130 0 -183.5 46t-61.5 164q-2 29 -3.5 89t-1.5 129.5t1 130.5t4 93q10 111 59.5 160t183.5 49q140 0 192.5 -50.5t58.5 -158.5q2 -35 3.5 -97.5t1.5 -132t-1.5 -128t-3.5 -84.5q-9 -108 -58 -159t-191 -51zM358 851q63 0 88.5 19.5t26.5 64.5q5 109 6.5 184.5
t-0.5 147t-6 168.5q-1 44 -27 63t-88 19q-57 0 -86 -18.5t-30 -64.5q-4 -95 -5.5 -171.5t0 -154t5.5 -174.5q1 -46 30 -64.5t86 -18.5z" />
    <glyph glyph-name="guillemotright" unicode="&#xbb;" horiz-adv-x="711" 
d="M361 239l304 303v161l-304 304v-161l223 -223l-223 -224v-160zM84 239l304 303v161l-304 304v-161l223 -223l-223 -224v-160z" />
    <glyph glyph-name="onequarter" unicode="&#xbc;" horiz-adv-x="986" 
d="M125 880v615h-91l-4 42l122 63h102v-720h-129zM-46 0l801 1600h121l-803 -1600h-119zM867 720v-426h84v-102h-84v-192h-115v192h-229v96l180 432h164zM752 294l15 171l14 152h-26l-52 -152l-61 -171h110z" />
    <glyph glyph-name="onehalf" unicode="&#xbd;" horiz-adv-x="1015" 
d="M125 880v615h-91l-4 42l122 63h102v-720h-129zM-46 0l801 1600h121l-803 -1600h-119zM575 0v83.5v61.5q1 83 42.5 131.5t100.5 79.5l62 34q29 16 41 36t14 51q3 26 2 52.5t-2 54.5q0 20 -15.5 35t-55.5 15q-68 0 -70 -50q-1 -33 0 -68.5t2 -61.5h-120q-1 36 -2 56.5
t0 58.5q8 160 191 160q187 0 191 -160q1 -27 2 -40.5t0 -50.5q-1 -72 -37 -111.5t-97 -68.5l-69 -33q-54 -31 -54 -108v-54h248v-103h-374z" />
    <glyph glyph-name="threequarters" unicode="&#xbe;" horiz-adv-x="1194" 
d="M262 871q-197 0 -198 153q-1 30 -1 44t1 53h121q-2 -25 -2 -52.5t1 -44.5q3 -57 74 -57q39 0 55 13.5t18 39.5q2 42 2 69.5t-2 62.5q-4 59 -81 59h-84l-5 88l144 198h-234v103h381l-1 -99l-154 -197q70 -6 113 -40.5t44 -109.5q1 -26 1 -68.5t-1 -60.5
q-2 -73 -48.5 -113.5t-143.5 -40.5zM162 0l801 1600h121l-803 -1600h-119zM1075 720v-426h84v-102h-84v-192h-115v192h-229v96l180 432h164zM960 294l15 171l14 152h-26l-52 -152l-61 -171h110z" />
    <glyph glyph-name="questiondown" unicode="&#xbf;" horiz-adv-x="747" 
d="M477 854l5 -240q3 -85 -20.5 -140t-109.5 -96l-44 -21q-49 -22 -60.5 -68.5t-11.5 -131.5v-308q0 -59 33 -91t108 -32q67 0 99.5 29.5t36.5 94.5q3 68 3 146t-3 154h169q2 -93 2.5 -150t-1.5 -124q-7 -156 -77 -224t-227 -68q-167 0 -241 68t-74 224q0 89 -0.5 141t-1 83
t0.5 59q2 120 22 182t56.5 91t90.5 51l44 19q44 18 53 50t11 63l8 239h129zM552 1200v-195h-282v195h282z" />
    <glyph glyph-name="Agrave" unicode="&#xc0;" horiz-adv-x="777" 
d="M53 0l172 1600h327l171 -1600h-162l-41 452h-264l-40 -452h-163zM270 595h237l-31 339l-44 523h-86l-45 -524zM313 1680l-163 234h127l160 -234h-124z" />
    <glyph glyph-name="Aacute" unicode="&#xc1;" horiz-adv-x="777" 
d="M53 0l172 1600h327l171 -1600h-162l-41 452h-264l-40 -452h-163zM270 595h237l-31 339l-44 523h-86l-45 -524zM338 1680l167 234h125l-171 -234h-121z" />
    <glyph glyph-name="Acircumflex" unicode="&#xc2;" horiz-adv-x="777" 
d="M53 0l172 1600h327l171 -1600h-162l-41 452h-264l-40 -452h-163zM270 595h237l-31 339l-44 523h-86l-45 -524zM182 1681l151 234h107l152 -234h-117l-88 143l-87 -143h-118z" />
    <glyph glyph-name="Atilde" unicode="&#xc3;" horiz-adv-x="777" 
d="M53 0l172 1600h327l171 -1600h-162l-41 452h-264l-40 -452h-163zM270 595h237l-31 339l-44 523h-86l-45 -524zM579 1853h77q-2 -84 -48.5 -124.5t-117.5 -38.5q-47 2 -78 21t-57.5 39t-61.5 23q-33 4 -60 -12.5t-33 -59.5h-77q7 92 56 131.5t123 33.5q45 -4 75 -23.5
t57 -38.5t61 -21q37 -2 60 18.5t24 51.5z" />
    <glyph glyph-name="Adieresis" unicode="&#xc4;" horiz-adv-x="777" 
d="M53 0l172 1600h327l171 -1600h-162l-41 452h-264l-40 -452h-163zM270 595h237l-31 339l-44 523h-86l-45 -524zM438 1710v134h134v-134h-134zM204 1710v134h134v-134h-134z" />
    <glyph glyph-name="Aring" unicode="&#xc5;" horiz-adv-x="777" 
d="M53 0l172 1600h327l171 -1600h-162l-41 452h-264l-40 -452h-163zM270 595h237l-31 339l-44 523h-86l-45 -524zM389 1670q-67 0 -116.5 49t-49.5 118q0 67 49 116.5t117 49.5q69 0 118 -49.5t49 -116.5q0 -69 -50 -118t-117 -49zM389 1766q29 0 50.5 21t21.5 50t-21.5 50
t-50.5 21q-28 0 -49 -21t-21 -50t20.5 -50t49.5 -21z" />
    <glyph glyph-name="AE" unicode="&#xc6;" horiz-adv-x="1135" 
d="M53 0l291 1600h735v-143h-371v-581h351v-142h-351v-591h371v-143h-529v444h-246l-80 -444h-171zM333 587h217v872h-82l-77 -560z" />
    <glyph glyph-name="Ccedilla" unicode="&#xc7;" horiz-adv-x="835" 
d="M420 -15q-159 0 -233.5 64t-76.5 212q-3 197 -4 368t0 341.5t4 367.5q2 145 76.5 209.5t233.5 64.5q158 0 233.5 -65t81.5 -209q3 -79 2.5 -147.5t-4.5 -146.5h-158q3 80 3 149.5t-2 149.5q-3 76 -37.5 104.5t-118.5 28.5q-81 0 -115.5 -28.5t-36.5 -104.5
q-3 -157 -5 -288.5t-2 -255t2 -255t5 -289.5q2 -76 36.5 -105t115.5 -29q88 0 124.5 29t39.5 105q3 68 2 138t-4 184h159q3 -96 4 -170t-2 -146q-6 -148 -82 -212t-241 -64zM273 -301v96h49q48 0 64.5 22.5t5.5 73.5l-27 116h105l27 -116q37 -192 -174 -192h-50z" />
    <glyph glyph-name="Egrave" unicode="&#xc8;" horiz-adv-x="708" 
d="M121 0v1600h531v-143h-372v-581h352v-142h-352v-591h372v-143h-531zM308 1677l-163 234h127l160 -234h-124z" />
    <glyph glyph-name="Eacute" unicode="&#xc9;" horiz-adv-x="708" 
d="M121 0v1600h531v-143h-372v-581h352v-142h-352v-591h372v-143h-531zM332 1677l167 234h125l-171 -234h-121z" />
    <glyph glyph-name="Ecircumflex" unicode="&#xca;" horiz-adv-x="708" 
d="M121 0v1600h531v-143h-372v-581h352v-142h-352v-591h372v-143h-531zM176 1678l151 234h107l152 -234h-117l-88 143l-87 -143h-118z" />
    <glyph glyph-name="Edieresis" unicode="&#xcb;" horiz-adv-x="708" 
d="M121 0v1600h531v-143h-372v-581h352v-142h-352v-591h372v-143h-531zM432 1707v134h134v-134h-134zM198 1707v134h134v-134h-134z" />
    <glyph glyph-name="Igrave" unicode="&#xcc;" horiz-adv-x="401" 
d="M121 0v1600h159v-1600h-159zM126 1680l-163 234h127l160 -234h-124z" />
    <glyph glyph-name="Iacute" unicode="&#xcd;" horiz-adv-x="401" 
d="M121 0v1600h159v-1600h-159zM150 1680l167 234h125l-171 -234h-121z" />
    <glyph glyph-name="Icircumflex" unicode="&#xce;" horiz-adv-x="401" 
d="M121 0v1600h159v-1600h-159zM-6 1681l151 234h107l152 -234h-117l-88 143l-87 -143h-118z" />
    <glyph glyph-name="Idieresis" unicode="&#xcf;" horiz-adv-x="401" 
d="M121 0v1600h159v-1600h-159zM250 1710v134h134v-134h-134zM16 1710v134h134v-134h-134z" />
    <glyph glyph-name="Eth" unicode="&#xd0;" horiz-adv-x="881" 
d="M168 0v856h-68v90h68v654h302q159 0 229 -62t73 -204q3 -191 4 -362.5t0 -343t-4 -361.5q-3 -143 -70.5 -205t-220.5 -62h-313zM326 143h155q72 0 101.5 25.5t30.5 85.5q4 154 6 287t2 259.5t-2 259.5t-6 287q-1 60 -32.5 85t-110.5 25h-144v-511h112v-90h-112v-713z" />
    <glyph glyph-name="Ntilde" unicode="&#xd1;" horiz-adv-x="1006" 
d="M121 0v1600h325l89 -507l134 -949h85l-20 890l-9 566h160v-1600h-335l-97 574l-113 884h-88l18 -859l11 -599h-160zM711 1853h77q-2 -84 -48.5 -124.5t-117.5 -38.5q-47 2 -78 21t-57.5 39t-61.5 23q-33 4 -60 -12.5t-33 -59.5h-77q7 92 56 131.5t123 33.5
q45 -4 75 -23.5t57 -38.5t61 -21q37 -2 60 18.5t24 51.5z" />
    <glyph glyph-name="Ograve" unicode="&#xd2;" horiz-adv-x="840" 
d="M419 -14q-163 0 -235 66t-74 219q-2 151 -3.5 281t-1.5 252.5t1.5 250t3.5 273.5q2 153 74 219.5t235 66.5q161 0 233 -66.5t75 -219.5q4 -146 5.5 -273.5t1.5 -250t-1.5 -252.5t-5.5 -281q-3 -153 -75 -219t-233 -66zM419 123q84 0 116.5 30t33.5 113q4 154 6 283
t2 250.5t-2 250.5t-6 284q-1 82 -33.5 113t-116.5 31t-116.5 -31t-34.5 -113q-4 -151 -6 -279t-2 -249t2 -252t6 -288q2 -83 34.5 -113t116.5 -30zM344 1680l-163 234h127l160 -234h-124z" />
    <glyph glyph-name="Oacute" unicode="&#xd3;" horiz-adv-x="840" 
d="M419 -14q-163 0 -235 66t-74 219q-2 151 -3.5 281t-1.5 252.5t1.5 250t3.5 273.5q2 153 74 219.5t235 66.5q161 0 233 -66.5t75 -219.5q4 -146 5.5 -273.5t1.5 -250t-1.5 -252.5t-5.5 -281q-3 -153 -75 -219t-233 -66zM419 123q84 0 116.5 30t33.5 113q4 154 6 283
t2 250.5t-2 250.5t-6 284q-1 82 -33.5 113t-116.5 31t-116.5 -31t-34.5 -113q-4 -151 -6 -279t-2 -249t2 -252t6 -288q2 -83 34.5 -113t116.5 -30zM369 1680l167 234h125l-171 -234h-121z" />
    <glyph glyph-name="Ocircumflex" unicode="&#xd4;" horiz-adv-x="840" 
d="M419 -14q-163 0 -235 66t-74 219q-2 151 -3.5 281t-1.5 252.5t1.5 250t3.5 273.5q2 153 74 219.5t235 66.5q161 0 233 -66.5t75 -219.5q4 -146 5.5 -273.5t1.5 -250t-1.5 -252.5t-5.5 -281q-3 -153 -75 -219t-233 -66zM419 123q84 0 116.5 30t33.5 113q4 154 6 283
t2 250.5t-2 250.5t-6 284q-1 82 -33.5 113t-116.5 31t-116.5 -31t-34.5 -113q-4 -151 -6 -279t-2 -249t2 -252t6 -288q2 -83 34.5 -113t116.5 -30zM213 1681l151 234h107l152 -234h-117l-88 143l-87 -143h-118z" />
    <glyph glyph-name="Otilde" unicode="&#xd5;" horiz-adv-x="840" 
d="M419 -14q-163 0 -235 66t-74 219q-2 151 -3.5 281t-1.5 252.5t1.5 250t3.5 273.5q2 153 74 219.5t235 66.5q161 0 233 -66.5t75 -219.5q4 -146 5.5 -273.5t1.5 -250t-1.5 -252.5t-5.5 -281q-3 -153 -75 -219t-233 -66zM419 123q84 0 116.5 30t33.5 113q4 154 6 283
t2 250.5t-2 250.5t-6 284q-1 82 -33.5 113t-116.5 31t-116.5 -31t-34.5 -113q-4 -151 -6 -279t-2 -249t2 -252t6 -288q2 -83 34.5 -113t116.5 -30zM610 1853h77q-2 -84 -48.5 -124.5t-117.5 -38.5q-47 2 -78 21t-57.5 39t-61.5 23q-33 4 -60 -12.5t-33 -59.5h-77
q7 92 56 131.5t123 33.5q45 -4 75 -23.5t57 -38.5t61 -21q37 -2 60 18.5t24 51.5z" />
    <glyph glyph-name="Odieresis" unicode="&#xd6;" horiz-adv-x="840" 
d="M419 -14q-163 0 -235 66t-74 219q-2 151 -3.5 281t-1.5 252.5t1.5 250t3.5 273.5q2 153 74 219.5t235 66.5q161 0 233 -66.5t75 -219.5q4 -146 5.5 -273.5t1.5 -250t-1.5 -252.5t-5.5 -281q-3 -153 -75 -219t-233 -66zM419 123q84 0 116.5 30t33.5 113q4 154 6 283
t2 250.5t-2 250.5t-6 284q-1 82 -33.5 113t-116.5 31t-116.5 -31t-34.5 -113q-4 -151 -6 -279t-2 -249t2 -252t6 -288q2 -83 34.5 -113t116.5 -30zM469 1710v134h134v-134h-134zM235 1710v134h134v-134h-134z" />
    <glyph glyph-name="multiply" unicode="&#xd7;" horiz-adv-x="838" 
d="M196 473l-90 87l222 207l-222 206l90 86l224 -207l223 207l90 -86l-222 -206l222 -207l-90 -87l-223 208z" />
    <glyph glyph-name="Oslash" unicode="&#xd8;" horiz-adv-x="840" 
d="M419 -14q-163 0 -235 66t-74 219q-2 151 -3.5 281t-1.5 252.5t1.5 250t3.5 273.5q2 153 74 219.5t235 66.5q161 0 233 -66.5t75 -219.5q4 -146 5.5 -273.5t1.5 -250t-1.5 -252.5t-5.5 -281q-3 -153 -75 -219t-233 -66zM262 615l310 590q0 31 -1 63t-2 66q-1 82 -33.5 113
t-116.5 31t-116.5 -31t-34.5 -113q-3 -141 -5 -258t-2.5 -228t1.5 -233zM419 123q84 0 116.5 30t33.5 113q3 142 5 258t2.5 224.5t-0.5 228.5l-311 -593q1 -29 1.5 -58.5t1.5 -59.5q2 -83 34.5 -113t116.5 -30z" />
    <glyph glyph-name="Ugrave" unicode="&#xd9;" horiz-adv-x="827" 
d="M414 -14q-163 0 -234 63.5t-73 208.5q-4 339 -3.5 671.5t3.5 670.5h159q-4 -338 -3.5 -677t1.5 -677q0 -67 33.5 -94t116.5 -27q82 0 115 27t33 94q1 338 2.5 677t-2.5 677h158q4 -338 4 -670.5t-4 -671.5q-2 -145 -73 -208.5t-233 -63.5zM338 1680l-163 234h127
l160 -234h-124z" />
    <glyph glyph-name="Uacute" unicode="&#xda;" horiz-adv-x="827" 
d="M414 -14q-163 0 -234 63.5t-73 208.5q-4 339 -3.5 671.5t3.5 670.5h159q-4 -338 -3.5 -677t1.5 -677q0 -67 33.5 -94t116.5 -27q82 0 115 27t33 94q1 338 2.5 677t-2.5 677h158q4 -338 4 -670.5t-4 -671.5q-2 -145 -73 -208.5t-233 -63.5zM363 1680l167 234h125
l-171 -234h-121z" />
    <glyph glyph-name="Ucircumflex" unicode="&#xdb;" horiz-adv-x="827" 
d="M414 -14q-163 0 -234 63.5t-73 208.5q-4 339 -3.5 671.5t3.5 670.5h159q-4 -338 -3.5 -677t1.5 -677q0 -67 33.5 -94t116.5 -27q82 0 115 27t33 94q1 338 2.5 677t-2.5 677h158q4 -338 4 -670.5t-4 -671.5q-2 -145 -73 -208.5t-233 -63.5zM207 1681l151 234h107l152 -234
h-117l-88 143l-87 -143h-118z" />
    <glyph glyph-name="Udieresis" unicode="&#xdc;" horiz-adv-x="827" 
d="M414 -14q-163 0 -234 63.5t-73 208.5q-4 339 -3.5 671.5t3.5 670.5h159q-4 -338 -3.5 -677t1.5 -677q0 -67 33.5 -94t116.5 -27q82 0 115 27t33 94q1 338 2.5 677t-2.5 677h158q4 -338 4 -670.5t-4 -671.5q-2 -145 -73 -208.5t-233 -63.5zM463 1710v134h134v-134h-134z
M229 1710v134h134v-134h-134z" />
    <glyph glyph-name="Yacute" unicode="&#xdd;" horiz-adv-x="729" 
d="M284 0v555h-51l-192 1045h161l78 -452l54 -457h61l52 457l78 452h163l-194 -1045h-51v-555h-159zM313 1680l167 234h125l-171 -234h-121z" />
    <glyph glyph-name="Thorn" unicode="&#xde;" horiz-adv-x="737" 
d="M106 0v1600h158v-291h125q150 0 217.5 -60.5t72.5 -198.5q4 -134 4 -240t-4 -217q-6 -139 -73.5 -199t-217.5 -60h-124v-334h-158zM264 477h124q72 0 101 25t31 85q5 128 6 234t-6 235q-3 59 -31.5 84.5t-99.5 25.5h-125v-689z" />
    <glyph glyph-name="germandbls" unicode="&#xdf;" horiz-adv-x="784" 
d="M106 0v1318q0 88 25 151t91 97t189 34q158 0 227.5 -64t71.5 -214q2 -79 2 -145t-3 -143q-4 -92 -39.5 -141t-100.5 -70v-32q74 -21 111.5 -72t41.5 -146q2 -65 2.5 -141.5t-2.5 -152.5q-7 -158 -83.5 -218.5t-226.5 -60.5h-49v142h49q69 0 107 31t41 108q4 80 4 147
t-4 141q-4 99 -44 132.5t-112 33.5h-36v143h31q70 0 108.5 36t40.5 121q3 64 3.5 107t-0.5 86.5t-3 109.5q-2 70 -36 99.5t-104 29.5q-82 0 -110.5 -33t-28.5 -94v-1340h-163z" />
    <glyph glyph-name="agrave" unicode="&#xe0;" horiz-adv-x="779" 
d="M317 -13q-226 0 -242 236q-2 25 -2.5 49.5t0.5 49.5q7 108 56.5 183.5t180.5 138.5q47 22 100.5 45t106.5 41v238q0 65 -27.5 94.5t-98.5 29.5q-60 0 -96 -25t-39 -89q-3 -45 -2.5 -106t2.5 -89h-156q-2 43 -3 88t1 87q6 132 72.5 194.5t227.5 62.5q160 0 218 -65.5
t58 -213.5l-1 -936h-159v111h-22q-26 -58 -61.5 -91t-113.5 -33zM359 107q113 0 156 113l2 375q-41 -13 -82.5 -31.5t-93.5 -50.5q-65 -38 -86 -84t-22 -107q-1 -28 -0.5 -48.5t1.5 -41.5q5 -58 37 -91.5t88 -33.5zM297 1280l-163 234h127l160 -234h-124z" />
    <glyph glyph-name="aacute" unicode="&#xe1;" horiz-adv-x="779" 
d="M317 -13q-226 0 -242 236q-2 25 -2.5 49.5t0.5 49.5q7 108 56.5 183.5t180.5 138.5q47 22 100.5 45t106.5 41v238q0 65 -27.5 94.5t-98.5 29.5q-60 0 -96 -25t-39 -89q-3 -45 -2.5 -106t2.5 -89h-156q-2 43 -3 88t1 87q6 132 72.5 194.5t227.5 62.5q160 0 218 -65.5
t58 -213.5l-1 -936h-159v111h-22q-26 -58 -61.5 -91t-113.5 -33zM359 107q113 0 156 113l2 375q-41 -13 -82.5 -31.5t-93.5 -50.5q-65 -38 -86 -84t-22 -107q-1 -28 -0.5 -48.5t1.5 -41.5q5 -58 37 -91.5t88 -33.5zM322 1280l167 234h125l-171 -234h-121z" />
    <glyph glyph-name="acircumflex" unicode="&#xe2;" horiz-adv-x="779" 
d="M317 -13q-226 0 -242 236q-2 25 -2.5 49.5t0.5 49.5q7 108 56.5 183.5t180.5 138.5q47 22 100.5 45t106.5 41v238q0 65 -27.5 94.5t-98.5 29.5q-60 0 -96 -25t-39 -89q-3 -45 -2.5 -106t2.5 -89h-156q-2 43 -3 88t1 87q6 132 72.5 194.5t227.5 62.5q160 0 218 -65.5
t58 -213.5l-1 -936h-159v111h-22q-26 -58 -61.5 -91t-113.5 -33zM359 107q113 0 156 113l2 375q-41 -13 -82.5 -31.5t-93.5 -50.5q-65 -38 -86 -84t-22 -107q-1 -28 -0.5 -48.5t1.5 -41.5q5 -58 37 -91.5t88 -33.5zM166 1281l151 234h107l152 -234h-117l-88 143l-87 -143
h-118z" />
    <glyph glyph-name="atilde" unicode="&#xe3;" horiz-adv-x="779" 
d="M317 -13q-226 0 -242 236q-2 25 -2.5 49.5t0.5 49.5q7 108 56.5 183.5t180.5 138.5q47 22 100.5 45t106.5 41v238q0 65 -27.5 94.5t-98.5 29.5q-60 0 -96 -25t-39 -89q-3 -45 -2.5 -106t2.5 -89h-156q-2 43 -3 88t1 87q6 132 72.5 194.5t227.5 62.5q160 0 218 -65.5
t58 -213.5l-1 -936h-159v111h-22q-26 -58 -61.5 -91t-113.5 -33zM359 107q113 0 156 113l2 375q-41 -13 -82.5 -31.5t-93.5 -50.5q-65 -38 -86 -84t-22 -107q-1 -28 -0.5 -48.5t1.5 -41.5q5 -58 37 -91.5t88 -33.5zM563 1453h77q-2 -84 -48.5 -124.5t-117.5 -38.5
q-47 2 -78 21t-57.5 39t-61.5 23q-33 4 -60 -12.5t-33 -59.5h-77q7 92 56 131.5t123 33.5q45 -4 75 -23.5t57 -38.5t61 -21q37 -2 60 18.5t24 51.5z" />
    <glyph glyph-name="adieresis" unicode="&#xe4;" horiz-adv-x="779" 
d="M317 -13q-226 0 -242 236q-2 25 -2.5 49.5t0.5 49.5q7 108 56.5 183.5t180.5 138.5q47 22 100.5 45t106.5 41v238q0 65 -27.5 94.5t-98.5 29.5q-60 0 -96 -25t-39 -89q-3 -45 -2.5 -106t2.5 -89h-156q-2 43 -3 88t1 87q6 132 72.5 194.5t227.5 62.5q160 0 218 -65.5
t58 -213.5l-1 -936h-159v111h-22q-26 -58 -61.5 -91t-113.5 -33zM359 107q113 0 156 113l2 375q-41 -13 -82.5 -31.5t-93.5 -50.5q-65 -38 -86 -84t-22 -107q-1 -28 -0.5 -48.5t1.5 -41.5q5 -58 37 -91.5t88 -33.5zM422 1310v134h134v-134h-134zM188 1310v134h134v-134h-134
z" />
    <glyph glyph-name="aring" unicode="&#xe5;" horiz-adv-x="779" 
d="M317 -13q-226 0 -242 236q-2 25 -2.5 49.5t0.5 49.5q7 108 56.5 183.5t180.5 138.5q47 22 100.5 45t106.5 41v238q0 65 -27.5 94.5t-98.5 29.5q-60 0 -96 -25t-39 -89q-3 -45 -2.5 -106t2.5 -89h-156q-2 43 -3 88t1 87q6 132 72.5 194.5t227.5 62.5q160 0 218 -65.5
t58 -213.5l-1 -936h-159v111h-22q-26 -58 -61.5 -91t-113.5 -33zM359 107q113 0 156 113l2 375q-41 -13 -82.5 -31.5t-93.5 -50.5q-65 -38 -86 -84t-22 -107q-1 -28 -0.5 -48.5t1.5 -41.5q5 -58 37 -91.5t88 -33.5zM373 1270q-67 0 -116.5 49t-49.5 118q0 67 49 116.5
t117 49.5q69 0 118 -49.5t49 -116.5q0 -69 -50 -118t-117 -49zM373 1366q29 0 50.5 21t21.5 50t-21.5 50t-50.5 21q-28 0 -49 -21t-21 -50t20.5 -50t49.5 -21z" />
    <glyph glyph-name="ae" unicode="&#xe6;" horiz-adv-x="1154" 
d="M296 -13q-98 0 -154.5 56t-66.5 178q-3 32 -3 51t1 50q7 110 71.5 176.5t155.5 111.5q47 23 96 44t100 40v274q0 24 -5.5 53t-31 50t-86.5 21q-63 0 -88.5 -28t-29.5 -91q-1 -19 -2 -54.5t-0.5 -73t2.5 -62.5h-157q-2 36 -2 92.5t1 87.5q5 131 70 191.5t209 60.5
q75 0 124 -14.5t80 -38.5q71 53 206 53q144 0 213 -59.5t74 -197.5q0 -16 1 -64t1.5 -109t-0.5 -116.5t-4 -85.5h-414v-353q0 -69 33 -94.5t100 -25.5q69 0 96 27.5t30 92.5q0 32 1.5 67.5t-3.5 122.5h157q3 -31 3.5 -86.5t-1.5 -86.5q-6 -141 -70.5 -201.5t-210.5 -60.5
q-214 0 -269 126h-15q-26 -61 -81.5 -92.5t-130.5 -31.5zM657 705h259q1 79 1 155t-1 113q-3 62 -33 90.5t-97 28.5q-65 0 -97 -28t-32 -91v-268zM351 107q34 0 67 16t55.5 59t24.5 124q0 47 -1 117.5t-1 148.5q-36 -12 -79 -32.5t-82 -46.5q-54 -36 -77 -74t-26 -97
q-2 -29 -1.5 -46t3.5 -44q6 -54 30.5 -89.5t86.5 -35.5z" />
    <glyph glyph-name="ccedilla" unicode="&#xe7;" horiz-adv-x="770" 
d="M527 783q2 48 2 99t-1 91q-1 66 -32 92t-104 26q-74 0 -105 -26.5t-32 -92.5q-11 -363 0 -742q1 -68 33.5 -94.5t104.5 -26.5q73 0 103.5 27t31.5 95q1 42 1 86t-2 103h157q3 -36 3.5 -87.5t-1.5 -86.5q-5 -139 -72.5 -200t-220.5 -61q-157 0 -225 61.5t-74 199.5
q-3 95 -4.5 220.5t-0.5 254t5 231.5q7 141 76 202t222 61q154 0 222.5 -60t71.5 -198q1 -41 1 -88t-3 -86h-157zM240 -301v96h49q48 0 64.5 22.5t5.5 73.5l-27 116h105l27 -116q37 -192 -174 -192h-50z" />
    <glyph glyph-name="egrave" unicode="&#xe8;" horiz-adv-x="768" 
d="M396 -15q-159 0 -227 61.5t-75 200.5q-3 95 -4.5 220t-0.5 253t5 231q7 142 77.5 203t222.5 61q153 0 220 -62t73 -195q1 -23 2 -87.5t0 -146t-4 -155.5h-435q0 -83 1 -167.5t3 -171.5q1 -68 34.5 -94t104.5 -26t101.5 26t33.5 94q2 30 1.5 82t-3.5 108h159q2 -34 3 -88
t-1 -85q-7 -141 -72.5 -201.5t-218.5 -60.5zM250 691h280q1 56 1 114t-0.5 103t-2.5 63q-4 68 -36 94.5t-98 26.5q-76 0 -107.5 -30t-32.5 -91q-2 -69 -3 -139.5t-1 -140.5zM314 1280l-163 234h127l160 -234h-124z" />
    <glyph glyph-name="eacute" unicode="&#xe9;" horiz-adv-x="768" 
d="M396 -15q-159 0 -227 61.5t-75 200.5q-3 95 -4.5 220t-0.5 253t5 231q7 142 77.5 203t222.5 61q153 0 220 -62t73 -195q1 -23 2 -87.5t0 -146t-4 -155.5h-435q0 -83 1 -167.5t3 -171.5q1 -68 34.5 -94t104.5 -26t101.5 26t33.5 94q2 30 1.5 82t-3.5 108h159q2 -34 3 -88
t-1 -85q-7 -141 -72.5 -201.5t-218.5 -60.5zM250 691h280q1 56 1 114t-0.5 103t-2.5 63q-4 68 -36 94.5t-98 26.5q-76 0 -107.5 -30t-32.5 -91q-2 -69 -3 -139.5t-1 -140.5zM339 1280l167 234h125l-171 -234h-121z" />
    <glyph glyph-name="ecircumflex" unicode="&#xea;" horiz-adv-x="768" 
d="M396 -15q-159 0 -227 61.5t-75 200.5q-3 95 -4.5 220t-0.5 253t5 231q7 142 77.5 203t222.5 61q153 0 220 -62t73 -195q1 -23 2 -87.5t0 -146t-4 -155.5h-435q0 -83 1 -167.5t3 -171.5q1 -68 34.5 -94t104.5 -26t101.5 26t33.5 94q2 30 1.5 82t-3.5 108h159q2 -34 3 -88
t-1 -85q-7 -141 -72.5 -201.5t-218.5 -60.5zM250 691h280q1 56 1 114t-0.5 103t-2.5 63q-4 68 -36 94.5t-98 26.5q-76 0 -107.5 -30t-32.5 -91q-2 -69 -3 -139.5t-1 -140.5zM183 1281l151 234h107l152 -234h-117l-88 143l-87 -143h-118z" />
    <glyph glyph-name="edieresis" unicode="&#xeb;" horiz-adv-x="768" 
d="M396 -15q-159 0 -227 61.5t-75 200.5q-3 95 -4.5 220t-0.5 253t5 231q7 142 77.5 203t222.5 61q153 0 220 -62t73 -195q1 -23 2 -87.5t0 -146t-4 -155.5h-435q0 -83 1 -167.5t3 -171.5q1 -68 34.5 -94t104.5 -26t101.5 26t33.5 94q2 30 1.5 82t-3.5 108h159q2 -34 3 -88
t-1 -85q-7 -141 -72.5 -201.5t-218.5 -60.5zM250 691h280q1 56 1 114t-0.5 103t-2.5 63q-4 68 -36 94.5t-98 26.5q-76 0 -107.5 -30t-32.5 -91q-2 -69 -3 -139.5t-1 -140.5zM439 1310v134h134v-134h-134zM205 1310v134h134v-134h-134z" />
    <glyph glyph-name="igrave" unicode="&#xec;" horiz-adv-x="381" 
d="M111 0v1200h159v-1200h-159zM115 1280l-163 234h127l160 -234h-124z" />
    <glyph glyph-name="iacute" unicode="&#xed;" horiz-adv-x="381" 
d="M111 0v1200h159v-1200h-159zM140 1280l167 234h125l-171 -234h-121z" />
    <glyph glyph-name="icircumflex" unicode="&#xee;" horiz-adv-x="381" 
d="M111 0v1200h159v-1200h-159zM-16 1281l151 234h107l152 -234h-117l-88 143l-87 -143h-118z" />
    <glyph glyph-name="idieresis" unicode="&#xef;" horiz-adv-x="381" 
d="M111 0v1200h159v-1200h-159zM240 1310v134h134v-134h-134zM6 1310v134h134v-134h-134z" />
    <glyph glyph-name="eth" unicode="&#xf0;" horiz-adv-x="807" 
d="M409 -17q-161 0 -233 66.5t-79 219.5q-5 109 -4.5 251t4.5 315q1 123 63.5 188.5t169.5 65.5q63 0 112 -24t70 -61h21q-27 130 -81 222l-146 -66l-44 85l132 59q-39 53 -87.5 95t-105.5 79l85 136q78 -52 142 -108t112 -124l157 70l44 -85l-147 -66q112 -199 119 -530
q1 -118 1 -251.5t-1 -252.5q-4 -151 -74 -217.5t-230 -66.5zM409 118q141 0 143 124q3 139 2.5 279.5t-3.5 326.5q-1 53 -47 81.5t-113 28.5q-70 0 -101.5 -33t-33.5 -98q-1 -99 -1.5 -205t1 -204t3.5 -174q1 -70 39 -98t111 -28z" />
    <glyph glyph-name="ntilde" unicode="&#xf1;" horiz-adv-x="832" 
d="M111 0v1200h160v-110h35q33 62 80.5 93.5t121.5 31.5q111 0 164.5 -60.5t54.5 -192.5v-962h-159v974q-2 64 -29.5 92t-88.5 28q-58 0 -108.5 -31t-70.5 -86v-977h-160zM612 1453h77q-2 -84 -48.5 -124.5t-117.5 -38.5q-47 2 -78 21t-57.5 39t-61.5 23q-33 4 -60 -12.5
t-33 -59.5h-77q7 92 56 131.5t123 33.5q45 -4 75 -23.5t57 -38.5t61 -21q37 -2 60 18.5t24 51.5z" />
    <glyph glyph-name="ograve" unicode="&#xf2;" horiz-adv-x="795" 
d="M398 -15q-162 0 -229.5 65.5t-73.5 215.5q-4 82 -5.5 200.5t-0.5 242.5t6 224q7 153 74 217.5t229 64.5q164 0 229.5 -65.5t72.5 -216.5q4 -91 5.5 -208t0 -237t-5.5 -222q-8 -150 -73.5 -215.5t-228.5 -65.5zM398 109q79 0 110 30t33 94q7 181 7.5 363.5t-7.5 371.5
q-2 67 -34 95t-109 28t-110 -29.5t-35 -96.5q-6 -160 -7 -352t7 -377q3 -69 35.5 -98t109.5 -29zM322 1280l-163 234h127l160 -234h-124z" />
    <glyph glyph-name="oacute" unicode="&#xf3;" horiz-adv-x="795" 
d="M398 -15q-162 0 -229.5 65.5t-73.5 215.5q-4 82 -5.5 200.5t-0.5 242.5t6 224q7 153 74 217.5t229 64.5q164 0 229.5 -65.5t72.5 -216.5q4 -91 5.5 -208t0 -237t-5.5 -222q-8 -150 -73.5 -215.5t-228.5 -65.5zM398 109q79 0 110 30t33 94q7 181 7.5 363.5t-7.5 371.5
q-2 67 -34 95t-109 28t-110 -29.5t-35 -96.5q-6 -160 -7 -352t7 -377q3 -69 35.5 -98t109.5 -29zM347 1280l167 234h125l-171 -234h-121z" />
    <glyph glyph-name="ocircumflex" unicode="&#xf4;" horiz-adv-x="795" 
d="M398 -15q-162 0 -229.5 65.5t-73.5 215.5q-4 82 -5.5 200.5t-0.5 242.5t6 224q7 153 74 217.5t229 64.5q164 0 229.5 -65.5t72.5 -216.5q4 -91 5.5 -208t0 -237t-5.5 -222q-8 -150 -73.5 -215.5t-228.5 -65.5zM398 109q79 0 110 30t33 94q7 181 7.5 363.5t-7.5 371.5
q-2 67 -34 95t-109 28t-110 -29.5t-35 -96.5q-6 -160 -7 -352t7 -377q3 -69 35.5 -98t109.5 -29zM191 1281l151 234h107l152 -234h-117l-88 143l-87 -143h-118z" />
    <glyph glyph-name="otilde" unicode="&#xf5;" horiz-adv-x="795" 
d="M398 -15q-162 0 -229.5 65.5t-73.5 215.5q-4 82 -5.5 200.5t-0.5 242.5t6 224q7 153 74 217.5t229 64.5q164 0 229.5 -65.5t72.5 -216.5q4 -91 5.5 -208t0 -237t-5.5 -222q-8 -150 -73.5 -215.5t-228.5 -65.5zM398 109q79 0 110 30t33 94q7 181 7.5 363.5t-7.5 371.5
q-2 67 -34 95t-109 28t-110 -29.5t-35 -96.5q-6 -160 -7 -352t7 -377q3 -69 35.5 -98t109.5 -29zM588 1453h77q-2 -84 -48.5 -124.5t-117.5 -38.5q-47 2 -78 21t-57.5 39t-61.5 23q-33 4 -60 -12.5t-33 -59.5h-77q7 92 56 131.5t123 33.5q45 -4 75 -23.5t57 -38.5t61 -21
q37 -2 60 18.5t24 51.5z" />
    <glyph glyph-name="odieresis" unicode="&#xf6;" horiz-adv-x="795" 
d="M398 -15q-162 0 -229.5 65.5t-73.5 215.5q-4 82 -5.5 200.5t-0.5 242.5t6 224q7 153 74 217.5t229 64.5q164 0 229.5 -65.5t72.5 -216.5q4 -91 5.5 -208t0 -237t-5.5 -222q-8 -150 -73.5 -215.5t-228.5 -65.5zM398 109q79 0 110 30t33 94q7 181 7.5 363.5t-7.5 371.5
q-2 67 -34 95t-109 28t-110 -29.5t-35 -96.5q-6 -160 -7 -352t7 -377q3 -69 35.5 -98t109.5 -29zM447 1310v134h134v-134h-134zM213 1310v134h134v-134h-134z" />
    <glyph glyph-name="divide" unicode="&#xf7;" horiz-adv-x="978" 
d="M410 937v154h160v-154h-160zM106 702v129h766v-129h-766zM410 442v153h160v-153h-160z" />
    <glyph glyph-name="oslash" unicode="&#xf8;" horiz-adv-x="795" 
d="M398 -15q-162 0 -229.5 65.5t-73.5 215.5q-4 82 -5.5 200.5t-0.5 242.5t6 224q7 153 74 217.5t229 64.5q164 0 229.5 -65.5t72.5 -216.5q4 -91 5.5 -208t0 -237t-5.5 -222q-8 -150 -73.5 -215.5t-228.5 -65.5zM253 965q-5 -117 -6.5 -252.5t0.5 -274.5l299 406
q-2 62 -5 124q-2 67 -34 95t-109 28t-110 -29.5t-35 -96.5zM398 109q79 0 110 30t33 94q4 111 6 222t1 224l-297 -396q1 -24 2 -47q3 -69 35.5 -98t109.5 -29z" />
    <glyph glyph-name="ugrave" unicode="&#xf9;" horiz-adv-x="829" 
d="M326 -15q-110 0 -166.5 60t-56.5 195v960h161l1 -973q0 -64 26.5 -92t86.5 -28q59 0 108 30.5t70 86.5v976h161v-1200h-161v111h-28q-67 -126 -202 -126zM333 1280l-163 234h127l160 -234h-124z" />
    <glyph glyph-name="uacute" unicode="&#xfa;" horiz-adv-x="829" 
d="M326 -15q-110 0 -166.5 60t-56.5 195v960h161l1 -973q0 -64 26.5 -92t86.5 -28q59 0 108 30.5t70 86.5v976h161v-1200h-161v111h-28q-67 -126 -202 -126zM357 1280l167 234h125l-171 -234h-121z" />
    <glyph glyph-name="ucircumflex" unicode="&#xfb;" horiz-adv-x="829" 
d="M326 -15q-110 0 -166.5 60t-56.5 195v960h161l1 -973q0 -64 26.5 -92t86.5 -28q59 0 108 30.5t70 86.5v976h161v-1200h-161v111h-28q-67 -126 -202 -126zM201 1281l151 234h107l152 -234h-117l-88 143l-87 -143h-118z" />
    <glyph glyph-name="udieresis" unicode="&#xfc;" horiz-adv-x="829" 
d="M326 -15q-110 0 -166.5 60t-56.5 195v960h161l1 -973q0 -64 26.5 -92t86.5 -28q59 0 108 30.5t70 86.5v976h161v-1200h-161v111h-28q-67 -126 -202 -126zM457 1310v134h134v-134h-134zM223 1310v134h134v-134h-134z" />
    <glyph glyph-name="yacute" unicode="&#xfd;" horiz-adv-x="723" 
d="M186 -410q-29 0 -69.5 4t-71.5 8v123q26 -3 65.5 -5.5t71.5 -2.5q82 0 111.5 26.5t40.5 96.5l28 160h-121l-187 1200h166l76 -578l56 -500h46l58 500l66 578h166l-194 -1350q-13 -88 -44 -145.5t-93.5 -86t-170.5 -28.5zM317 1280l167 234h125l-171 -234h-121z" />
    <glyph glyph-name="thorn" unicode="&#xfe;" horiz-adv-x="829" 
d="M106 -400v2000h162v-510h28q34 63 77 94t125 31q108 0 162.5 -59t59.5 -194q2 -61 3 -157.5t1 -203.5t-1 -203.5t-3 -159.5q-5 -135 -63 -194t-166 -59q-69 0 -114 29.5t-81 96.5h-28v-511h-162zM436 107q60 0 89.5 28t32.5 92q6 107 7.5 243.5t0 271t-7.5 235.5
q-3 61 -28.5 89t-85.5 28q-133 0 -176 -117v-753q23 -65 63.5 -91t104.5 -26z" />
    <glyph glyph-name="ydieresis" unicode="&#xff;" horiz-adv-x="723" 
d="M186 -410q-29 0 -69.5 4t-71.5 8v123q26 -3 65.5 -5.5t71.5 -2.5q82 0 111.5 26.5t40.5 96.5l28 160h-121l-187 1200h166l76 -578l56 -500h46l58 500l66 578h166l-194 -1350q-13 -88 -44 -145.5t-93.5 -86t-170.5 -28.5zM417 1310v134h134v-134h-134zM183 1310v134h134
v-134h-134z" />
    <glyph glyph-name="Amacron" unicode="&#x100;" horiz-adv-x="777" 
d="M53 0l172 1600h327l171 -1600h-162l-41 452h-264l-40 -452h-163zM270 595h237l-31 339l-44 523h-86l-45 -524zM142 1777h495v-94h-495v94z" />
    <glyph glyph-name="amacron" unicode="&#x101;" horiz-adv-x="779" 
d="M317 -13q-226 0 -242 236q-2 25 -2.5 49.5t0.5 49.5q7 108 56.5 183.5t180.5 138.5q47 22 100.5 45t106.5 41v238q0 65 -27.5 94.5t-98.5 29.5q-60 0 -96 -25t-39 -89q-3 -45 -2.5 -106t2.5 -89h-156q-2 43 -3 88t1 87q6 132 72.5 194.5t227.5 62.5q160 0 218 -65.5
t58 -213.5l-1 -936h-159v111h-22q-26 -58 -61.5 -91t-113.5 -33zM359 107q113 0 156 113l2 375q-41 -13 -82.5 -31.5t-93.5 -50.5q-65 -38 -86 -84t-22 -107q-1 -28 -0.5 -48.5t1.5 -41.5q5 -58 37 -91.5t88 -33.5zM126 1377h495v-94h-495v94z" />
    <glyph glyph-name="Abreve" unicode="&#x102;" horiz-adv-x="777" 
d="M53 0l172 1600h327l171 -1600h-162l-41 452h-264l-40 -452h-163zM270 595h237l-31 339l-44 523h-86l-45 -524zM388 1670q-128 0 -187.5 59.5t-64.5 184.5h109q1 -72 33 -112t110 -40q142 0 143 152h109q-6 -124 -65.5 -184t-186.5 -60z" />
    <glyph glyph-name="abreve" unicode="&#x103;" horiz-adv-x="779" 
d="M317 -13q-226 0 -242 236q-2 25 -2.5 49.5t0.5 49.5q7 108 56.5 183.5t180.5 138.5q47 22 100.5 45t106.5 41v238q0 65 -27.5 94.5t-98.5 29.5q-60 0 -96 -25t-39 -89q-3 -45 -2.5 -106t2.5 -89h-156q-2 43 -3 88t1 87q6 132 72.5 194.5t227.5 62.5q160 0 218 -65.5
t58 -213.5l-1 -936h-159v111h-22q-26 -58 -61.5 -91t-113.5 -33zM359 107q113 0 156 113l2 375q-41 -13 -82.5 -31.5t-93.5 -50.5q-65 -38 -86 -84t-22 -107q-1 -28 -0.5 -48.5t1.5 -41.5q5 -58 37 -91.5t88 -33.5zM372 1270q-128 0 -187.5 59.5t-64.5 184.5h109
q1 -72 33 -112t110 -40q142 0 143 152h109q-6 -124 -65.5 -184t-186.5 -60z" />
    <glyph glyph-name="Aogonek" unicode="&#x104;" horiz-adv-x="777" 
d="M53 0l172 1600h327l171 -1600h-162l-41 452h-264l-40 -452h-163zM270 595h237l-31 339l-44 523h-86l-45 -524zM761 -308h-50q-211 0 -173 192l26 116h105l-27 -116q-12 -51 5 -73.5t66 -22.5h48v-96z" />
    <glyph glyph-name="aogonek" unicode="&#x105;" horiz-adv-x="779" 
d="M317 -13q-226 0 -242 236q-2 25 -2.5 49.5t0.5 49.5q7 108 56.5 183.5t180.5 138.5q47 22 100.5 45t106.5 41v238q0 65 -27.5 94.5t-98.5 29.5q-60 0 -96 -25t-39 -89q-3 -45 -2.5 -106t2.5 -89h-156q-2 43 -3 88t1 87q6 132 72.5 194.5t227.5 62.5q160 0 218 -65.5
t58 -213.5l-1 -936h-159v111h-22q-26 -58 -61.5 -91t-113.5 -33zM359 107q113 0 156 113l2 375q-41 -13 -82.5 -31.5t-93.5 -50.5q-65 -38 -86 -84t-22 -107q-1 -28 -0.5 -48.5t1.5 -41.5q5 -58 37 -91.5t88 -33.5zM707 -301h-50q-211 0 -173 192l26 116h105l-27 -116
q-12 -51 5 -73.5t66 -22.5h48v-96z" />
    <glyph glyph-name="Cacute" unicode="&#x106;" horiz-adv-x="835" 
d="M420 -15q-159 0 -233.5 64t-76.5 212q-3 197 -4 368t0 341.5t4 367.5q2 145 76.5 209.5t233.5 64.5q158 0 233.5 -65t81.5 -209q3 -79 2.5 -147.5t-4.5 -146.5h-158q3 80 3 149.5t-2 149.5q-3 76 -37.5 104.5t-118.5 28.5q-81 0 -115.5 -28.5t-36.5 -104.5
q-3 -157 -5 -288.5t-2 -255t2 -255t5 -289.5q2 -76 36.5 -105t115.5 -29q88 0 124.5 29t39.5 105q3 68 2 138t-4 184h159q3 -96 4 -170t-2 -146q-6 -148 -82 -212t-241 -64zM367 1680l167 234h125l-171 -234h-121z" />
    <glyph glyph-name="cacute" unicode="&#x107;" horiz-adv-x="770" 
d="M527 783q2 48 2 99t-1 91q-1 66 -32 92t-104 26q-74 0 -105 -26.5t-32 -92.5q-11 -363 0 -742q1 -68 33.5 -94.5t104.5 -26.5q73 0 103.5 27t31.5 95q1 42 1 86t-2 103h157q3 -36 3.5 -87.5t-1.5 -86.5q-5 -139 -72.5 -200t-220.5 -61q-157 0 -225 61.5t-74 199.5
q-3 95 -4.5 220.5t-0.5 254t5 231.5q7 141 76 202t222 61q154 0 222.5 -60t71.5 -198q1 -41 1 -88t-3 -86h-157zM341 1280l167 234h125l-171 -234h-121z" />
    <glyph glyph-name="Ccircumflex" unicode="&#x108;" horiz-adv-x="835" 
d="M420 -15q-159 0 -233.5 64t-76.5 212q-3 197 -4 368t0 341.5t4 367.5q2 145 76.5 209.5t233.5 64.5q158 0 233.5 -65t81.5 -209q3 -79 2.5 -147.5t-4.5 -146.5h-158q3 80 3 149.5t-2 149.5q-3 76 -37.5 104.5t-118.5 28.5q-81 0 -115.5 -28.5t-36.5 -104.5
q-3 -157 -5 -288.5t-2 -255t2 -255t5 -289.5q2 -76 36.5 -105t115.5 -29q88 0 124.5 29t39.5 105q3 68 2 138t-4 184h159q3 -96 4 -170t-2 -146q-6 -148 -82 -212t-241 -64zM211 1681l151 234h107l152 -234h-117l-88 143l-87 -143h-118z" />
    <glyph glyph-name="ccircumflex" unicode="&#x109;" horiz-adv-x="770" 
d="M527 783q2 48 2 99t-1 91q-1 66 -32 92t-104 26q-74 0 -105 -26.5t-32 -92.5q-11 -363 0 -742q1 -68 33.5 -94.5t104.5 -26.5q73 0 103.5 27t31.5 95q1 42 1 86t-2 103h157q3 -36 3.5 -87.5t-1.5 -86.5q-5 -139 -72.5 -200t-220.5 -61q-157 0 -225 61.5t-74 199.5
q-3 95 -4.5 220.5t-0.5 254t5 231.5q7 141 76 202t222 61q154 0 222.5 -60t71.5 -198q1 -41 1 -88t-3 -86h-157zM185 1281l151 234h107l152 -234h-117l-88 143l-87 -143h-118z" />
    <glyph glyph-name="Cdotaccent" unicode="&#x10a;" horiz-adv-x="835" 
d="M420 -15q-159 0 -233.5 64t-76.5 212q-3 197 -4 368t0 341.5t4 367.5q2 145 76.5 209.5t233.5 64.5q158 0 233.5 -65t81.5 -209q3 -79 2.5 -147.5t-4.5 -146.5h-158q3 80 3 149.5t-2 149.5q-3 76 -37.5 104.5t-118.5 28.5q-81 0 -115.5 -28.5t-36.5 -104.5
q-3 -157 -5 -288.5t-2 -255t2 -255t5 -289.5q2 -76 36.5 -105t115.5 -29q88 0 124.5 29t39.5 105q3 68 2 138t-4 184h159q3 -96 4 -170t-2 -146q-6 -148 -82 -212t-241 -64zM351 1680v134h133v-134h-133z" />
    <glyph glyph-name="cdotaccent" unicode="&#x10b;" horiz-adv-x="770" 
d="M527 783q2 48 2 99t-1 91q-1 66 -32 92t-104 26q-74 0 -105 -26.5t-32 -92.5q-11 -363 0 -742q1 -68 33.5 -94.5t104.5 -26.5q73 0 103.5 27t31.5 95q1 42 1 86t-2 103h157q3 -36 3.5 -87.5t-1.5 -86.5q-5 -139 -72.5 -200t-220.5 -61q-157 0 -225 61.5t-74 199.5
q-3 95 -4.5 220.5t-0.5 254t5 231.5q7 141 76 202t222 61q154 0 222.5 -60t71.5 -198q1 -41 1 -88t-3 -86h-157zM325 1280v134h133v-134h-133z" />
    <glyph glyph-name="Ccaron" unicode="&#x10c;" horiz-adv-x="835" 
d="M420 -15q-159 0 -233.5 64t-76.5 212q-3 197 -4 368t0 341.5t4 367.5q2 145 76.5 209.5t233.5 64.5q158 0 233.5 -65t81.5 -209q3 -79 2.5 -147.5t-4.5 -146.5h-158q3 80 3 149.5t-2 149.5q-3 76 -37.5 104.5t-118.5 28.5q-81 0 -115.5 -28.5t-36.5 -104.5
q-3 -157 -5 -288.5t-2 -255t2 -255t5 -289.5q2 -76 36.5 -105t115.5 -29q88 0 124.5 29t39.5 105q3 68 2 138t-4 184h159q3 -96 4 -170t-2 -146q-6 -148 -82 -212t-241 -64zM369 1680l-151 234h113l89 -146l88 146h113l-152 -234h-100z" />
    <glyph glyph-name="ccaron" unicode="&#x10d;" horiz-adv-x="770" 
d="M527 783q2 48 2 99t-1 91q-1 66 -32 92t-104 26q-74 0 -105 -26.5t-32 -92.5q-11 -363 0 -742q1 -68 33.5 -94.5t104.5 -26.5q73 0 103.5 27t31.5 95q1 42 1 86t-2 103h157q3 -36 3.5 -87.5t-1.5 -86.5q-5 -139 -72.5 -200t-220.5 -61q-157 0 -225 61.5t-74 199.5
q-3 95 -4.5 220.5t-0.5 254t5 231.5q7 141 76 202t222 61q154 0 222.5 -60t71.5 -198q1 -41 1 -88t-3 -86h-157zM343 1280l-151 234h113l89 -146l88 146h113l-152 -234h-100z" />
    <glyph glyph-name="Dcaron" unicode="&#x10e;" horiz-adv-x="835" 
d="M121 0v1600h302q159 0 229.5 -62t72.5 -204q3 -191 4 -362.5t0 -343t-4 -361.5q-2 -143 -70 -205t-221 -62h-313zM280 143h154q73 0 102 25.5t31 85.5q3 154 5 287t2 259.5t-2 259.5t-5 287q-2 60 -33.5 85t-110.5 25h-143v-1314zM359 1680l-151 234h113l89 -146l88 146
h113l-152 -234h-100z" />
    <glyph glyph-name="dcaron" unicode="&#x10f;" horiz-adv-x="956" 
d="M314 -15q-110 0 -162.5 59t-57.5 194q-4 109 -4.5 238.5t0.5 256.5t4 229q4 138 61.5 195.5t162.5 57.5q77 0 122 -31t78 -94h28v510h162v-1600h-162v111h-30q-34 -62 -79.5 -94t-122.5 -32zM370 107q60 0 107 27.5t69 89.5v753q-22 61 -68.5 89t-106.5 28
q-61 0 -87.5 -28t-27.5 -89q-5 -124 -6.5 -258t0 -260t4.5 -227q2 -71 30.5 -98t85.5 -27zM769 1306l59 296h128l-65 -296h-122z" />
    <glyph glyph-name="Dcroat" unicode="&#x110;" horiz-adv-x="881" 
d="M168 0v856h-68v90h68v654h302q159 0 229 -62t73 -204q3 -191 4 -362.5t0 -343t-4 -361.5q-3 -143 -70.5 -205t-220.5 -62h-313zM326 143h155q72 0 101.5 25.5t30.5 85.5q4 154 6 287t2 259.5t-2 259.5t-6 287q-1 60 -32.5 85t-110.5 25h-144v-511h112v-90h-112v-713z" />
    <glyph glyph-name="dcroat" unicode="&#x111;" horiz-adv-x="813" 
d="M314 -15q-110 0 -162.5 59t-57.5 194q-4 109 -4.5 238.5t0.5 256.5t4 229q4 138 61.5 195.5t162.5 57.5q77 0 122 -31t78 -94h28v242h-118v113h118v155h162v-155h72v-113h-72v-1332h-162v111h-30q-34 -62 -79.5 -94t-122.5 -32zM370 107q60 0 107 27.5t69 89.5v753
q-22 61 -68.5 89t-106.5 28q-61 0 -87.5 -28t-27.5 -89q-5 -124 -6.5 -258t0 -260t4.5 -227q2 -71 30.5 -98t85.5 -27z" />
    <glyph glyph-name="Emacron" unicode="&#x112;" horiz-adv-x="708" 
d="M121 0v1600h531v-143h-372v-581h352v-142h-352v-591h372v-143h-531zM136 1774h495v-94h-495v94z" />
    <glyph glyph-name="emacron" unicode="&#x113;" horiz-adv-x="768" 
d="M396 -15q-159 0 -227 61.5t-75 200.5q-3 95 -4.5 220t-0.5 253t5 231q7 142 77.5 203t222.5 61q153 0 220 -62t73 -195q1 -23 2 -87.5t0 -146t-4 -155.5h-435q0 -83 1 -167.5t3 -171.5q1 -68 34.5 -94t104.5 -26t101.5 26t33.5 94q2 30 1.5 82t-3.5 108h159q2 -34 3 -88
t-1 -85q-7 -141 -72.5 -201.5t-218.5 -60.5zM250 691h280q1 56 1 114t-0.5 103t-2.5 63q-4 68 -36 94.5t-98 26.5q-76 0 -107.5 -30t-32.5 -91q-2 -69 -3 -139.5t-1 -140.5zM143 1377h495v-94h-495v94z" />
    <glyph glyph-name="Ebreve" unicode="&#x114;" horiz-adv-x="708" 
d="M121 0v1600h531v-143h-372v-581h352v-142h-352v-591h372v-143h-531zM383 1667q-128 0 -187.5 59.5t-64.5 184.5h109q1 -72 33 -112t110 -40q142 0 143 152h109q-6 -124 -65.5 -184t-186.5 -60z" />
    <glyph glyph-name="ebreve" unicode="&#x115;" horiz-adv-x="768" 
d="M396 -15q-159 0 -227 61.5t-75 200.5q-3 95 -4.5 220t-0.5 253t5 231q7 142 77.5 203t222.5 61q153 0 220 -62t73 -195q1 -23 2 -87.5t0 -146t-4 -155.5h-435q0 -83 1 -167.5t3 -171.5q1 -68 34.5 -94t104.5 -26t101.5 26t33.5 94q2 30 1.5 82t-3.5 108h159q2 -34 3 -88
t-1 -85q-7 -141 -72.5 -201.5t-218.5 -60.5zM250 691h280q1 56 1 114t-0.5 103t-2.5 63q-4 68 -36 94.5t-98 26.5q-76 0 -107.5 -30t-32.5 -91q-2 -69 -3 -139.5t-1 -140.5zM389 1270q-128 0 -187.5 59.5t-64.5 184.5h109q1 -72 33 -112t110 -40q142 0 143 152h109
q-6 -124 -65.5 -184t-186.5 -60z" />
    <glyph glyph-name="Edotaccent" unicode="&#x116;" horiz-adv-x="708" 
d="M121 0v1600h531v-143h-372v-581h352v-142h-352v-591h372v-143h-531zM316 1677v134h133v-134h-133z" />
    <glyph glyph-name="edotaccent" unicode="&#x117;" horiz-adv-x="768" 
d="M396 -15q-159 0 -227 61.5t-75 200.5q-3 95 -4.5 220t-0.5 253t5 231q7 142 77.5 203t222.5 61q153 0 220 -62t73 -195q1 -23 2 -87.5t0 -146t-4 -155.5h-435q0 -83 1 -167.5t3 -171.5q1 -68 34.5 -94t104.5 -26t101.5 26t33.5 94q2 30 1.5 82t-3.5 108h159q2 -34 3 -88
t-1 -85q-7 -141 -72.5 -201.5t-218.5 -60.5zM250 691h280q1 56 1 114t-0.5 103t-2.5 63q-4 68 -36 94.5t-98 26.5q-76 0 -107.5 -30t-32.5 -91q-2 -69 -3 -139.5t-1 -140.5zM323 1280v134h133v-134h-133z" />
    <glyph glyph-name="Eogonek" unicode="&#x118;" horiz-adv-x="708" 
d="M121 0v1600h531v-143h-372v-581h352v-142h-352v-591h372v-143h-531zM658 -308h-50q-211 0 -173 192l26 116h105l-27 -116q-12 -51 5 -73.5t66 -22.5h48v-96z" />
    <glyph glyph-name="eogonek" unicode="&#x119;" horiz-adv-x="768" 
d="M396 -15q-159 0 -227 61.5t-75 200.5q-3 95 -4.5 220t-0.5 253t5 231q7 142 77.5 203t222.5 61q153 0 220 -62t73 -195q1 -23 2 -87.5t0 -146t-4 -155.5h-435q0 -83 1 -167.5t3 -171.5q1 -68 34.5 -94t104.5 -26t101.5 26t33.5 94q2 30 1.5 82t-3.5 108h159q2 -34 3 -88
t-1 -85q-7 -141 -72.5 -201.5t-218.5 -60.5zM250 691h280q1 56 1 114t-0.5 103t-2.5 63q-4 68 -36 94.5t-98 26.5q-76 0 -107.5 -30t-32.5 -91q-2 -69 -3 -139.5t-1 -140.5zM642 -275h-50q-211 0 -173 192l26 116h105l-27 -116q-12 -51 5 -73.5t66 -22.5h48v-96z" />
    <glyph glyph-name="Ecaron" unicode="&#x11a;" horiz-adv-x="708" 
d="M121 0v1600h531v-143h-372v-581h352v-142h-352v-591h372v-143h-531zM334 1677l-151 234h113l89 -146l88 146h113l-152 -234h-100z" />
    <glyph glyph-name="ecaron" unicode="&#x11b;" horiz-adv-x="768" 
d="M396 -15q-159 0 -227 61.5t-75 200.5q-3 95 -4.5 220t-0.5 253t5 231q7 142 77.5 203t222.5 61q153 0 220 -62t73 -195q1 -23 2 -87.5t0 -146t-4 -155.5h-435q0 -83 1 -167.5t3 -171.5q1 -68 34.5 -94t104.5 -26t101.5 26t33.5 94q2 30 1.5 82t-3.5 108h159q2 -34 3 -88
t-1 -85q-7 -141 -72.5 -201.5t-218.5 -60.5zM250 691h280q1 56 1 114t-0.5 103t-2.5 63q-4 68 -36 94.5t-98 26.5q-76 0 -107.5 -30t-32.5 -91q-2 -69 -3 -139.5t-1 -140.5zM341 1280l-151 234h113l89 -146l88 146h113l-152 -234h-100z" />
    <glyph glyph-name="Gcircumflex" unicode="&#x11c;" horiz-adv-x="832" 
d="M425 -14q-168 0 -239 64t-75 213q-11 537 0 1069q4 151 75 216.5t238 65.5q163 0 233.5 -63.5t77.5 -212.5q6 -146 0 -293h-159q3 85 3 153.5t-3 152.5q-3 73 -34 100t-118 27q-89 0 -120.5 -27t-34.5 -100q-5 -202 -7 -376t0 -348.5t7 -376.5q3 -73 34.5 -100t121.5 -27
q94 0 126.5 27t35.5 100q3 140 0 280h-159v144h315q2 -125 1.5 -222.5t-3.5 -188.5q-4 -149 -76 -213t-240 -64zM214 1681l151 234h107l152 -234h-117l-88 143l-87 -143h-118z" />
    <glyph glyph-name="gcircumflex" unicode="&#x11d;" horiz-adv-x="814" 
d="M389 -337q-137 0 -221.5 41.5t-93.5 128.5q-1 5 -1.5 21.5t-0.5 28.5q4 57 44 88t90 40v27q-101 27 -106 105q-2 19 0 39q2 40 33 69t77 35v29q-61 27 -90 84t-34 148q-3 80 -4 139.5t0 119.5t4 145q7 142 76 203t222 61q107 0 170.5 -28t93.5 -91h26q6 50 42 77t95 27
v-125h-22q-50 0 -79 -34t-29 -107v-49q2 -67 2.5 -118.5t-0.5 -103t-4 -116.5q-7 -141 -74 -201.5t-221 -60.5q-157 2 -157 -75v-11q0 -38 40.5 -53.5t130.5 -17.5q158 -6 239.5 -50t91.5 -153q2 -19 3 -25t-3 -33q-9 -117 -101 -160.5t-239 -43.5zM384 407q66 0 101.5 26.5
t38.5 98.5q5 95 5 215t-5 223q-3 66 -35 94t-105 28q-74 0 -107 -29.5t-36 -97.5q-2 -62 -3 -140t-0.5 -155t3.5 -137q3 -71 39 -98.5t104 -27.5zM396 -222q85 0 139 19t61 78q4 23 0 47q-7 61 -63.5 72.5t-138.5 14.5q-80 2 -130.5 -13.5t-55.5 -76.5q-2 -22 -2 -23t2 -22
q7 -61 56 -78.5t132 -17.5zM177 1281l151 234h107l152 -234h-117l-88 143l-87 -143h-118z" />
    <glyph glyph-name="Gbreve" unicode="&#x11e;" horiz-adv-x="832" 
d="M425 -14q-168 0 -239 64t-75 213q-11 537 0 1069q4 151 75 216.5t238 65.5q163 0 233.5 -63.5t77.5 -212.5q6 -146 0 -293h-159q3 85 3 153.5t-3 152.5q-3 73 -34 100t-118 27q-89 0 -120.5 -27t-34.5 -100q-5 -202 -7 -376t0 -348.5t7 -376.5q3 -73 34.5 -100t121.5 -27
q94 0 126.5 27t35.5 100q3 140 0 280h-159v144h315q2 -125 1.5 -222.5t-3.5 -188.5q-4 -149 -76 -213t-240 -64zM421 1670q-128 0 -187.5 59.5t-64.5 184.5h109q1 -72 33 -112t110 -40q142 0 143 152h109q-6 -124 -65.5 -184t-186.5 -60z" />
    <glyph glyph-name="gbreve" unicode="&#x11f;" horiz-adv-x="814" 
d="M389 -337q-137 0 -221.5 41.5t-93.5 128.5q-1 5 -1.5 21.5t-0.5 28.5q4 57 44 88t90 40v27q-101 27 -106 105q-2 19 0 39q2 40 33 69t77 35v29q-61 27 -90 84t-34 148q-3 80 -4 139.5t0 119.5t4 145q7 142 76 203t222 61q107 0 170.5 -28t93.5 -91h26q6 50 42 77t95 27
v-125h-22q-50 0 -79 -34t-29 -107v-49q2 -67 2.5 -118.5t-0.5 -103t-4 -116.5q-7 -141 -74 -201.5t-221 -60.5q-157 2 -157 -75v-11q0 -38 40.5 -53.5t130.5 -17.5q158 -6 239.5 -50t91.5 -153q2 -19 3 -25t-3 -33q-9 -117 -101 -160.5t-239 -43.5zM384 407q66 0 101.5 26.5
t38.5 98.5q5 95 5 215t-5 223q-3 66 -35 94t-105 28q-74 0 -107 -29.5t-36 -97.5q-2 -62 -3 -140t-0.5 -155t3.5 -137q3 -71 39 -98.5t104 -27.5zM396 -222q85 0 139 19t61 78q4 23 0 47q-7 61 -63.5 72.5t-138.5 14.5q-80 2 -130.5 -13.5t-55.5 -76.5q-2 -22 -2 -23t2 -22
q7 -61 56 -78.5t132 -17.5zM383 1270q-128 0 -187.5 59.5t-64.5 184.5h109q1 -72 33 -112t110 -40q142 0 143 152h109q-6 -124 -65.5 -184t-186.5 -60z" />
    <glyph glyph-name="Gdotaccent" unicode="&#x120;" horiz-adv-x="832" 
d="M425 -14q-168 0 -239 64t-75 213q-11 537 0 1069q4 151 75 216.5t238 65.5q163 0 233.5 -63.5t77.5 -212.5q6 -146 0 -293h-159q3 85 3 153.5t-3 152.5q-3 73 -34 100t-118 27q-89 0 -120.5 -27t-34.5 -100q-5 -202 -7 -376t0 -348.5t7 -376.5q3 -73 34.5 -100t121.5 -27
q94 0 126.5 27t35.5 100q3 140 0 280h-159v144h315q2 -125 1.5 -222.5t-3.5 -188.5q-4 -149 -76 -213t-240 -64zM354 1680v134h133v-134h-133z" />
    <glyph glyph-name="gdotaccent" unicode="&#x121;" horiz-adv-x="814" 
d="M389 -337q-137 0 -221.5 41.5t-93.5 128.5q-1 5 -1.5 21.5t-0.5 28.5q4 57 44 88t90 40v27q-101 27 -106 105q-2 19 0 39q2 40 33 69t77 35v29q-61 27 -90 84t-34 148q-3 80 -4 139.5t0 119.5t4 145q7 142 76 203t222 61q107 0 170.5 -28t93.5 -91h26q6 50 42 77t95 27
v-125h-22q-50 0 -79 -34t-29 -107v-49q2 -67 2.5 -118.5t-0.5 -103t-4 -116.5q-7 -141 -74 -201.5t-221 -60.5q-157 2 -157 -75v-11q0 -38 40.5 -53.5t130.5 -17.5q158 -6 239.5 -50t91.5 -153q2 -19 3 -25t-3 -33q-9 -117 -101 -160.5t-239 -43.5zM384 407q66 0 101.5 26.5
t38.5 98.5q5 95 5 215t-5 223q-3 66 -35 94t-105 28q-74 0 -107 -29.5t-36 -97.5q-2 -62 -3 -140t-0.5 -155t3.5 -137q3 -71 39 -98.5t104 -27.5zM396 -222q85 0 139 19t61 78q4 23 0 47q-7 61 -63.5 72.5t-138.5 14.5q-80 2 -130.5 -13.5t-55.5 -76.5q-2 -22 -2 -23t2 -22
q7 -61 56 -78.5t132 -17.5zM317 1280v134h133v-134h-133z" />
    <glyph glyph-name="uni0122" unicode="&#x122;" horiz-adv-x="832" 
d="M425 -14q-168 0 -239 64t-75 213q-11 537 0 1069q4 151 75 216.5t238 65.5q163 0 233.5 -63.5t77.5 -212.5q6 -146 0 -293h-159q3 85 3 153.5t-3 152.5q-3 73 -34 100t-118 27q-89 0 -120.5 -27t-34.5 -100q-5 -202 -7 -376t0 -348.5t7 -376.5q3 -73 34.5 -100t121.5 -27
q94 0 126.5 27t35.5 100q3 140 0 280h-159v144h315q2 -125 1.5 -222.5t-3.5 -188.5q-4 -149 -76 -213t-240 -64zM352 -365l66 129h-95v156h213v-138l-81 -147h-103z" />
    <glyph glyph-name="uni0123" unicode="&#x123;" horiz-adv-x="814" 
d="M389 -337q-137 0 -221.5 41.5t-93.5 128.5q-1 5 -1.5 21.5t-0.5 28.5q4 57 44 88t90 40v27q-101 27 -106 105q-2 19 0 39q2 40 33 69t77 35v29q-61 27 -90 84t-34 148q-3 80 -4 139.5t0 119.5t4 145q7 142 76 203t222 61q107 0 170.5 -28t93.5 -91h26q6 50 42 77t95 27
v-125h-22q-50 0 -79 -34t-29 -107v-49q2 -67 2.5 -118.5t-0.5 -103t-4 -116.5q-7 -141 -74 -201.5t-221 -60.5q-157 2 -157 -75v-11q0 -38 40.5 -53.5t130.5 -17.5q158 -6 239.5 -50t91.5 -153q2 -19 3 -25t-3 -33q-9 -117 -101 -160.5t-239 -43.5zM384 407q66 0 101.5 26.5
t38.5 98.5q5 95 5 215t-5 223q-3 66 -35 94t-105 28q-74 0 -107 -29.5t-36 -97.5q-2 -62 -3 -140t-0.5 -155t3.5 -137q3 -71 39 -98.5t104 -27.5zM396 -222q85 0 139 19t61 78q4 23 0 47q-7 61 -63.5 72.5t-138.5 14.5q-80 2 -130.5 -13.5t-55.5 -76.5q-2 -22 -2 -23t2 -22
q7 -61 56 -78.5t132 -17.5zM466 1565l-67 -128h95v-157h-213v139l82 146h103z" />
    <glyph glyph-name="Hcircumflex" unicode="&#x124;" horiz-adv-x="855" 
d="M121 0v1600h159v-724h295v724h159v-1600h-159v734h-295v-734h-159zM221 1681l151 234h107l152 -234h-117l-88 143l-87 -143h-118z" />
    <glyph glyph-name="hcircumflex" unicode="&#x125;" horiz-adv-x="832" 
d="M111 0v1600h162v-510h33q34 63 78 94t124 31q111 0 164 -60.5t53 -192.5l2 -962h-160l-2 974q0 64 -27 92t-88 28q-134 0 -177 -117v-977h-162zM207 1681l151 234h107l152 -234h-117l-88 143l-87 -143h-118z" />
    <glyph glyph-name="Hbar" unicode="&#x126;" horiz-adv-x="988" 
d="M192 0v1145h-80v90h80v365h158v-365h296v365h158v-365h72v-90h-72v-1145h-158v734h-296v-734h-158zM350 876h296v269h-296v-269z" />
    <glyph glyph-name="hbar" unicode="&#x127;" horiz-adv-x="832" 
d="M111 0v1600h162v-510h33q34 63 78 94t124 31q111 0 164 -60.5t53 -192.5l2 -962h-160l-2 974q0 64 -27 92t-88 28q-134 0 -177 -117v-977h-162zM26 1419h423v-113h-423v113z" />
    <glyph glyph-name="Itilde" unicode="&#x128;" horiz-adv-x="401" 
d="M121 0v1600h159v-1600h-159zM391 1853h77q-2 -84 -48.5 -124.5t-117.5 -38.5q-47 2 -78 21t-57.5 39t-61.5 23q-33 4 -60 -12.5t-33 -59.5h-77q7 92 56 131.5t123 33.5q45 -4 75 -23.5t57 -38.5t61 -21q37 -2 60 18.5t24 51.5z" />
    <glyph glyph-name="itilde" unicode="&#x129;" horiz-adv-x="381" 
d="M111 0v1200h159v-1200h-159zM381 1453h77q-2 -84 -48.5 -124.5t-117.5 -38.5q-47 2 -78 21t-57.5 39t-61.5 23q-33 4 -60 -12.5t-33 -59.5h-77q7 92 56 131.5t123 33.5q45 -4 75 -23.5t57 -38.5t61 -21q37 -2 60 18.5t24 51.5z" />
    <glyph glyph-name="Imacron" unicode="&#x12a;" horiz-adv-x="401" 
d="M121 0v1600h159v-1600h-159zM-46 1777h495v-94h-495v94z" />
    <glyph glyph-name="imacron" unicode="&#x12b;" horiz-adv-x="381" 
d="M111 0v1200h159v-1200h-159zM-56 1377h495v-94h-495v94z" />
    <glyph glyph-name="Ibreve" unicode="&#x12c;" horiz-adv-x="401" 
d="M121 0v1600h159v-1600h-159zM201 1670q-128 0 -187.5 59.5t-64.5 184.5h109q1 -72 33 -112t110 -40q142 0 143 152h109q-6 -124 -65.5 -184t-186.5 -60z" />
    <glyph glyph-name="ibreve" unicode="&#x12d;" horiz-adv-x="381" 
d="M111 0v1200h159v-1200h-159zM191 1270q-128 0 -187.5 59.5t-64.5 184.5h109q1 -72 33 -112t110 -40q142 0 143 152h109q-6 -124 -65.5 -184t-186.5 -60z" />
    <glyph glyph-name="Iogonek" unicode="&#x12e;" horiz-adv-x="401" 
d="M121 0v1600h159v-1600h-159zM319 -308h-50q-211 0 -173 192l26 116h105l-27 -116q-12 -51 5 -73.5t66 -22.5h48v-96z" />
    <glyph glyph-name="iogonek" unicode="&#x12f;" horiz-adv-x="370" 
d="M80 1440v160h210v-160h-210zM304 -307h-51q-211 0 -173 193l26 116h5v1198h159v-1200h-59l-27 -114q-11 -52 5.5 -74t65.5 -22h49v-97z" />
    <glyph glyph-name="Idotaccent" unicode="&#x130;" horiz-adv-x="401" 
d="M121 0v1600h159v-1600h-159zM134 1680v134h133v-134h-133z" />
    <glyph glyph-name="dotlessi" unicode="&#x131;" horiz-adv-x="381" 
d="M111 0v1200h159v-1200h-159z" />
    <glyph glyph-name="Jcircumflex" unicode="&#x134;" horiz-adv-x="750" 
d="M345 -14q-150 0 -217 64t-72 213q-2 84 -2 157.5t2 158.5h153q-3 -83 -3.5 -165t3.5 -164q2 -71 31 -99t105 -28q82 0 113 28t31 99v1350h158v-1337q0 -149 -70 -213t-232 -64zM189 1681l151 234h107l152 -234h-117l-88 143l-87 -143h-118z" />
    <glyph glyph-name="jcircumflex" unicode="&#x135;" horiz-adv-x="385" 
d="M-23 -412q-30 0 -71 3t-71 8v122q59 -5 139 -5q75 0 106.5 26.5t31.5 90.5v1367h162v-1352q-2 -139 -71.5 -199.5t-225.5 -60.5zM-13 1281l151 234h107l152 -234h-117l-88 143l-87 -143h-118z" />
    <glyph glyph-name="uni0136" unicode="&#x136;" horiz-adv-x="785" 
d="M121 0v1600h166l-1 -376l-12 -470h49l144 503l111 343h171l-237 -716l262 -884h-163l-200 691l-129 -331v-360h-161zM360 -365l66 129h-95v156h213v-138l-81 -147h-103z" />
    <glyph glyph-name="uni0137" unicode="&#x137;" horiz-adv-x="727" 
d="M111 0v1600h152v-310l-15 -618h35l117 299l105 229h167l-234 -490l287 -710h-168l-216 542l-74 -134v-408h-156zM320 -365l66 129h-95v156h213v-138l-81 -147h-103z" />
    <glyph glyph-name="kgreenlandic" unicode="&#x138;" horiz-adv-x="785" 
d="M111 0v1200h152v-220l-15 -326h35l95 229l167 317h169l-274 -509l285 -691h-168l-214 524l-76 -141v-383h-156z" />
    <glyph glyph-name="Lacute" unicode="&#x139;" horiz-adv-x="663" 
d="M121 0v1600h159v-1457h371v-143h-530zM320 1680l167 234h125l-171 -234h-121z" />
    <glyph glyph-name="lacute" unicode="&#x13a;" horiz-adv-x="381" 
d="M111 0v1600h159v-1600h-159zM140 1680l167 234h125l-171 -234h-121z" />
    <glyph glyph-name="uni013B" unicode="&#x13b;" horiz-adv-x="663" 
d="M121 0v1600h159v-1457h371v-143h-530zM318 -365l66 129h-95v156h213v-138l-81 -147h-103z" />
    <glyph glyph-name="uni013C" unicode="&#x13c;" horiz-adv-x="381" 
d="M111 0v1600h159v-1600h-159zM121 -365l66 129h-95v156h213v-138l-81 -147h-103z" />
    <glyph glyph-name="Lcaron" unicode="&#x13d;" horiz-adv-x="663" 
d="M121 0v1600h159v-1457h371v-143h-530zM451 1304l59 296h128l-65 -296h-122z" />
    <glyph glyph-name="lcaron" unicode="&#x13e;" horiz-adv-x="518" 
d="M111 0v1600h159v-1600h-159zM331 1306l59 296h128l-65 -296h-122z" />
    <glyph glyph-name="Ldot" unicode="&#x13f;" horiz-adv-x="663" 
d="M121 0v1600h159v-1457h371v-143h-530zM510 761v141h141v-141h-141z" />
    <glyph glyph-name="ldot" unicode="&#x140;" horiz-adv-x="518" 
d="M111 0v1600h159v-1600h-159zM356 749v141h141v-141h-141z" />
    <glyph glyph-name="Lslash" unicode="&#x141;" horiz-adv-x="717" 
d="M176 0v490l-38 -108h-125l163 388v830h158v-522l42 122h132l-174 -414v-643h371v-143h-529z" />
    <glyph glyph-name="lslash" unicode="&#x142;" horiz-adv-x="495" 
d="M159 0v482l-34 -100h-125l159 381v837h159v-530l45 130h132l-177 -422v-778h-159z" />
    <glyph glyph-name="Nacute" unicode="&#x143;" horiz-adv-x="1006" 
d="M121 0v1600h325l89 -507l134 -949h85l-20 890l-9 566h160v-1600h-335l-97 574l-113 884h-88l18 -859l11 -599h-160zM470 1680l167 234h125l-171 -234h-121z" />
    <glyph glyph-name="nacute" unicode="&#x144;" horiz-adv-x="832" 
d="M111 0v1200h160v-110h35q33 62 80.5 93.5t121.5 31.5q111 0 164.5 -60.5t54.5 -192.5v-962h-159v974q-2 64 -29.5 92t-88.5 28q-58 0 -108.5 -31t-70.5 -86v-977h-160zM370 1280l167 234h125l-171 -234h-121z" />
    <glyph glyph-name="uni0145" unicode="&#x145;" horiz-adv-x="1006" 
d="M121 0v1600h325l89 -507l134 -949h85l-20 890l-9 566h160v-1600h-335l-97 574l-113 884h-88l18 -859l11 -599h-160zM442 -365l66 129h-95v156h213v-138l-81 -147h-103z" />
    <glyph glyph-name="uni0146" unicode="&#x146;" horiz-adv-x="832" 
d="M111 0v1200h160v-110h35q33 62 80.5 93.5t121.5 31.5q111 0 164.5 -60.5t54.5 -192.5v-962h-159v974q-2 64 -29.5 92t-88.5 28q-58 0 -108.5 -31t-70.5 -86v-977h-160zM352 -365l66 129h-95v156h213v-138l-81 -147h-103z" />
    <glyph glyph-name="Ncaron" unicode="&#x147;" horiz-adv-x="1006" 
d="M121 0v1600h325l89 -507l134 -949h85l-20 890l-9 566h160v-1600h-335l-97 574l-113 884h-88l18 -859l11 -599h-160zM471 1680l-151 234h113l89 -146l88 146h113l-152 -234h-100z" />
    <glyph glyph-name="ncaron" unicode="&#x148;" horiz-adv-x="832" 
d="M111 0v1200h160v-110h35q33 62 80.5 93.5t121.5 31.5q111 0 164.5 -60.5t54.5 -192.5v-962h-159v974q-2 64 -29.5 92t-88.5 28q-58 0 -108.5 -31t-70.5 -86v-977h-160zM372 1280l-151 234h113l89 -146l88 146h113l-152 -234h-100z" />
    <glyph glyph-name="Eng" unicode="&#x14a;" horiz-adv-x="1006" 
d="M121 0v1600h325l89 -507l134 -949h85l-20 890l-9 566h160v-1778q0 -112 -55 -170.5t-201 -58.5q-26 0 -64.5 3.5t-66.5 9.5v111q48 -5 127 -5q66 0 97 24t31 79v185h-203l-97 574l-113 884h-88l18 -859l11 -599h-160z" />
    <glyph glyph-name="eng" unicode="&#x14b;" horiz-adv-x="830" 
d="M414 -411q-27 0 -66.5 3.5t-71.5 9.5v119q24 -2 62 -3.5t73 -1.5q87 0 119.5 26t32.5 94v1138q0 64 -26 92t-87 28q-58 0 -107 -31t-70 -86v-977h-162v1200h162v-110h33q34 62 81 93.5t121 31.5q111 0 164 -60t53 -193v-1112q0 -139 -74.5 -200t-236.5 -61z" />
    <glyph glyph-name="Omacron" unicode="&#x14c;" horiz-adv-x="840" 
d="M419 -14q-163 0 -235 66t-74 219q-2 151 -3.5 281t-1.5 252.5t1.5 250t3.5 273.5q2 153 74 219.5t235 66.5q161 0 233 -66.5t75 -219.5q4 -146 5.5 -273.5t1.5 -250t-1.5 -252.5t-5.5 -281q-3 -153 -75 -219t-233 -66zM419 123q84 0 116.5 30t33.5 113q4 154 6 283
t2 250.5t-2 250.5t-6 284q-1 82 -33.5 113t-116.5 31t-116.5 -31t-34.5 -113q-4 -151 -6 -279t-2 -249t2 -252t6 -288q2 -83 34.5 -113t116.5 -30zM173 1777h495v-94h-495v94z" />
    <glyph glyph-name="omacron" unicode="&#x14d;" horiz-adv-x="795" 
d="M398 -15q-162 0 -229.5 65.5t-73.5 215.5q-4 82 -5.5 200.5t-0.5 242.5t6 224q7 153 74 217.5t229 64.5q164 0 229.5 -65.5t72.5 -216.5q4 -91 5.5 -208t0 -237t-5.5 -222q-8 -150 -73.5 -215.5t-228.5 -65.5zM398 109q79 0 110 30t33 94q7 181 7.5 363.5t-7.5 371.5
q-2 67 -34 95t-109 28t-110 -29.5t-35 -96.5q-6 -160 -7 -352t7 -377q3 -69 35.5 -98t109.5 -29zM151 1377h495v-94h-495v94z" />
    <glyph glyph-name="Obreve" unicode="&#x14e;" horiz-adv-x="840" 
d="M419 -14q-163 0 -235 66t-74 219q-2 151 -3.5 281t-1.5 252.5t1.5 250t3.5 273.5q2 153 74 219.5t235 66.5q161 0 233 -66.5t75 -219.5q4 -146 5.5 -273.5t1.5 -250t-1.5 -252.5t-5.5 -281q-3 -153 -75 -219t-233 -66zM419 123q84 0 116.5 30t33.5 113q4 154 6 283
t2 250.5t-2 250.5t-6 284q-1 82 -33.5 113t-116.5 31t-116.5 -31t-34.5 -113q-4 -151 -6 -279t-2 -249t2 -252t6 -288q2 -83 34.5 -113t116.5 -30zM420 1670q-128 0 -187.5 59.5t-64.5 184.5h109q1 -72 33 -112t110 -40q142 0 143 152h109q-6 -124 -65.5 -184t-186.5 -60z
" />
    <glyph glyph-name="obreve" unicode="&#x14f;" horiz-adv-x="795" 
d="M398 -15q-162 0 -229.5 65.5t-73.5 215.5q-4 82 -5.5 200.5t-0.5 242.5t6 224q7 153 74 217.5t229 64.5q164 0 229.5 -65.5t72.5 -216.5q4 -91 5.5 -208t0 -237t-5.5 -222q-8 -150 -73.5 -215.5t-228.5 -65.5zM398 109q79 0 110 30t33 94q7 181 7.5 363.5t-7.5 371.5
q-2 67 -34 95t-109 28t-110 -29.5t-35 -96.5q-6 -160 -7 -352t7 -377q3 -69 35.5 -98t109.5 -29zM398 1270q-128 0 -187.5 59.5t-64.5 184.5h109q1 -72 33 -112t110 -40q142 0 143 152h109q-6 -124 -65.5 -184t-186.5 -60z" />
    <glyph glyph-name="Ohungarumlaut" unicode="&#x150;" horiz-adv-x="840" 
d="M419 -14q-163 0 -235 66t-74 219q-2 151 -3.5 281t-1.5 252.5t1.5 250t3.5 273.5q2 153 74 219.5t235 66.5q161 0 233 -66.5t75 -219.5q4 -146 5.5 -273.5t1.5 -250t-1.5 -252.5t-5.5 -281q-3 -153 -75 -219t-233 -66zM419 123q84 0 116.5 30t33.5 113q4 154 6 283
t2 250.5t-2 250.5t-6 284q-1 82 -33.5 113t-116.5 31t-116.5 -31t-34.5 -113q-4 -151 -6 -279t-2 -249t2 -252t6 -288q2 -83 34.5 -113t116.5 -30zM245 1681l184 237h120l-183 -237h-121zM484 1681l184 237h123l-184 -237h-123z" />
    <glyph glyph-name="ohungarumlaut" unicode="&#x151;" horiz-adv-x="795" 
d="M398 -15q-162 0 -229.5 65.5t-73.5 215.5q-4 82 -5.5 200.5t-0.5 242.5t6 224q7 153 74 217.5t229 64.5q164 0 229.5 -65.5t72.5 -216.5q4 -91 5.5 -208t0 -237t-5.5 -222q-8 -150 -73.5 -215.5t-228.5 -65.5zM398 109q79 0 110 30t33 94q7 181 7.5 363.5t-7.5 371.5
q-2 67 -34 95t-109 28t-110 -29.5t-35 -96.5q-6 -160 -7 -352t7 -377q3 -69 35.5 -98t109.5 -29zM223 1281l184 237h120l-183 -237h-121zM462 1281l184 237h123l-184 -237h-123z" />
    <glyph glyph-name="OE" unicode="&#x152;" horiz-adv-x="1161" 
d="M419 -14q-163 0 -235 66t-74 219q-2 151 -3.5 281t-1.5 252.5t1.5 250t3.5 273.5q2 153 74 219.5t235 66.5q104 0 170 -30l1 16h515v-143h-371v-581h351v-142h-351v-591h371v-143h-516l-1 17q-64 -31 -169 -31zM419 123q84 0 116.5 30t33.5 113q1 26 1.5 107t1 192.5
t0.5 234t-0.5 234.5t-1 192.5t-1.5 107.5q-1 82 -33.5 113t-116.5 31t-116.5 -31t-34.5 -113q-4 -151 -6 -279t-2 -249t2 -252t6 -288q2 -83 34.5 -113t116.5 -30z" />
    <glyph glyph-name="oe" unicode="&#x153;" horiz-adv-x="1229" 
d="M398 -15q-162 0 -229.5 65.5t-73.5 215.5q-4 82 -5.5 200.5t-0.5 242.5t6 224q7 153 74 217.5t229 64.5q164 0 229.5 -65.5t72.5 -216.5q4 -91 5.5 -208t0 -237t-5.5 -222q-8 -150 -73.5 -215.5t-228.5 -65.5zM398 109q79 0 110 30t33 94q7 181 7.5 363.5t-7.5 371.5
q-2 67 -34 95t-109 28t-110 -29.5t-35 -96.5q-6 -160 -7 -352t7 -377q3 -69 35.5 -98t109.5 -29zM856 -15q-159 0 -227 61.5t-75 200.5q-3 95 -4.5 220t-0.5 253t5 231q7 142 77.5 203t222.5 61q153 0 220 -62t73 -195q1 -23 2 -87.5t0 -146t-4 -155.5h-435q0 -83 1 -167.5
t3 -171.5q1 -68 34.5 -94t104.5 -26t101.5 26t33.5 94q2 30 1.5 82t-3.5 108h159q2 -34 3 -88t-1 -85q-7 -141 -72.5 -201.5t-218.5 -60.5zM710 691h280q1 56 1 114t-0.5 103t-2.5 63q-4 68 -36 94.5t-98 26.5q-76 0 -107.5 -30t-32.5 -91q-2 -69 -3 -139.5t-1 -140.5z" />
    <glyph glyph-name="Racute" unicode="&#x154;" horiz-adv-x="808" 
d="M121 0v1600h301q150 0 217.5 -60t72.5 -199q5 -142 5 -248t-5 -223q-8 -182 -132 -232l163 -638h-167l-147 612h-149v-612h-159zM280 755h141q71 0 100.5 25t32.5 84q3 91 4.5 166.5t0.5 150.5t-5 166q-3 60 -32 85t-100 25h-142v-702zM354 1680l167 234h125l-171 -234
h-121z" />
    <glyph glyph-name="racute" unicode="&#x155;" horiz-adv-x="569" 
d="M111 0v1200h163v-119h34q18 68 61 96t117 28q18 0 37 -2t38 -2v-125h-73q-92 0 -143 -29t-71 -103v-944h-163zM267 1280l167 234h125l-171 -234h-121z" />
    <glyph glyph-name="uni0156" unicode="&#x156;" horiz-adv-x="808" 
d="M121 0v1600h301q150 0 217.5 -60t72.5 -199q5 -142 5 -248t-5 -223q-8 -182 -132 -232l163 -638h-167l-147 612h-149v-612h-159zM280 755h141q71 0 100.5 25t32.5 84q3 91 4.5 166.5t0.5 150.5t-5 166q-3 60 -32 85t-100 25h-142v-702zM353 -365l66 129h-95v156h213v-138
l-81 -147h-103z" />
    <glyph glyph-name="uni0157" unicode="&#x157;" horiz-adv-x="569" 
d="M111 0v1200h163v-119h34q18 68 61 96t117 28q18 0 37 -2t38 -2v-125h-73q-92 0 -143 -29t-71 -103v-944h-163zM124 -365l66 129h-95v156h213v-138l-81 -147h-103z" />
    <glyph glyph-name="Rcaron" unicode="&#x158;" horiz-adv-x="808" 
d="M121 0v1600h301q150 0 217.5 -60t72.5 -199q5 -142 5 -248t-5 -223q-8 -182 -132 -232l163 -638h-167l-147 612h-149v-612h-159zM280 755h141q71 0 100.5 25t32.5 84q3 91 4.5 166.5t0.5 150.5t-5 166q-3 60 -32 85t-100 25h-142v-702zM356 1680l-151 234h113l89 -146
l88 146h113l-152 -234h-100z" />
    <glyph glyph-name="rcaron" unicode="&#x159;" horiz-adv-x="569" 
d="M111 0v1200h163v-119h34q18 68 61 96t117 28q18 0 37 -2t38 -2v-125h-73q-92 0 -143 -29t-71 -103v-944h-163zM269 1280l-151 234h113l89 -146l88 146h113l-152 -234h-100z" />
    <glyph glyph-name="Sacute" unicode="&#x15a;" horiz-adv-x="802" 
d="M403 -14q-161 0 -232.5 64t-76.5 213q-3 84 -2.5 156t4.5 160h153q-4 -89 -5 -171t5 -165q3 -67 37.5 -93.5t116.5 -26.5q77 0 110 26.5t38 93.5q6 65 5 143.5t-5 144.5q-2 80 -32 120t-98 57l-111 27q-123 30 -169 103.5t-50 223.5q-2 65 -1 135.5t2 142.5
q4 147 75.5 210.5t235.5 63.5q155 0 225 -63.5t76 -212.5q1 -62 0.5 -136.5t-2.5 -156.5h-154q3 91 3.5 166.5t-2.5 146.5q-3 67 -36 93.5t-112 26.5t-112.5 -26.5t-37.5 -93.5q-4 -76 -4 -147t4 -149q2 -87 23.5 -127t76.5 -53l105 -24q140 -32 194.5 -106.5t60.5 -220.5
q2 -64 1.5 -135.5t-2.5 -132.5q-6 -149 -77 -213t-230 -64zM350 1680l167 234h125l-171 -234h-121z" />
    <glyph glyph-name="sacute" unicode="&#x15b;" horiz-adv-x="724" 
d="M356 -15q-152 0 -212.5 61t-65.5 200q-1 46 -0.5 86.5t2.5 84.5h145q-3 -61 -2.5 -107t0.5 -80q1 -68 31.5 -94.5t101.5 -26.5q76 0 109 26.5t35 95.5q1 44 1 70t-1 64q-2 70 -20.5 104t-74.5 52l-110 31q-119 35 -167 97t-52 194q-1 62 0 109q4 140 67.5 201.5
t221.5 61.5q149 0 211.5 -60t67.5 -201q0 -22 -0.5 -77t-3.5 -91h-148q3 48 2.5 101t-1.5 86q-1 67 -28.5 92.5t-99.5 25.5t-100 -25.5t-31 -93.5q-1 -18 -2 -48t0 -65q2 -71 18 -114t79 -61l104 -27q112 -29 165 -93.5t53 -193.5v-63.5t-2 -64.5q-4 -137 -68.5 -197
t-224.5 -60zM311 1280l167 234h125l-171 -234h-121z" />
    <glyph glyph-name="Scircumflex" unicode="&#x15c;" horiz-adv-x="802" 
d="M403 -14q-161 0 -232.5 64t-76.5 213q-3 84 -2.5 156t4.5 160h153q-4 -89 -5 -171t5 -165q3 -67 37.5 -93.5t116.5 -26.5q77 0 110 26.5t38 93.5q6 65 5 143.5t-5 144.5q-2 80 -32 120t-98 57l-111 27q-123 30 -169 103.5t-50 223.5q-2 65 -1 135.5t2 142.5
q4 147 75.5 210.5t235.5 63.5q155 0 225 -63.5t76 -212.5q1 -62 0.5 -136.5t-2.5 -156.5h-154q3 91 3.5 166.5t-2.5 146.5q-3 67 -36 93.5t-112 26.5t-112.5 -26.5t-37.5 -93.5q-4 -76 -4 -147t4 -149q2 -87 23.5 -127t76.5 -53l105 -24q140 -32 194.5 -106.5t60.5 -220.5
q2 -64 1.5 -135.5t-2.5 -132.5q-6 -149 -77 -213t-230 -64zM194 1681l151 234h107l152 -234h-117l-88 143l-87 -143h-118z" />
    <glyph glyph-name="scircumflex" unicode="&#x15d;" horiz-adv-x="724" 
d="M356 -15q-152 0 -212.5 61t-65.5 200q-1 46 -0.5 86.5t2.5 84.5h145q-3 -61 -2.5 -107t0.5 -80q1 -68 31.5 -94.5t101.5 -26.5q76 0 109 26.5t35 95.5q1 44 1 70t-1 64q-2 70 -20.5 104t-74.5 52l-110 31q-119 35 -167 97t-52 194q-1 62 0 109q4 140 67.5 201.5
t221.5 61.5q149 0 211.5 -60t67.5 -201q0 -22 -0.5 -77t-3.5 -91h-148q3 48 2.5 101t-1.5 86q-1 67 -28.5 92.5t-99.5 25.5t-100 -25.5t-31 -93.5q-1 -18 -2 -48t0 -65q2 -71 18 -114t79 -61l104 -27q112 -29 165 -93.5t53 -193.5v-63.5t-2 -64.5q-4 -137 -68.5 -197
t-224.5 -60zM155 1281l151 234h107l152 -234h-117l-88 143l-87 -143h-118z" />
    <glyph glyph-name="Scedilla" unicode="&#x15e;" horiz-adv-x="802" 
d="M403 -14q-161 0 -232.5 64t-76.5 213q-3 84 -2.5 156t4.5 160h153q-4 -89 -5 -171t5 -165q3 -67 37.5 -93.5t116.5 -26.5q77 0 110 26.5t38 93.5q6 65 5 143.5t-5 144.5q-2 80 -32 120t-98 57l-111 27q-123 30 -169 103.5t-50 223.5q-2 65 -1 135.5t2 142.5
q4 147 75.5 210.5t235.5 63.5q155 0 225 -63.5t76 -212.5q1 -62 0.5 -136.5t-2.5 -156.5h-154q3 91 3.5 166.5t-2.5 146.5q-3 67 -36 93.5t-112 26.5t-112.5 -26.5t-37.5 -93.5q-4 -76 -4 -147t4 -149q2 -87 23.5 -127t76.5 -53l105 -24q140 -32 194.5 -106.5t60.5 -220.5
q2 -64 1.5 -135.5t-2.5 -132.5q-6 -149 -77 -213t-230 -64zM256 -301v96h49q48 0 64.5 22.5t5.5 73.5l-27 116h105l27 -116q37 -192 -174 -192h-50z" />
    <glyph glyph-name="scedilla" unicode="&#x15f;" horiz-adv-x="724" 
d="M356 -15q-152 0 -212.5 61t-65.5 200q-1 46 -0.5 86.5t2.5 84.5h145q-3 -61 -2.5 -107t0.5 -80q1 -68 31.5 -94.5t101.5 -26.5q76 0 109 26.5t35 95.5q1 44 1 70t-1 64q-2 70 -20.5 104t-74.5 52l-110 31q-119 35 -167 97t-52 194q-1 62 0 109q4 140 67.5 201.5
t221.5 61.5q149 0 211.5 -60t67.5 -201q0 -22 -0.5 -77t-3.5 -91h-148q3 48 2.5 101t-1.5 86q-1 67 -28.5 92.5t-99.5 25.5t-100 -25.5t-31 -93.5q-1 -18 -2 -48t0 -65q2 -71 18 -114t79 -61l104 -27q112 -29 165 -93.5t53 -193.5v-63.5t-2 -64.5q-4 -137 -68.5 -197
t-224.5 -60zM217 -301v96h49q48 0 64.5 22.5t5.5 73.5l-27 116h105l27 -116q37 -192 -174 -192h-50z" />
    <glyph glyph-name="Scaron" unicode="&#x160;" horiz-adv-x="802" 
d="M403 -14q-161 0 -232.5 64t-76.5 213q-3 84 -2.5 156t4.5 160h153q-4 -89 -5 -171t5 -165q3 -67 37.5 -93.5t116.5 -26.5q77 0 110 26.5t38 93.5q6 65 5 143.5t-5 144.5q-2 80 -32 120t-98 57l-111 27q-123 30 -169 103.5t-50 223.5q-2 65 -1 135.5t2 142.5
q4 147 75.5 210.5t235.5 63.5q155 0 225 -63.5t76 -212.5q1 -62 0.5 -136.5t-2.5 -156.5h-154q3 91 3.5 166.5t-2.5 146.5q-3 67 -36 93.5t-112 26.5t-112.5 -26.5t-37.5 -93.5q-4 -76 -4 -147t4 -149q2 -87 23.5 -127t76.5 -53l105 -24q140 -32 194.5 -106.5t60.5 -220.5
q2 -64 1.5 -135.5t-2.5 -132.5q-6 -149 -77 -213t-230 -64zM352 1680l-151 234h113l89 -146l88 146h113l-152 -234h-100z" />
    <glyph glyph-name="scaron" unicode="&#x161;" horiz-adv-x="724" 
d="M356 -15q-152 0 -212.5 61t-65.5 200q-1 46 -0.5 86.5t2.5 84.5h145q-3 -61 -2.5 -107t0.5 -80q1 -68 31.5 -94.5t101.5 -26.5q76 0 109 26.5t35 95.5q1 44 1 70t-1 64q-2 70 -20.5 104t-74.5 52l-110 31q-119 35 -167 97t-52 194q-1 62 0 109q4 140 67.5 201.5
t221.5 61.5q149 0 211.5 -60t67.5 -201q0 -22 -0.5 -77t-3.5 -91h-148q3 48 2.5 101t-1.5 86q-1 67 -28.5 92.5t-99.5 25.5t-100 -25.5t-31 -93.5q-1 -18 -2 -48t0 -65q2 -71 18 -114t79 -61l104 -27q112 -29 165 -93.5t53 -193.5v-63.5t-2 -64.5q-4 -137 -68.5 -197
t-224.5 -60zM313 1280l-151 234h113l89 -146l88 146h113l-152 -234h-100z" />
    <glyph glyph-name="uni0162" unicode="&#x162;" horiz-adv-x="673" 
d="M258 0v1457h-244v143h645v-143h-243v-1457h-158zM192 -301v96h49q48 0 64.5 22.5t5.5 73.5l-27 116h105l27 -116q37 -192 -174 -192h-50z" />
    <glyph glyph-name="uni0163" unicode="&#x163;" horiz-adv-x="540" 
d="M418 -15q-161 0 -226 59.5t-65 204.5l-1 827h-94v124h99v340h160v-340h208v-124h-213l1 -845q0 -72 26.5 -97.5t107.5 -25.5q30 0 51.5 1.5t50.5 4.5v-119q-24 -4 -50 -7t-55 -3zM199 -301v96h49q48 0 64.5 22.5t5.5 73.5l-27 116h105l27 -116q37 -192 -174 -192h-50z
" />
    <glyph glyph-name="Tcaron" unicode="&#x164;" horiz-adv-x="673" 
d="M258 0v1457h-244v143h645v-143h-243v-1457h-158zM288 1680l-151 234h113l89 -146l88 146h113l-152 -234h-100z" />
    <glyph glyph-name="tcaron" unicode="&#x165;" horiz-adv-x="552" 
d="M418 -15q-161 0 -226 59.5t-65 204.5l-1 827h-94v124h99v340h160v-340h208v-124h-213l1 -845q0 -72 26.5 -97.5t107.5 -25.5q30 0 51.5 1.5t50.5 4.5v-119q-24 -4 -50 -7t-55 -3zM347 1306l59 296h128l-65 -296h-122z" />
    <glyph glyph-name="Tbar" unicode="&#x166;" horiz-adv-x="673" 
d="M258 0v1457h-244v143h645v-143h-243v-1457h-158zM125 821h423v-113h-423v113z" />
    <glyph glyph-name="tbar" unicode="&#x167;" horiz-adv-x="540" 
d="M418 -15q-161 0 -226 59.5t-65 204.5l-1 827h-94v124h99v340h160v-340h208v-124h-213l1 -845q0 -72 26.5 -97.5t107.5 -25.5q30 0 51.5 1.5t50.5 4.5v-119q-24 -4 -50 -7t-55 -3zM53 745h423v-113h-423v113z" />
    <glyph glyph-name="Utilde" unicode="&#x168;" horiz-adv-x="827" 
d="M414 -14q-163 0 -234 63.5t-73 208.5q-4 339 -3.5 671.5t3.5 670.5h159q-4 -338 -3.5 -677t1.5 -677q0 -67 33.5 -94t116.5 -27q82 0 115 27t33 94q1 338 2.5 677t-2.5 677h158q4 -338 4 -670.5t-4 -671.5q-2 -145 -73 -208.5t-233 -63.5zM604 1853h77
q-2 -84 -48.5 -124.5t-117.5 -38.5q-47 2 -78 21t-57.5 39t-61.5 23q-33 4 -60 -12.5t-33 -59.5h-77q7 92 56 131.5t123 33.5q45 -4 75 -23.5t57 -38.5t61 -21q37 -2 60 18.5t24 51.5z" />
    <glyph glyph-name="utilde" unicode="&#x169;" horiz-adv-x="829" 
d="M326 -15q-110 0 -166.5 60t-56.5 195v960h161l1 -973q0 -64 26.5 -92t86.5 -28q59 0 108 30.5t70 86.5v976h161v-1200h-161v111h-28q-67 -126 -202 -126zM598 1453h77q-2 -84 -48.5 -124.5t-117.5 -38.5q-47 2 -78 21t-57.5 39t-61.5 23q-33 4 -60 -12.5t-33 -59.5h-77
q7 92 56 131.5t123 33.5q45 -4 75 -23.5t57 -38.5t61 -21q37 -2 60 18.5t24 51.5z" />
    <glyph glyph-name="Umacron" unicode="&#x16a;" horiz-adv-x="827" 
d="M414 -14q-163 0 -234 63.5t-73 208.5q-4 339 -3.5 671.5t3.5 670.5h159q-4 -338 -3.5 -677t1.5 -677q0 -67 33.5 -94t116.5 -27q82 0 115 27t33 94q1 338 2.5 677t-2.5 677h158q4 -338 4 -670.5t-4 -671.5q-2 -145 -73 -208.5t-233 -63.5zM167 1777h495v-94h-495v94z" />
    <glyph glyph-name="umacron" unicode="&#x16b;" horiz-adv-x="829" 
d="M326 -15q-110 0 -166.5 60t-56.5 195v960h161l1 -973q0 -64 26.5 -92t86.5 -28q59 0 108 30.5t70 86.5v976h161v-1200h-161v111h-28q-67 -126 -202 -126zM161 1377h495v-94h-495v94z" />
    <glyph glyph-name="Ubreve" unicode="&#x16c;" horiz-adv-x="827" 
d="M414 -14q-163 0 -234 63.5t-73 208.5q-4 339 -3.5 671.5t3.5 670.5h159q-4 -338 -3.5 -677t1.5 -677q0 -67 33.5 -94t116.5 -27q82 0 115 27t33 94q1 338 2.5 677t-2.5 677h158q4 -338 4 -670.5t-4 -671.5q-2 -145 -73 -208.5t-233 -63.5zM414 1670q-128 0 -187.5 59.5
t-64.5 184.5h109q1 -72 33 -112t110 -40q142 0 143 152h109q-6 -124 -65.5 -184t-186.5 -60z" />
    <glyph glyph-name="ubreve" unicode="&#x16d;" horiz-adv-x="829" 
d="M326 -15q-110 0 -166.5 60t-56.5 195v960h161l1 -973q0 -64 26.5 -92t86.5 -28q59 0 108 30.5t70 86.5v976h161v-1200h-161v111h-28q-67 -126 -202 -126zM408 1270q-128 0 -187.5 59.5t-64.5 184.5h109q1 -72 33 -112t110 -40q142 0 143 152h109q-6 -124 -65.5 -184
t-186.5 -60z" />
    <glyph glyph-name="Uring" unicode="&#x16e;" horiz-adv-x="827" 
d="M414 -14q-163 0 -234 63.5t-73 208.5q-4 339 -3.5 671.5t3.5 670.5h159q-4 -338 -3.5 -677t1.5 -677q0 -67 33.5 -94t116.5 -27q82 0 115 27t33 94q1 338 2.5 677t-2.5 677h158q4 -338 4 -670.5t-4 -671.5q-2 -145 -73 -208.5t-233 -63.5zM414 1670q-67 0 -116.5 49
t-49.5 118q0 67 49 116.5t117 49.5q69 0 118 -49.5t49 -116.5q0 -69 -50 -118t-117 -49zM414 1766q29 0 50.5 21t21.5 50t-21.5 50t-50.5 21q-28 0 -49 -21t-21 -50t20.5 -50t49.5 -21z" />
    <glyph glyph-name="uring" unicode="&#x16f;" horiz-adv-x="829" 
d="M326 -15q-110 0 -166.5 60t-56.5 195v960h161l1 -973q0 -64 26.5 -92t86.5 -28q59 0 108 30.5t70 86.5v976h161v-1200h-161v111h-28q-67 -126 -202 -126zM408 1270q-67 0 -116.5 49t-49.5 118q0 67 49 116.5t117 49.5q69 0 118 -49.5t49 -116.5q0 -69 -50 -118t-117 -49z
M408 1366q29 0 50.5 21t21.5 50t-21.5 50t-50.5 21q-28 0 -49 -21t-21 -50t20.5 -50t49.5 -21z" />
    <glyph glyph-name="Uhungarumlaut" unicode="&#x170;" horiz-adv-x="827" 
d="M414 -14q-163 0 -234 63.5t-73 208.5q-4 339 -3.5 671.5t3.5 670.5h159q-4 -338 -3.5 -677t1.5 -677q0 -67 33.5 -94t116.5 -27q82 0 115 27t33 94q1 338 2.5 677t-2.5 677h158q4 -338 4 -670.5t-4 -671.5q-2 -145 -73 -208.5t-233 -63.5zM239 1681l184 237h120
l-183 -237h-121zM478 1681l184 237h123l-184 -237h-123z" />
    <glyph glyph-name="uhungarumlaut" unicode="&#x171;" horiz-adv-x="829" 
d="M326 -15q-110 0 -166.5 60t-56.5 195v960h161l1 -973q0 -64 26.5 -92t86.5 -28q59 0 108 30.5t70 86.5v976h161v-1200h-161v111h-28q-67 -126 -202 -126zM233 1281l184 237h120l-183 -237h-121zM472 1281l184 237h123l-184 -237h-123z" />
    <glyph glyph-name="Uogonek" unicode="&#x172;" horiz-adv-x="827" 
d="M414 -14q-163 0 -234 63.5t-73 208.5q-4 339 -3.5 671.5t3.5 670.5h159q-4 -338 -3.5 -677t1.5 -677q0 -67 33.5 -94t116.5 -27q82 0 115 27t33 94q1 338 2.5 677t-2.5 677h158q4 -338 4 -670.5t-4 -671.5q-2 -145 -73 -208.5t-233 -63.5zM707 -276h-50q-211 0 -173 192
l26 116h105l-27 -116q-12 -51 5 -73.5t66 -22.5h48v-96z" />
    <glyph glyph-name="uogonek" unicode="&#x173;" horiz-adv-x="829" 
d="M326 -15q-110 0 -166.5 60t-56.5 195v960h161l1 -973q0 -64 26.5 -92t86.5 -28q59 0 108 30.5t70 86.5v976h161v-1200h-161v111h-28q-67 -126 -202 -126zM755 -301h-50q-211 0 -173 192l26 116h105l-27 -116q-12 -51 5 -73.5t66 -22.5h48v-96z" />
    <glyph glyph-name="Wcircumflex" unicode="&#x174;" horiz-adv-x="1296" 
d="M179 0l-109 1600h160l34 -602l42 -854h79l44 854l73 592h290l73 -592l44 -854h79l44 854l36 602h158l-111 -1600h-324l-53 525l-52 926h-76l-53 -926l-54 -525h-324zM418 1681l151 234h107l152 -234h-117l-88 143l-87 -143h-118z" />
    <glyph glyph-name="wcircumflex" unicode="&#x175;" horiz-adv-x="1139" 
d="M183 0l-143 1200h162l61 -605l36 -473h39l37 473l62 600h266l60 -600l36 -473h40l39 473l61 605h160l-145 -1200h-273l-46 462l-46 611h-40l-47 -611l-45 -462h-274zM364 1281l151 234h107l152 -234h-117l-88 143l-87 -143h-118z" />
    <glyph glyph-name="Ycircumflex" unicode="&#x176;" horiz-adv-x="729" 
d="M284 0v555h-51l-192 1045h161l78 -452l54 -457h61l52 457l78 452h163l-194 -1045h-51v-555h-159zM157 1681l151 234h107l152 -234h-117l-88 143l-87 -143h-118z" />
    <glyph glyph-name="ycircumflex" unicode="&#x177;" horiz-adv-x="723" 
d="M186 -410q-29 0 -69.5 4t-71.5 8v123q26 -3 65.5 -5.5t71.5 -2.5q82 0 111.5 26.5t40.5 96.5l28 160h-121l-187 1200h166l76 -578l56 -500h46l58 500l66 578h166l-194 -1350q-13 -88 -44 -145.5t-93.5 -86t-170.5 -28.5zM161 1281l151 234h107l152 -234h-117l-88 143
l-87 -143h-118z" />
    <glyph glyph-name="Ydieresis" unicode="&#x178;" horiz-adv-x="729" 
d="M284 0v555h-51l-192 1045h161l78 -452l54 -457h61l52 457l78 452h163l-194 -1045h-51v-555h-159zM413 1710v134h134v-134h-134zM179 1710v134h134v-134h-134z" />
    <glyph glyph-name="Zacute" unicode="&#x179;" horiz-adv-x="641" 
d="M36 0v132l401 1325h-378v143h546v-136l-407 -1321h371v-143h-533zM277 1680l167 234h125l-171 -234h-121z" />
    <glyph glyph-name="zacute" unicode="&#x17a;" horiz-adv-x="641" 
d="M44 0v102l391 976l-382 -3v122l556 3v-106l-397 -972h383v-122h-551zM276 1280l167 234h125l-171 -234h-121z" />
    <glyph glyph-name="Zdotaccent" unicode="&#x17b;" horiz-adv-x="641" 
d="M36 0v132l401 1325h-378v143h546v-136l-407 -1321h371v-143h-533zM261 1680v134h133v-134h-133z" />
    <glyph glyph-name="zdotaccent" unicode="&#x17c;" horiz-adv-x="641" 
d="M44 0v102l391 976l-382 -3v122l556 3v-106l-397 -972h383v-122h-551zM260 1280v134h133v-134h-133z" />
    <glyph glyph-name="Zcaron" unicode="&#x17d;" horiz-adv-x="641" 
d="M36 0v132l401 1325h-378v143h546v-136l-407 -1321h371v-143h-533zM279 1680l-151 234h113l89 -146l88 146h113l-152 -234h-100z" />
    <glyph glyph-name="zcaron" unicode="&#x17e;" horiz-adv-x="641" 
d="M44 0v102l391 976l-382 -3v122l556 3v-106l-397 -972h383v-122h-551zM278 1280l-151 234h113l89 -146l88 146h113l-152 -234h-100z" />
    <glyph glyph-name="uni018F" unicode="&#x18f;" horiz-adv-x="824" 
d="M418 -14q-160 0 -230.5 64t-71.5 211q-3 151 -2.5 289.5t2.5 291.5h447q0 119 -2.5 243t-5.5 271q-1 67 -32.5 92.5t-106.5 25.5q-81 0 -115 -25.5t-35 -92.5q-2 -81 -1.5 -167t2.5 -168h-159q-2 88 -2.5 157.5t2.5 157.5q4 148 75.5 211.5t232.5 63.5q157 0 226 -63.5
t72 -211.5q3 -196 4 -367t0 -342t-4 -367q-2 -146 -71 -210t-225 -64zM418 123q74 0 105 26t32 92q3 136 5 252.5t3 226.5h-292q0 -85 -0.5 -158.5t0 -150t3.5 -170.5q1 -66 33.5 -92t110.5 -26z" />
    <glyph glyph-name="florin" unicode="&#x192;" horiz-adv-x="1308" 
d="M236 -17q-34 0 -69.5 4.5t-60.5 9.5l20 121q24 -3 58 -4.5t59 -1.5q75 0 116 33.5t58 96.5l144 516h-218v98h247l143 510q36 131 113 191t226 60q35 0 70.5 -4t60.5 -10l-18 -118q-27 2 -56.5 3.5t-62.5 1.5q-76 0 -117 -34t-58 -97l-142 -503h270v-98h-297l-147 -521
q-35 -125 -107.5 -189.5t-231.5 -64.5z" />
    <glyph glyph-name="Ohorn" unicode="&#x1a0;" horiz-adv-x="975" 
d="M419 -14q-163 0 -235 66t-74 219q-2 151 -3.5 281t-1.5 252.5t1.5 250t3.5 273.5q2 153 74 219.5t235 66.5q161 0 233 -66.5t75 -219.5q4 -146 5.5 -273.5t1.5 -250t-1.5 -252.5t-5.5 -281q-3 -153 -75 -219t-233 -66zM419 123q84 0 116.5 30t33.5 113q4 154 6 283
t2 250.5t-2 250.5t-6 284q-1 82 -33.5 113t-116.5 31t-116.5 -31t-34.5 -113q-4 -151 -6 -279t-2 -249t2 -252t6 -288q2 -83 34.5 -113t116.5 -30zM690 1242q-21 0 -45 4v82q20 -2 46 -2q71 2 96 28.5t28 97.5q2 32 2 75.5t-2 73.5h92q1 -31 1 -74.5t-1 -74.5
q-7 -113 -56 -161.5t-161 -48.5z" />
    <glyph glyph-name="ohorn" unicode="&#x1a1;" horiz-adv-x="924" 
d="M398 -15q-162 0 -229.5 65.5t-73.5 215.5q-4 82 -5.5 200.5t-0.5 242.5t6 224q7 153 74 217.5t229 64.5q164 0 229.5 -65.5t72.5 -216.5q4 -91 5.5 -208t0 -237t-5.5 -222q-8 -150 -73.5 -215.5t-228.5 -65.5zM398 109q79 0 110 30t33 94q7 181 7.5 363.5t-7.5 371.5
q-2 67 -34 95t-109 28t-110 -29.5t-35 -96.5q-6 -160 -7 -352t7 -377q3 -69 35.5 -98t109.5 -29zM678 842q-21 0 -45 4v82q20 -2 46 -2q71 2 96 28.5t28 97.5q2 32 2 75.5t-2 73.5h92q1 -31 1 -74.5t-1 -74.5q-7 -113 -56 -161.5t-161 -48.5z" />
    <glyph glyph-name="Uhorn" unicode="&#x1af;" horiz-adv-x="963" 
d="M414 -14q-163 0 -234 63.5t-73 208.5q-4 339 -3.5 671.5t3.5 670.5h159q-4 -338 -3.5 -677t1.5 -677q0 -67 33.5 -94t116.5 -27q82 0 115 27t33 94q1 338 2.5 677t-2.5 677h158q4 -338 4 -670.5t-4 -671.5q-2 -145 -73 -208.5t-233 -63.5zM685 1242q-21 0 -45 4v82
q20 -2 46 -2q71 2 96 28.5t28 97.5q2 32 2 75.5t-2 73.5h92q1 -31 1 -74.5t-1 -74.5q-7 -113 -56 -161.5t-161 -48.5z" />
    <glyph glyph-name="uhorn" unicode="&#x1b0;" horiz-adv-x="958" 
d="M326 -15q-110 0 -166.5 60t-56.5 195v960h161l1 -973q0 -64 26.5 -92t86.5 -28q59 0 108 30.5t70 86.5v976h161v-1200h-161v111h-28q-67 -126 -202 -126zM692 842q-21 0 -45 4v82q20 -2 46 -2q71 2 96 28.5t28 97.5q2 32 2 75.5t-2 73.5h92q1 -31 1 -74.5t-1 -74.5
q-7 -113 -56 -161.5t-161 -48.5z" />
    <glyph glyph-name="uni01C4" unicode="&#x1c4;" horiz-adv-x="1469" 
d="M121 0v1600h302q159 0 229.5 -62t72.5 -204q3 -191 4 -362.5t0 -343t-4 -361.5q-2 -143 -70 -205t-221 -62h-313zM280 143h154q73 0 102 25.5t31 85.5q3 154 5 287t2 259.5t-2 259.5t-5 287q-2 60 -33.5 85t-110.5 25h-143v-1314zM864 0v132l401 1325h-378v143h546v-136
l-407 -1321h371v-143h-533zM1107 1680l-151 234h113l89 -146l88 146h113l-152 -234h-100z" />
    <glyph glyph-name="uni01C5" unicode="&#x1c5;" horiz-adv-x="1476" 
d="M121 0v1600h302q159 0 229.5 -62t72.5 -204q3 -191 4 -362.5t0 -343t-4 -361.5q-2 -143 -70 -205t-221 -62h-313zM280 143h154q73 0 102 25.5t31 85.5q3 154 5 287t2 259.5t-2 259.5t-5 287q-2 60 -33.5 85t-110.5 25h-143v-1314zM879 0v102l391 976l-382 -3v122l556 3
v-106l-397 -972h383v-122h-551zM1113 1280l-151 234h113l89 -146l88 146h113l-152 -234h-100z" />
    <glyph glyph-name="uni01C6" unicode="&#x1c6;" horiz-adv-x="1461" 
d="M314 -15q-110 0 -162.5 59t-57.5 194q-4 109 -4.5 238.5t0.5 256.5t4 229q4 138 61.5 195.5t162.5 57.5q77 0 122 -31t78 -94h28v510h162v-1600h-162v111h-30q-34 -62 -79.5 -94t-122.5 -32zM370 107q60 0 107 27.5t69 89.5v753q-22 61 -68.5 89t-106.5 28
q-61 0 -87.5 -28t-27.5 -89q-5 -124 -6.5 -258t0 -260t4.5 -227q2 -71 30.5 -98t85.5 -27zM863 0v102l391 976l-382 -3v122l556 3v-106l-397 -972h383v-122h-551zM1097 1280l-151 234h113l89 -146l88 146h113l-152 -234h-100z" />
    <glyph glyph-name="uni01C7" unicode="&#x1c7;" horiz-adv-x="1413" 
d="M121 0v1600h159v-1457h371v-143h-530zM1008 -14q-150 0 -217 64t-72 213q-2 84 -2 157.5t2 158.5h153q-3 -83 -3.5 -165t3.5 -164q2 -71 31 -99t105 -28q82 0 113 28t31 99v1350h158v-1337q0 -149 -70 -213t-232 -64z" />
    <glyph glyph-name="uni01C8" unicode="&#x1c8;" horiz-adv-x="1043" 
d="M121 0v1600h159v-1457h371v-143h-530zM757 1440v160h210v-160h-210zM640 -412q-30 0 -71 3t-71 8v122q59 -5 139 -5q75 0 106.5 26.5t31.5 90.5v1367h162v-1352q-2 -139 -71.5 -199.5t-225.5 -60.5z" />
    <glyph glyph-name="uni01C9" unicode="&#x1c9;" horiz-adv-x="761" 
d="M111 0v1600h159v-1600h-159zM475 1440v160h210v-160h-210zM358 -412q-30 0 -71 3t-71 8v122q59 -5 139 -5q75 0 106.5 26.5t31.5 90.5v1367h162v-1352q-2 -139 -71.5 -199.5t-225.5 -60.5z" />
    <glyph glyph-name="uni01CA" unicode="&#x1ca;" horiz-adv-x="1757" 
d="M121 0v1600h325l89 -507l134 -949h85l-20 890l-9 566h160v-1600h-335l-97 574l-113 884h-88l18 -859l11 -599h-160zM1351 -14q-150 0 -217 64t-72 213q-2 84 -2 157.5t2 158.5h153q-3 -83 -3.5 -165t3.5 -164q2 -71 31 -99t105 -28q82 0 113 28t31 99v1350h158v-1337
q0 -149 -70 -213t-232 -64z" />
    <glyph glyph-name="uni01CB" unicode="&#x1cb;" horiz-adv-x="1386" 
d="M121 0v1600h325l89 -507l134 -949h85l-20 890l-9 566h160v-1600h-335l-97 574l-113 884h-88l18 -859l11 -599h-160zM1100 1440v160h210v-160h-210zM983 -412q-30 0 -71 3t-71 8v122q59 -5 139 -5q75 0 106.5 26.5t31.5 90.5v1367h162v-1352q-2 -139 -71.5 -199.5
t-225.5 -60.5z" />
    <glyph glyph-name="uni01CC" unicode="&#x1cc;" horiz-adv-x="1212" 
d="M111 0v1200h160v-110h35q33 62 80.5 93.5t121.5 31.5q111 0 164.5 -60.5t54.5 -192.5v-962h-159v974q-2 64 -29.5 92t-88.5 28q-58 0 -108.5 -31t-70.5 -86v-977h-160zM926 1440v160h210v-160h-210zM809 -412q-30 0 -71 3t-71 8v122q59 -5 139 -5q75 0 106.5 26.5
t31.5 90.5v1367h162v-1352q-2 -139 -71.5 -199.5t-225.5 -60.5z" />
    <glyph glyph-name="uni01CD" unicode="&#x1cd;" horiz-adv-x="777" 
d="M53 0l172 1600h327l171 -1600h-162l-41 452h-264l-40 -452h-163zM270 595h237l-31 339l-44 523h-86l-45 -524zM340 1680l-151 234h113l89 -146l88 146h113l-152 -234h-100z" />
    <glyph glyph-name="uni01CE" unicode="&#x1ce;" horiz-adv-x="779" 
d="M317 -13q-226 0 -242 236q-2 25 -2.5 49.5t0.5 49.5q7 108 56.5 183.5t180.5 138.5q47 22 100.5 45t106.5 41v238q0 65 -27.5 94.5t-98.5 29.5q-60 0 -96 -25t-39 -89q-3 -45 -2.5 -106t2.5 -89h-156q-2 43 -3 88t1 87q6 132 72.5 194.5t227.5 62.5q160 0 218 -65.5
t58 -213.5l-1 -936h-159v111h-22q-26 -58 -61.5 -91t-113.5 -33zM359 107q113 0 156 113l2 375q-41 -13 -82.5 -31.5t-93.5 -50.5q-65 -38 -86 -84t-22 -107q-1 -28 -0.5 -48.5t1.5 -41.5q5 -58 37 -91.5t88 -33.5zM324 1280l-151 234h113l89 -146l88 146h113l-152 -234
h-100z" />
    <glyph glyph-name="uni01CF" unicode="&#x1cf;" horiz-adv-x="401" 
d="M121 0v1600h159v-1600h-159zM152 1680l-151 234h113l89 -146l88 146h113l-152 -234h-100z" />
    <glyph glyph-name="uni01D0" unicode="&#x1d0;" horiz-adv-x="381" 
d="M111 0v1200h159v-1200h-159zM142 1280l-151 234h113l89 -146l88 146h113l-152 -234h-100z" />
    <glyph glyph-name="uni01D1" unicode="&#x1d1;" horiz-adv-x="840" 
d="M419 -14q-163 0 -235 66t-74 219q-2 151 -3.5 281t-1.5 252.5t1.5 250t3.5 273.5q2 153 74 219.5t235 66.5q161 0 233 -66.5t75 -219.5q4 -146 5.5 -273.5t1.5 -250t-1.5 -252.5t-5.5 -281q-3 -153 -75 -219t-233 -66zM419 123q84 0 116.5 30t33.5 113q4 154 6 283
t2 250.5t-2 250.5t-6 284q-1 82 -33.5 113t-116.5 31t-116.5 -31t-34.5 -113q-4 -151 -6 -279t-2 -249t2 -252t6 -288q2 -83 34.5 -113t116.5 -30zM371 1680l-151 234h113l89 -146l88 146h113l-152 -234h-100z" />
    <glyph glyph-name="uni01D2" unicode="&#x1d2;" horiz-adv-x="795" 
d="M398 -15q-162 0 -229.5 65.5t-73.5 215.5q-4 82 -5.5 200.5t-0.5 242.5t6 224q7 153 74 217.5t229 64.5q164 0 229.5 -65.5t72.5 -216.5q4 -91 5.5 -208t0 -237t-5.5 -222q-8 -150 -73.5 -215.5t-228.5 -65.5zM398 109q79 0 110 30t33 94q7 181 7.5 363.5t-7.5 371.5
q-2 67 -34 95t-109 28t-110 -29.5t-35 -96.5q-6 -160 -7 -352t7 -377q3 -69 35.5 -98t109.5 -29zM349 1280l-151 234h113l89 -146l88 146h113l-152 -234h-100z" />
    <glyph glyph-name="uni01D3" unicode="&#x1d3;" horiz-adv-x="827" 
d="M414 -14q-163 0 -234 63.5t-73 208.5q-4 339 -3.5 671.5t3.5 670.5h159q-4 -338 -3.5 -677t1.5 -677q0 -67 33.5 -94t116.5 -27q82 0 115 27t33 94q1 338 2.5 677t-2.5 677h158q4 -338 4 -670.5t-4 -671.5q-2 -145 -73 -208.5t-233 -63.5zM365 1680l-151 234h113l89 -146
l88 146h113l-152 -234h-100z" />
    <glyph glyph-name="uni01D4" unicode="&#x1d4;" horiz-adv-x="829" 
d="M326 -15q-110 0 -166.5 60t-56.5 195v960h161l1 -973q0 -64 26.5 -92t86.5 -28q59 0 108 30.5t70 86.5v976h161v-1200h-161v111h-28q-67 -126 -202 -126zM359 1280l-151 234h113l89 -146l88 146h113l-152 -234h-100z" />
    <glyph glyph-name="uni01D5" unicode="&#x1d5;" horiz-adv-x="827" 
d="M414 -14q-163 0 -234 63.5t-73 208.5q-4 339 -3.5 671.5t3.5 670.5h159q-4 -338 -3.5 -677t1.5 -677q0 -67 33.5 -94t116.5 -27q82 0 115 27t33 94q1 338 2.5 677t-2.5 677h158q4 -338 4 -670.5t-4 -671.5q-2 -145 -73 -208.5t-233 -63.5zM463 1710v134h134v-134h-134z
M229 1710v134h134v-134h-134zM167 1992h495v-94h-495v94z" />
    <glyph glyph-name="uni01D6" unicode="&#x1d6;" horiz-adv-x="829" 
d="M326 -15q-110 0 -166.5 60t-56.5 195v960h161l1 -973q0 -64 26.5 -92t86.5 -28q59 0 108 30.5t70 86.5v976h161v-1200h-161v111h-28q-67 -126 -202 -126zM457 1310v134h134v-134h-134zM223 1310v134h134v-134h-134zM161 1592h495v-94h-495v94z" />
    <glyph glyph-name="uni01D7" unicode="&#x1d7;" horiz-adv-x="827" 
d="M414 -14q-163 0 -234 63.5t-73 208.5q-4 339 -3.5 671.5t3.5 670.5h159q-4 -338 -3.5 -677t1.5 -677q0 -67 33.5 -94t116.5 -27q82 0 115 27t33 94q1 338 2.5 677t-2.5 677h158q4 -338 4 -670.5t-4 -671.5q-2 -145 -73 -208.5t-233 -63.5zM463 1710v134h134v-134h-134z
M229 1710v134h134v-134h-134zM363 1895l167 234h125l-171 -234h-121z" />
    <glyph glyph-name="uni01D8" unicode="&#x1d8;" horiz-adv-x="829" 
d="M326 -15q-110 0 -166.5 60t-56.5 195v960h161l1 -973q0 -64 26.5 -92t86.5 -28q59 0 108 30.5t70 86.5v976h161v-1200h-161v111h-28q-67 -126 -202 -126zM457 1310v134h134v-134h-134zM223 1310v134h134v-134h-134zM357 1495l167 234h125l-171 -234h-121z" />
    <glyph glyph-name="uni01D9" unicode="&#x1d9;" horiz-adv-x="827" 
d="M414 -14q-163 0 -234 63.5t-73 208.5q-4 339 -3.5 671.5t3.5 670.5h159q-4 -338 -3.5 -677t1.5 -677q0 -67 33.5 -94t116.5 -27q82 0 115 27t33 94q1 338 2.5 677t-2.5 677h158q4 -338 4 -670.5t-4 -671.5q-2 -145 -73 -208.5t-233 -63.5zM463 1710v134h134v-134h-134z
M229 1710v134h134v-134h-134zM365 1895l-151 234h113l89 -146l88 146h113l-152 -234h-100z" />
    <glyph glyph-name="uni01DA" unicode="&#x1da;" horiz-adv-x="829" 
d="M326 -15q-110 0 -166.5 60t-56.5 195v960h161l1 -973q0 -64 26.5 -92t86.5 -28q59 0 108 30.5t70 86.5v976h161v-1200h-161v111h-28q-67 -126 -202 -126zM457 1310v134h134v-134h-134zM223 1310v134h134v-134h-134zM359 1495l-151 234h113l89 -146l88 146h113l-152 -234
h-100z" />
    <glyph glyph-name="uni01DB" unicode="&#x1db;" horiz-adv-x="827" 
d="M414 -14q-163 0 -234 63.5t-73 208.5q-4 339 -3.5 671.5t3.5 670.5h159q-4 -338 -3.5 -677t1.5 -677q0 -67 33.5 -94t116.5 -27q82 0 115 27t33 94q1 338 2.5 677t-2.5 677h158q4 -338 4 -670.5t-4 -671.5q-2 -145 -73 -208.5t-233 -63.5zM463 1710v134h134v-134h-134z
M229 1710v134h134v-134h-134zM338 1895l-163 234h127l160 -234h-124z" />
    <glyph glyph-name="uni01DC" unicode="&#x1dc;" horiz-adv-x="829" 
d="M326 -15q-110 0 -166.5 60t-56.5 195v960h161l1 -973q0 -64 26.5 -92t86.5 -28q59 0 108 30.5t70 86.5v976h161v-1200h-161v111h-28q-67 -126 -202 -126zM457 1310v134h134v-134h-134zM223 1310v134h134v-134h-134zM333 1495l-163 234h127l160 -234h-124z" />
    <glyph glyph-name="uni01DD" unicode="&#x1dd;" horiz-adv-x="768" 
d="M372 1215q159 0 227 -61.5t75 -200.5q3 -95 4.5 -220t0.5 -253t-5 -231q-7 -142 -77.5 -203t-222.5 -61q-153 0 -220 62t-73 195q-1 23 -2 87.5t0 146t4 155.5h435q0 83 -1 167.5t-3 171.5q-1 68 -34.5 94t-104.5 26t-101.5 -26t-33.5 -94q-2 -30 -1.5 -82t3.5 -108h-159
q-2 34 -3 88t1 85q7 141 72.5 201.5t218.5 60.5zM518 509h-280q-1 -56 -1 -114t0.5 -103t2.5 -63q4 -68 36 -94.5t98 -26.5q76 0 107.5 30t32.5 91q2 69 3 139.5t1 140.5z" />
    <glyph glyph-name="Gcaron" unicode="&#x1e6;" horiz-adv-x="832" 
d="M425 -14q-168 0 -239 64t-75 213q-11 537 0 1069q4 151 75 216.5t238 65.5q163 0 233.5 -63.5t77.5 -212.5q6 -146 0 -293h-159q3 85 3 153.5t-3 152.5q-3 73 -34 100t-118 27q-89 0 -120.5 -27t-34.5 -100q-5 -202 -7 -376t0 -348.5t7 -376.5q3 -73 34.5 -100t121.5 -27
q94 0 126.5 27t35.5 100q3 140 0 280h-159v144h315q2 -125 1.5 -222.5t-3.5 -188.5q-4 -149 -76 -213t-240 -64zM372 1680l-151 234h113l89 -146l88 146h113l-152 -234h-100z" />
    <glyph glyph-name="gcaron" unicode="&#x1e7;" horiz-adv-x="814" 
d="M389 -337q-137 0 -221.5 41.5t-93.5 128.5q-1 5 -1.5 21.5t-0.5 28.5q4 57 44 88t90 40v27q-101 27 -106 105q-2 19 0 39q2 40 33 69t77 35v29q-61 27 -90 84t-34 148q-3 80 -4 139.5t0 119.5t4 145q7 142 76 203t222 61q107 0 170.5 -28t93.5 -91h26q6 50 42 77t95 27
v-125h-22q-50 0 -79 -34t-29 -107v-49q2 -67 2.5 -118.5t-0.5 -103t-4 -116.5q-7 -141 -74 -201.5t-221 -60.5q-157 2 -157 -75v-11q0 -38 40.5 -53.5t130.5 -17.5q158 -6 239.5 -50t91.5 -153q2 -19 3 -25t-3 -33q-9 -117 -101 -160.5t-239 -43.5zM384 407q66 0 101.5 26.5
t38.5 98.5q5 95 5 215t-5 223q-3 66 -35 94t-105 28q-74 0 -107 -29.5t-36 -97.5q-2 -62 -3 -140t-0.5 -155t3.5 -137q3 -71 39 -98.5t104 -27.5zM396 -222q85 0 139 19t61 78q4 23 0 47q-7 61 -63.5 72.5t-138.5 14.5q-80 2 -130.5 -13.5t-55.5 -76.5q-2 -22 -2 -23t2 -22
q7 -61 56 -78.5t132 -17.5zM335 1280l-151 234h113l89 -146l88 146h113l-152 -234h-100z" />
    <glyph glyph-name="uni01EA" unicode="&#x1ea;" horiz-adv-x="840" 
d="M419 -14q-163 0 -235 66t-74 219q-2 151 -3.5 281t-1.5 252.5t1.5 250t3.5 273.5q2 153 74 219.5t235 66.5q161 0 233 -66.5t75 -219.5q4 -146 5.5 -273.5t1.5 -250t-1.5 -252.5t-5.5 -281q-3 -153 -75 -219t-233 -66zM419 123q84 0 116.5 30t33.5 113q4 154 6 283
t2 250.5t-2 250.5t-6 284q-1 82 -33.5 113t-116.5 31t-116.5 -31t-34.5 -113q-4 -151 -6 -279t-2 -249t2 -252t6 -288q2 -83 34.5 -113t116.5 -30zM715 -273h-50q-211 0 -173 192l26 116h105l-27 -116q-12 -51 5 -73.5t66 -22.5h48v-96z" />
    <glyph glyph-name="uni01EB" unicode="&#x1eb;" horiz-adv-x="795" 
d="M398 -15q-162 0 -229.5 65.5t-73.5 215.5q-4 82 -5.5 200.5t-0.5 242.5t6 224q7 153 74 217.5t229 64.5q164 0 229.5 -65.5t72.5 -216.5q4 -91 5.5 -208t0 -237t-5.5 -222q-8 -150 -73.5 -215.5t-228.5 -65.5zM398 109q79 0 110 30t33 94q7 181 7.5 363.5t-7.5 371.5
q-2 67 -34 95t-109 28t-110 -29.5t-35 -96.5q-6 -160 -7 -352t7 -377q3 -69 35.5 -98t109.5 -29zM723 -242h-50q-211 0 -173 192l26 116h105l-27 -116q-12 -51 5 -73.5t66 -22.5h48v-96z" />
    <glyph glyph-name="Aringacute" unicode="&#x1fa;" horiz-adv-x="777" 
d="M53 0l172 1600h327l171 -1600h-162l-41 452h-264l-40 -452h-163zM270 595h237l-31 339l-44 523h-86l-45 -524zM389 1670q-67 0 -116.5 49t-49.5 118q0 67 49 116.5t117 49.5q69 0 118 -49.5t49 -116.5q0 -69 -50 -118t-117 -49zM389 1766q29 0 50.5 21t21.5 50t-21.5 50
t-50.5 21q-28 0 -49 -21t-21 -50t20.5 -50t49.5 -21zM338 2068l167 234h125l-171 -234h-121z" />
    <glyph glyph-name="aringacute" unicode="&#x1fb;" horiz-adv-x="779" 
d="M317 -13q-226 0 -242 236q-2 25 -2.5 49.5t0.5 49.5q7 108 56.5 183.5t180.5 138.5q47 22 100.5 45t106.5 41v238q0 65 -27.5 94.5t-98.5 29.5q-60 0 -96 -25t-39 -89q-3 -45 -2.5 -106t2.5 -89h-156q-2 43 -3 88t1 87q6 132 72.5 194.5t227.5 62.5q160 0 218 -65.5
t58 -213.5l-1 -936h-159v111h-22q-26 -58 -61.5 -91t-113.5 -33zM359 107q113 0 156 113l2 375q-41 -13 -82.5 -31.5t-93.5 -50.5q-65 -38 -86 -84t-22 -107q-1 -28 -0.5 -48.5t1.5 -41.5q5 -58 37 -91.5t88 -33.5zM373 1270q-67 0 -116.5 49t-49.5 118q0 67 49 116.5
t117 49.5q69 0 118 -49.5t49 -116.5q0 -69 -50 -118t-117 -49zM373 1366q29 0 50.5 21t21.5 50t-21.5 50t-50.5 21q-28 0 -49 -21t-21 -50t20.5 -50t49.5 -21zM322 1668l167 234h125l-171 -234h-121z" />
    <glyph glyph-name="AEacute" unicode="&#x1fc;" horiz-adv-x="1135" 
d="M53 0l291 1600h735v-143h-371v-581h351v-142h-351v-591h371v-143h-529v444h-246l-80 -444h-171zM333 587h217v872h-82l-77 -560zM603 1680l167 234h125l-171 -234h-121z" />
    <glyph glyph-name="aeacute" unicode="&#x1fd;" horiz-adv-x="1154" 
d="M296 -13q-98 0 -154.5 56t-66.5 178q-3 32 -3 51t1 50q7 110 71.5 176.5t155.5 111.5q47 23 96 44t100 40v274q0 24 -5.5 53t-31 50t-86.5 21q-63 0 -88.5 -28t-29.5 -91q-1 -19 -2 -54.5t-0.5 -73t2.5 -62.5h-157q-2 36 -2 92.5t1 87.5q5 131 70 191.5t209 60.5
q75 0 124 -14.5t80 -38.5q71 53 206 53q144 0 213 -59.5t74 -197.5q0 -16 1 -64t1.5 -109t-0.5 -116.5t-4 -85.5h-414v-353q0 -69 33 -94.5t100 -25.5q69 0 96 27.5t30 92.5q0 32 1.5 67.5t-3.5 122.5h157q3 -31 3.5 -86.5t-1.5 -86.5q-6 -141 -70.5 -201.5t-210.5 -60.5
q-214 0 -269 126h-15q-26 -61 -81.5 -92.5t-130.5 -31.5zM657 705h259q1 79 1 155t-1 113q-3 62 -33 90.5t-97 28.5q-65 0 -97 -28t-32 -91v-268zM351 107q34 0 67 16t55.5 59t24.5 124q0 47 -1 117.5t-1 148.5q-36 -12 -79 -32.5t-82 -46.5q-54 -36 -77 -74t-26 -97
q-2 -29 -1.5 -46t3.5 -44q6 -54 30.5 -89.5t86.5 -35.5zM538 1280l167 234h125l-171 -234h-121z" />
    <glyph glyph-name="Oslashacute" unicode="&#x1fe;" horiz-adv-x="840" 
d="M419 -14q-163 0 -235 66t-74 219q-2 151 -3.5 281t-1.5 252.5t1.5 250t3.5 273.5q2 153 74 219.5t235 66.5q161 0 233 -66.5t75 -219.5q4 -146 5.5 -273.5t1.5 -250t-1.5 -252.5t-5.5 -281q-3 -153 -75 -219t-233 -66zM262 615l310 590q0 31 -1 63t-2 66q-1 82 -33.5 113
t-116.5 31t-116.5 -31t-34.5 -113q-3 -141 -5 -258t-2.5 -228t1.5 -233zM419 123q84 0 116.5 30t33.5 113q3 142 5 258t2.5 224.5t-0.5 228.5l-311 -593q1 -29 1.5 -58.5t1.5 -59.5q2 -83 34.5 -113t116.5 -30zM369 1680l167 234h125l-171 -234h-121z" />
    <glyph glyph-name="oslashacute" unicode="&#x1ff;" horiz-adv-x="795" 
d="M398 -15q-162 0 -229.5 65.5t-73.5 215.5q-4 82 -5.5 200.5t-0.5 242.5t6 224q7 153 74 217.5t229 64.5q164 0 229.5 -65.5t72.5 -216.5q4 -91 5.5 -208t0 -237t-5.5 -222q-8 -150 -73.5 -215.5t-228.5 -65.5zM253 965q-5 -117 -6.5 -252.5t0.5 -274.5l299 406
q-2 62 -5 124q-2 67 -34 95t-109 28t-110 -29.5t-35 -96.5zM398 109q79 0 110 30t33 94q4 111 6 222t1 224l-297 -396q1 -24 2 -47q3 -69 35.5 -98t109.5 -29zM347 1280l167 234h125l-171 -234h-121z" />
    <glyph glyph-name="uni0200" unicode="&#x200;" horiz-adv-x="777" 
d="M53 0l172 1600h327l171 -1600h-162l-41 452h-264l-40 -452h-163zM270 595h237l-31 339l-44 523h-86l-45 -524zM435 1680l-175 234h121l174 -234h-120zM196 1680l-175 234h120l175 -234h-120z" />
    <glyph glyph-name="uni0201" unicode="&#x201;" horiz-adv-x="779" 
d="M317 -13q-226 0 -242 236q-2 25 -2.5 49.5t0.5 49.5q7 108 56.5 183.5t180.5 138.5q47 22 100.5 45t106.5 41v238q0 65 -27.5 94.5t-98.5 29.5q-60 0 -96 -25t-39 -89q-3 -45 -2.5 -106t2.5 -89h-156q-2 43 -3 88t1 87q6 132 72.5 194.5t227.5 62.5q160 0 218 -65.5
t58 -213.5l-1 -936h-159v111h-22q-26 -58 -61.5 -91t-113.5 -33zM359 107q113 0 156 113l2 375q-41 -13 -82.5 -31.5t-93.5 -50.5q-65 -38 -86 -84t-22 -107q-1 -28 -0.5 -48.5t1.5 -41.5q5 -58 37 -91.5t88 -33.5zM419 1280l-175 234h121l174 -234h-120zM180 1280l-175 234
h120l175 -234h-120z" />
    <glyph glyph-name="uni0202" unicode="&#x202;" horiz-adv-x="777" 
d="M53 0l172 1600h327l171 -1600h-162l-41 452h-264l-40 -452h-163zM270 595h237l-31 339l-44 523h-86l-45 -524zM388 1924q-128 0 -187.5 -59.5t-64.5 -184.5h109q1 72 33 112t110 40q142 0 143 -152h109q-6 124 -65.5 184t-186.5 60z" />
    <glyph glyph-name="uni0203" unicode="&#x203;" horiz-adv-x="779" 
d="M317 -13q-226 0 -242 236q-2 25 -2.5 49.5t0.5 49.5q7 108 56.5 183.5t180.5 138.5q47 22 100.5 45t106.5 41v238q0 65 -27.5 94.5t-98.5 29.5q-60 0 -96 -25t-39 -89q-3 -45 -2.5 -106t2.5 -89h-156q-2 43 -3 88t1 87q6 132 72.5 194.5t227.5 62.5q160 0 218 -65.5
t58 -213.5l-1 -936h-159v111h-22q-26 -58 -61.5 -91t-113.5 -33zM359 107q113 0 156 113l2 375q-41 -13 -82.5 -31.5t-93.5 -50.5q-65 -38 -86 -84t-22 -107q-1 -28 -0.5 -48.5t1.5 -41.5q5 -58 37 -91.5t88 -33.5zM372 1524q-128 0 -187.5 -59.5t-64.5 -184.5h109
q1 72 33 112t110 40q142 0 143 -152h109q-6 124 -65.5 184t-186.5 60z" />
    <glyph glyph-name="uni0204" unicode="&#x204;" horiz-adv-x="708" 
d="M121 0v1600h531v-143h-372v-581h352v-142h-352v-591h372v-143h-531zM429 1677l-175 234h121l174 -234h-120zM190 1677l-175 234h120l175 -234h-120z" />
    <glyph glyph-name="uni0205" unicode="&#x205;" horiz-adv-x="768" 
d="M396 -15q-159 0 -227 61.5t-75 200.5q-3 95 -4.5 220t-0.5 253t5 231q7 142 77.5 203t222.5 61q153 0 220 -62t73 -195q1 -23 2 -87.5t0 -146t-4 -155.5h-435q0 -83 1 -167.5t3 -171.5q1 -68 34.5 -94t104.5 -26t101.5 26t33.5 94q2 30 1.5 82t-3.5 108h159q2 -34 3 -88
t-1 -85q-7 -141 -72.5 -201.5t-218.5 -60.5zM250 691h280q1 56 1 114t-0.5 103t-2.5 63q-4 68 -36 94.5t-98 26.5q-76 0 -107.5 -30t-32.5 -91q-2 -69 -3 -139.5t-1 -140.5zM436 1280l-175 234h121l174 -234h-120zM197 1280l-175 234h120l175 -234h-120z" />
    <glyph glyph-name="uni0206" unicode="&#x206;" horiz-adv-x="708" 
d="M121 0v1600h531v-143h-372v-581h352v-142h-352v-591h372v-143h-531zM383 1921q-128 0 -187.5 -59.5t-64.5 -184.5h109q1 72 33 112t110 40q142 0 143 -152h109q-6 124 -65.5 184t-186.5 60z" />
    <glyph glyph-name="uni0207" unicode="&#x207;" horiz-adv-x="768" 
d="M396 -15q-159 0 -227 61.5t-75 200.5q-3 95 -4.5 220t-0.5 253t5 231q7 142 77.5 203t222.5 61q153 0 220 -62t73 -195q1 -23 2 -87.5t0 -146t-4 -155.5h-435q0 -83 1 -167.5t3 -171.5q1 -68 34.5 -94t104.5 -26t101.5 26t33.5 94q2 30 1.5 82t-3.5 108h159q2 -34 3 -88
t-1 -85q-7 -141 -72.5 -201.5t-218.5 -60.5zM250 691h280q1 56 1 114t-0.5 103t-2.5 63q-4 68 -36 94.5t-98 26.5q-76 0 -107.5 -30t-32.5 -91q-2 -69 -3 -139.5t-1 -140.5zM389 1524q-128 0 -187.5 -59.5t-64.5 -184.5h109q1 72 33 112t110 40q142 0 143 -152h109
q-6 124 -65.5 184t-186.5 60z" />
    <glyph glyph-name="uni0208" unicode="&#x208;" horiz-adv-x="401" 
d="M121 0v1600h159v-1600h-159zM247 1680l-175 234h121l174 -234h-120zM8 1680l-175 234h120l175 -234h-120z" />
    <glyph glyph-name="uni0209" unicode="&#x209;" horiz-adv-x="381" 
d="M111 0v1200h159v-1200h-159zM237 1280l-175 234h121l174 -234h-120zM-2 1280l-175 234h120l175 -234h-120z" />
    <glyph glyph-name="uni020A" unicode="&#x20a;" horiz-adv-x="401" 
d="M121 0v1600h159v-1600h-159zM201 1924q-128 0 -187.5 -59.5t-64.5 -184.5h109q1 72 33 112t110 40q142 0 143 -152h109q-6 124 -65.5 184t-186.5 60z" />
    <glyph glyph-name="uni020B" unicode="&#x20b;" horiz-adv-x="381" 
d="M111 0v1200h159v-1200h-159zM191 1524q-128 0 -187.5 -59.5t-64.5 -184.5h109q1 72 33 112t110 40q142 0 143 -152h109q-6 124 -65.5 184t-186.5 60z" />
    <glyph glyph-name="uni020C" unicode="&#x20c;" horiz-adv-x="840" 
d="M419 -14q-163 0 -235 66t-74 219q-2 151 -3.5 281t-1.5 252.5t1.5 250t3.5 273.5q2 153 74 219.5t235 66.5q161 0 233 -66.5t75 -219.5q4 -146 5.5 -273.5t1.5 -250t-1.5 -252.5t-5.5 -281q-3 -153 -75 -219t-233 -66zM419 123q84 0 116.5 30t33.5 113q4 154 6 283
t2 250.5t-2 250.5t-6 284q-1 82 -33.5 113t-116.5 31t-116.5 -31t-34.5 -113q-4 -151 -6 -279t-2 -249t2 -252t6 -288q2 -83 34.5 -113t116.5 -30zM466 1680l-175 234h121l174 -234h-120zM227 1680l-175 234h120l175 -234h-120z" />
    <glyph glyph-name="uni020D" unicode="&#x20d;" horiz-adv-x="795" 
d="M398 -15q-162 0 -229.5 65.5t-73.5 215.5q-4 82 -5.5 200.5t-0.5 242.5t6 224q7 153 74 217.5t229 64.5q164 0 229.5 -65.5t72.5 -216.5q4 -91 5.5 -208t0 -237t-5.5 -222q-8 -150 -73.5 -215.5t-228.5 -65.5zM398 109q79 0 110 30t33 94q7 181 7.5 363.5t-7.5 371.5
q-2 67 -34 95t-109 28t-110 -29.5t-35 -96.5q-6 -160 -7 -352t7 -377q3 -69 35.5 -98t109.5 -29zM444 1280l-175 234h121l174 -234h-120zM205 1280l-175 234h120l175 -234h-120z" />
    <glyph glyph-name="uni020E" unicode="&#x20e;" horiz-adv-x="840" 
d="M419 -14q-163 0 -235 66t-74 219q-2 151 -3.5 281t-1.5 252.5t1.5 250t3.5 273.5q2 153 74 219.5t235 66.5q161 0 233 -66.5t75 -219.5q4 -146 5.5 -273.5t1.5 -250t-1.5 -252.5t-5.5 -281q-3 -153 -75 -219t-233 -66zM419 123q84 0 116.5 30t33.5 113q4 154 6 283
t2 250.5t-2 250.5t-6 284q-1 82 -33.5 113t-116.5 31t-116.5 -31t-34.5 -113q-4 -151 -6 -279t-2 -249t2 -252t6 -288q2 -83 34.5 -113t116.5 -30zM420 1924q-128 0 -187.5 -59.5t-64.5 -184.5h109q1 72 33 112t110 40q142 0 143 -152h109q-6 124 -65.5 184t-186.5 60z" />
    <glyph glyph-name="uni020F" unicode="&#x20f;" horiz-adv-x="795" 
d="M398 -15q-162 0 -229.5 65.5t-73.5 215.5q-4 82 -5.5 200.5t-0.5 242.5t6 224q7 153 74 217.5t229 64.5q164 0 229.5 -65.5t72.5 -216.5q4 -91 5.5 -208t0 -237t-5.5 -222q-8 -150 -73.5 -215.5t-228.5 -65.5zM398 109q79 0 110 30t33 94q7 181 7.5 363.5t-7.5 371.5
q-2 67 -34 95t-109 28t-110 -29.5t-35 -96.5q-6 -160 -7 -352t7 -377q3 -69 35.5 -98t109.5 -29zM398 1524q-128 0 -187.5 -59.5t-64.5 -184.5h109q1 72 33 112t110 40q142 0 143 -152h109q-6 124 -65.5 184t-186.5 60z" />
    <glyph glyph-name="uni0210" unicode="&#x210;" horiz-adv-x="808" 
d="M121 0v1600h301q150 0 217.5 -60t72.5 -199q5 -142 5 -248t-5 -223q-8 -182 -132 -232l163 -638h-167l-147 612h-149v-612h-159zM280 755h141q71 0 100.5 25t32.5 84q3 91 4.5 166.5t0.5 150.5t-5 166q-3 60 -32 85t-100 25h-142v-702zM452 1680l-175 234h121l174 -234
h-120zM213 1680l-175 234h120l175 -234h-120z" />
    <glyph glyph-name="uni0211" unicode="&#x211;" horiz-adv-x="569" 
d="M111 0v1200h163v-119h34q18 68 61 96t117 28q18 0 37 -2t38 -2v-125h-73q-92 0 -143 -29t-71 -103v-944h-163zM365 1280l-175 234h121l174 -234h-120zM126 1280l-175 234h120l175 -234h-120z" />
    <glyph glyph-name="uni0212" unicode="&#x212;" horiz-adv-x="808" 
d="M121 0v1600h301q150 0 217.5 -60t72.5 -199q5 -142 5 -248t-5 -223q-8 -182 -132 -232l163 -638h-167l-147 612h-149v-612h-159zM280 755h141q71 0 100.5 25t32.5 84q3 91 4.5 166.5t0.5 150.5t-5 166q-3 60 -32 85t-100 25h-142v-702zM405 1924q-128 0 -187.5 -59.5
t-64.5 -184.5h109q1 72 33 112t110 40q142 0 143 -152h109q-6 124 -65.5 184t-186.5 60z" />
    <glyph glyph-name="uni0213" unicode="&#x213;" horiz-adv-x="569" 
d="M111 0v1200h163v-119h34q18 68 61 96t117 28q18 0 37 -2t38 -2v-125h-73q-92 0 -143 -29t-71 -103v-944h-163zM318 1524q-128 0 -187.5 -59.5t-64.5 -184.5h109q1 72 33 112t110 40q142 0 143 -152h109q-6 124 -65.5 184t-186.5 60z" />
    <glyph glyph-name="uni0214" unicode="&#x214;" horiz-adv-x="827" 
d="M414 -14q-163 0 -234 63.5t-73 208.5q-4 339 -3.5 671.5t3.5 670.5h159q-4 -338 -3.5 -677t1.5 -677q0 -67 33.5 -94t116.5 -27q82 0 115 27t33 94q1 338 2.5 677t-2.5 677h158q4 -338 4 -670.5t-4 -671.5q-2 -145 -73 -208.5t-233 -63.5zM460 1680l-175 234h121
l174 -234h-120zM221 1680l-175 234h120l175 -234h-120z" />
    <glyph glyph-name="uni0215" unicode="&#x215;" horiz-adv-x="829" 
d="M326 -15q-110 0 -166.5 60t-56.5 195v960h161l1 -973q0 -64 26.5 -92t86.5 -28q59 0 108 30.5t70 86.5v976h161v-1200h-161v111h-28q-67 -126 -202 -126zM455 1280l-175 234h121l174 -234h-120zM216 1280l-175 234h120l175 -234h-120z" />
    <glyph glyph-name="uni0216" unicode="&#x216;" horiz-adv-x="827" 
d="M414 -14q-163 0 -234 63.5t-73 208.5q-4 339 -3.5 671.5t3.5 670.5h159q-4 -338 -3.5 -677t1.5 -677q0 -67 33.5 -94t116.5 -27q82 0 115 27t33 94q1 338 2.5 677t-2.5 677h158q4 -338 4 -670.5t-4 -671.5q-2 -145 -73 -208.5t-233 -63.5zM414 1924q-128 0 -187.5 -59.5
t-64.5 -184.5h109q1 72 33 112t110 40q142 0 143 -152h109q-6 124 -65.5 184t-186.5 60z" />
    <glyph glyph-name="uni0217" unicode="&#x217;" horiz-adv-x="829" 
d="M326 -15q-110 0 -166.5 60t-56.5 195v960h161l1 -973q0 -64 26.5 -92t86.5 -28q59 0 108 30.5t70 86.5v976h161v-1200h-161v111h-28q-67 -126 -202 -126zM408 1524q-128 0 -187.5 -59.5t-64.5 -184.5h109q1 72 33 112t110 40q142 0 143 -152h109q-6 124 -65.5 184
t-186.5 60z" />
    <glyph glyph-name="uni0218" unicode="&#x218;" horiz-adv-x="802" 
d="M403 -14q-161 0 -232.5 64t-76.5 213q-3 84 -2.5 156t4.5 160h153q-4 -89 -5 -171t5 -165q3 -67 37.5 -93.5t116.5 -26.5q77 0 110 26.5t38 93.5q6 65 5 143.5t-5 144.5q-2 80 -32 120t-98 57l-111 27q-123 30 -169 103.5t-50 223.5q-2 65 -1 135.5t2 142.5
q4 147 75.5 210.5t235.5 63.5q155 0 225 -63.5t76 -212.5q1 -62 0.5 -136.5t-2.5 -156.5h-154q3 91 3.5 166.5t-2.5 146.5q-3 67 -36 93.5t-112 26.5t-112.5 -26.5t-37.5 -93.5q-4 -76 -4 -147t4 -149q2 -87 23.5 -127t76.5 -53l105 -24q140 -32 194.5 -106.5t60.5 -220.5
q2 -64 1.5 -135.5t-2.5 -132.5q-6 -149 -77 -213t-230 -64zM331 -365l66 129h-95v156h213v-138l-81 -147h-103z" />
    <glyph glyph-name="uni0219" unicode="&#x219;" horiz-adv-x="724" 
d="M356 -15q-152 0 -212.5 61t-65.5 200q-1 46 -0.5 86.5t2.5 84.5h145q-3 -61 -2.5 -107t0.5 -80q1 -68 31.5 -94.5t101.5 -26.5q76 0 109 26.5t35 95.5q1 44 1 70t-1 64q-2 70 -20.5 104t-74.5 52l-110 31q-119 35 -167 97t-52 194q-1 62 0 109q4 140 67.5 201.5
t221.5 61.5q149 0 211.5 -60t67.5 -201q0 -22 -0.5 -77t-3.5 -91h-148q3 48 2.5 101t-1.5 86q-1 67 -28.5 92.5t-99.5 25.5t-100 -25.5t-31 -93.5q-1 -18 -2 -48t0 -65q2 -71 18 -114t79 -61l104 -27q112 -29 165 -93.5t53 -193.5v-63.5t-2 -64.5q-4 -137 -68.5 -197
t-224.5 -60zM292 -365l66 129h-95v156h213v-138l-81 -147h-103z" />
    <glyph glyph-name="uni021A" unicode="&#x21a;" horiz-adv-x="673" 
d="M258 0v1457h-244v143h645v-143h-243v-1457h-158zM267 -365l66 129h-95v156h213v-138l-81 -147h-103z" />
    <glyph glyph-name="uni021B" unicode="&#x21b;" horiz-adv-x="540" 
d="M418 -15q-161 0 -226 59.5t-65 204.5l-1 827h-94v124h99v340h160v-340h208v-124h-213l1 -845q0 -72 26.5 -97.5t107.5 -25.5q30 0 51.5 1.5t50.5 4.5v-119q-24 -4 -50 -7t-55 -3zM274 -365l66 129h-95v156h213v-138l-81 -147h-103z" />
    <glyph glyph-name="uni022A" unicode="&#x22a;" horiz-adv-x="840" 
d="M419 -14q-163 0 -235 66t-74 219q-2 151 -3.5 281t-1.5 252.5t1.5 250t3.5 273.5q2 153 74 219.5t235 66.5q161 0 233 -66.5t75 -219.5q4 -146 5.5 -273.5t1.5 -250t-1.5 -252.5t-5.5 -281q-3 -153 -75 -219t-233 -66zM419 123q84 0 116.5 30t33.5 113q4 154 6 283
t2 250.5t-2 250.5t-6 284q-1 82 -33.5 113t-116.5 31t-116.5 -31t-34.5 -113q-4 -151 -6 -279t-2 -249t2 -252t6 -288q2 -83 34.5 -113t116.5 -30zM469 1710v134h134v-134h-134zM235 1710v134h134v-134h-134zM173 1992h495v-94h-495v94z" />
    <glyph glyph-name="uni022B" unicode="&#x22b;" horiz-adv-x="795" 
d="M398 -15q-162 0 -229.5 65.5t-73.5 215.5q-4 82 -5.5 200.5t-0.5 242.5t6 224q7 153 74 217.5t229 64.5q164 0 229.5 -65.5t72.5 -216.5q4 -91 5.5 -208t0 -237t-5.5 -222q-8 -150 -73.5 -215.5t-228.5 -65.5zM398 109q79 0 110 30t33 94q7 181 7.5 363.5t-7.5 371.5
q-2 67 -34 95t-109 28t-110 -29.5t-35 -96.5q-6 -160 -7 -352t7 -377q3 -69 35.5 -98t109.5 -29zM447 1310v134h134v-134h-134zM213 1310v134h134v-134h-134zM151 1592h495v-94h-495v94z" />
    <glyph glyph-name="uni022C" unicode="&#x22c;" horiz-adv-x="840" 
d="M419 -14q-163 0 -235 66t-74 219q-2 151 -3.5 281t-1.5 252.5t1.5 250t3.5 273.5q2 153 74 219.5t235 66.5q161 0 233 -66.5t75 -219.5q4 -146 5.5 -273.5t1.5 -250t-1.5 -252.5t-5.5 -281q-3 -153 -75 -219t-233 -66zM419 123q84 0 116.5 30t33.5 113q4 154 6 283
t2 250.5t-2 250.5t-6 284q-1 82 -33.5 113t-116.5 31t-116.5 -31t-34.5 -113q-4 -151 -6 -279t-2 -249t2 -252t6 -288q2 -83 34.5 -113t116.5 -30zM610 1853h77q-2 -84 -48.5 -124.5t-117.5 -38.5q-47 2 -78 21t-57.5 39t-61.5 23q-33 4 -60 -12.5t-33 -59.5h-77
q7 92 56 131.5t123 33.5q45 -4 75 -23.5t57 -38.5t61 -21q37 -2 60 18.5t24 51.5zM170 2039h495v-94h-495v94z" />
    <glyph glyph-name="uni022D" unicode="&#x22d;" horiz-adv-x="795" 
d="M398 -15q-162 0 -229.5 65.5t-73.5 215.5q-4 82 -5.5 200.5t-0.5 242.5t6 224q7 153 74 217.5t229 64.5q164 0 229.5 -65.5t72.5 -216.5q4 -91 5.5 -208t0 -237t-5.5 -222q-8 -150 -73.5 -215.5t-228.5 -65.5zM398 109q79 0 110 30t33 94q7 181 7.5 363.5t-7.5 371.5
q-2 67 -34 95t-109 28t-110 -29.5t-35 -96.5q-6 -160 -7 -352t7 -377q3 -69 35.5 -98t109.5 -29zM588 1453h77q-2 -84 -48.5 -124.5t-117.5 -38.5q-47 2 -78 21t-57.5 39t-61.5 23q-33 4 -60 -12.5t-33 -59.5h-77q7 92 56 131.5t123 33.5q45 -4 75 -23.5t57 -38.5t61 -21
q37 -2 60 18.5t24 51.5zM148 1639h495v-94h-495v94z" />
    <glyph glyph-name="uni0230" unicode="&#x230;" horiz-adv-x="840" 
d="M419 -14q-163 0 -235 66t-74 219q-2 151 -3.5 281t-1.5 252.5t1.5 250t3.5 273.5q2 153 74 219.5t235 66.5q161 0 233 -66.5t75 -219.5q4 -146 5.5 -273.5t1.5 -250t-1.5 -252.5t-5.5 -281q-3 -153 -75 -219t-233 -66zM419 123q84 0 116.5 30t33.5 113q4 154 6 283
t2 250.5t-2 250.5t-6 284q-1 82 -33.5 113t-116.5 31t-116.5 -31t-34.5 -113q-4 -151 -6 -279t-2 -249t2 -252t6 -288q2 -83 34.5 -113t116.5 -30zM353 1680v134h133v-134h-133zM173 1993h495v-94h-495v94z" />
    <glyph glyph-name="uni0231" unicode="&#x231;" horiz-adv-x="795" 
d="M398 -15q-162 0 -229.5 65.5t-73.5 215.5q-4 82 -5.5 200.5t-0.5 242.5t6 224q7 153 74 217.5t229 64.5q164 0 229.5 -65.5t72.5 -216.5q4 -91 5.5 -208t0 -237t-5.5 -222q-8 -150 -73.5 -215.5t-228.5 -65.5zM398 109q79 0 110 30t33 94q7 181 7.5 363.5t-7.5 371.5
q-2 67 -34 95t-109 28t-110 -29.5t-35 -96.5q-6 -160 -7 -352t7 -377q3 -69 35.5 -98t109.5 -29zM331 1280v134h133v-134h-133zM151 1593h495v-94h-495v94z" />
    <glyph glyph-name="uni0232" unicode="&#x232;" horiz-adv-x="729" 
d="M284 0v555h-51l-192 1045h161l78 -452l54 -457h61l52 457l78 452h163l-194 -1045h-51v-555h-159zM117 1777h495v-94h-495v94z" />
    <glyph glyph-name="uni0233" unicode="&#x233;" horiz-adv-x="723" 
d="M186 -410q-29 0 -69.5 4t-71.5 8v123q26 -3 65.5 -5.5t71.5 -2.5q82 0 111.5 26.5t40.5 96.5l28 160h-121l-187 1200h166l76 -578l56 -500h46l58 500l66 578h166l-194 -1350q-13 -88 -44 -145.5t-93.5 -86t-170.5 -28.5zM121 1377h495v-94h-495v94z" />
    <glyph glyph-name="uni0237" unicode="&#x237;" horiz-adv-x="385" 
d="M-23 -412q-30 0 -71 3t-71 8v122q59 -5 139 -5q75 0 106.5 26.5t31.5 90.5v1367h162v-1352q-2 -139 -71.5 -199.5t-225.5 -60.5z" />
    <glyph glyph-name="uni0259" unicode="&#x259;" horiz-adv-x="768" 
d="M372 1215q159 0 227 -61.5t75 -200.5q3 -95 4.5 -220t0.5 -253t-5 -231q-7 -142 -77.5 -203t-222.5 -61q-153 0 -220 62t-73 195q-1 23 -2 87.5t0 146t4 155.5h435q0 83 -1 167.5t-3 171.5q-1 68 -34.5 94t-104.5 26t-101.5 -26t-33.5 -94q-2 -30 -1.5 -82t3.5 -108h-159
q-2 34 -3 88t1 85q7 141 72.5 201.5t218.5 60.5zM518 509h-280q-1 -56 -1 -114t0.5 -103t2.5 -63q4 -68 36 -94.5t98 -26.5q76 0 107.5 30t32.5 91q2 69 3 139.5t1 140.5z" />
    <glyph glyph-name="uni02B9" unicode="&#x2b9;" horiz-adv-x="368" 
d="M141 1165l-35 227v208h157v-208l-35 -227h-87z" />
    <glyph glyph-name="uni02BA" unicode="&#x2ba;" horiz-adv-x="649" 
d="M138 1165l-32 227v208h148v-208l-32 -227h-84zM428 1165l-32 227v208h148v-208l-33 -227h-83z" />
    <glyph glyph-name="uni02BB" unicode="&#x2bb;" horiz-adv-x="425" 
d="M291 1565l-67 -128h95v-157h-213v139l82 146h103z" />
    <glyph glyph-name="uni02BC" unicode="&#x2bc;" horiz-adv-x="368" 
d="M141 1165l-35 227v208h157v-208l-35 -227h-87z" />
    <glyph glyph-name="uni02BE" unicode="&#x2be;" horiz-adv-x="413" 
d="M97 1210v105q44 -7 79 22t35 71q0 43 -35.5 72t-82.5 22v105q62 3 113.5 -23t82.5 -72t31 -104q0 -56 -32 -102.5t-83 -73t-108 -22.5z" />
    <glyph glyph-name="uni02BF" unicode="&#x2bf;" horiz-adv-x="413" 
d="M316 1210q-57 -4 -108 22.5t-83 73t-32 102.5q0 58 31 104t82.5 72t113.5 23v-105q-47 7 -83 -22t-36 -72q0 -42 35.5 -71t79.5 -22v-105z" />
    <glyph glyph-name="circumflex" unicode="&#x2c6;" horiz-adv-x="622" 
d="M106 1281l151 234h107l152 -234h-117l-88 143l-87 -143h-118z" />
    <glyph glyph-name="caron" unicode="&#x2c7;" horiz-adv-x="626" 
d="M264 1280l-151 234h113l89 -146l88 146h113l-152 -234h-100z" />
    <glyph glyph-name="uni02C8" unicode="&#x2c8;" horiz-adv-x="358" 
d="M106 1600h147v-744h-147v744z" />
    <glyph glyph-name="uni02C9" unicode="&#x2c9;" horiz-adv-x="806" 
d="M53 1377h495v-94h-495v94z" />
    <glyph glyph-name="uni02CA" unicode="&#x2ca;" horiz-adv-x="577" 
d="M203 1165l268 435h-147l-218 -435h97z" />
    <glyph glyph-name="uni02CB" unicode="&#x2cb;" horiz-adv-x="577" 
d="M374 1165l-268 435h147l218 -435h-97z" />
    <glyph glyph-name="uni02CC" unicode="&#x2cc;" horiz-adv-x="358" 
d="M106 376h147v-776h-147v776z" />
    <glyph glyph-name="breve" unicode="&#x2d8;" horiz-adv-x="701" 
d="M358 1270q-128 0 -187.5 59.5t-64.5 184.5h109q1 -72 33 -112t110 -40q142 0 143 152h109q-6 -124 -65.5 -184t-186.5 -60z" />
    <glyph glyph-name="dotaccent" unicode="&#x2d9;" horiz-adv-x="402" 
d="M143 1280v134h133v-134h-133z" />
    <glyph glyph-name="ring" unicode="&#x2da;" horiz-adv-x="653" 
d="M258 1270q-67 0 -116.5 49t-49.5 118q0 67 49 116.5t117 49.5q69 0 118 -49.5t49 -116.5q0 -69 -50 -118t-117 -49zM258 1366q29 0 50.5 21t21.5 50t-21.5 50t-50.5 21q-28 0 -49 -21t-21 -50t20.5 -50t49.5 -21z" />
    <glyph glyph-name="ogonek" unicode="&#x2db;" horiz-adv-x="467" 
d="M306 -308h-50q-211 0 -173 192l26 116h105l-27 -116q-12 -51 5 -73.5t66 -22.5h48v-96z" />
    <glyph glyph-name="tilde" unicode="&#x2dc;" horiz-adv-x="736" 
d="M562 1453h77q-2 -84 -48.5 -124.5t-117.5 -38.5q-47 2 -78 21t-57.5 39t-61.5 23q-33 4 -60 -12.5t-33 -59.5h-77q7 92 56 131.5t123 33.5q45 -4 75 -23.5t57 -38.5t61 -21q37 -2 60 18.5t24 51.5z" />
    <glyph glyph-name="hungarumlaut" unicode="&#x2dd;" horiz-adv-x="736" 
d="M93 1281l184 237h120l-183 -237h-121zM332 1281l184 237h123l-184 -237h-123z" />
    <glyph glyph-name="gravecomb" unicode="&#x300;" 
d="M263 1280l-163 234h127l160 -234h-124z" />
    <glyph glyph-name="acutecomb" unicode="&#x301;" 
d="M96 1280l167 234h125l-171 -234h-121z" />
    <glyph glyph-name="uni0302" unicode="&#x302;" 
d="M106 1281l151 234h107l152 -234h-117l-88 143l-87 -143h-118z" />
    <glyph glyph-name="tildecomb" unicode="&#x303;" 
d="M562 1453h77q-2 -84 -48.5 -124.5t-117.5 -38.5q-47 2 -78 21t-57.5 39t-61.5 23q-33 4 -60 -12.5t-33 -59.5h-77q7 92 56 131.5t123 33.5q45 -4 75 -23.5t57 -38.5t61 -21q37 -2 60 18.5t24 51.5z" />
    <glyph glyph-name="uni0304" unicode="&#x304;" 
d="M53 1377h495v-94h-495v94z" />
    <glyph glyph-name="uni0306" unicode="&#x306;" 
d="M358 1270q-128 0 -187.5 59.5t-64.5 184.5h109q1 -72 33 -112t110 -40q142 0 143 152h109q-6 -124 -65.5 -184t-186.5 -60z" />
    <glyph glyph-name="uni0307" unicode="&#x307;" 
d="M143 1280v134h133v-134h-133z" />
    <glyph glyph-name="uni0308" unicode="&#x308;" 
d="M365 1310v134h134v-134h-134zM131 1310v134h134v-134h-134z" />
    <glyph glyph-name="hookabovecomb" unicode="&#x309;" 
d="M203 1280l10 61q5 42 -11 56.5t-61 14.5h-54v82h54q96 0 135 -35t27 -118l-10 -61h-90z" />
    <glyph glyph-name="uni030A" unicode="&#x30a;" 
d="M258 1270q-67 0 -116.5 49t-49.5 118q0 67 49 116.5t117 49.5q69 0 118 -49.5t49 -116.5q0 -69 -50 -118t-117 -49zM258 1366q29 0 50.5 21t21.5 50t-21.5 50t-50.5 21q-28 0 -49 -21t-21 -50t20.5 -50t49.5 -21z" />
    <glyph glyph-name="uni030B" unicode="&#x30b;" 
d="M93 1281l184 237h120l-183 -237h-121zM332 1281l184 237h123l-184 -237h-123z" />
    <glyph glyph-name="uni030C" unicode="&#x30c;" 
d="M257 1280l-151 234h113l89 -146l88 146h113l-152 -234h-100z" />
    <glyph glyph-name="uni030F" unicode="&#x30f;" 
d="M514 1280l-175 234h121l174 -234h-120zM275 1280l-175 234h120l175 -234h-120z" />
    <glyph glyph-name="uni0311" unicode="&#x311;" 
d="M358 1524q-128 0 -187.5 -59.5t-64.5 -184.5h109q1 72 33 112t110 40q142 0 143 -152h109q-6 124 -65.5 184t-186.5 60z" />
    <glyph glyph-name="uni0312" unicode="&#x312;" 
d="M291 1565l-67 -128h95v-157h-213v139l82 146h103z" />
    <glyph glyph-name="uni031B" unicode="&#x31b;" 
d="M151 984q-21 0 -45 4v82q20 -2 46 -2q71 2 96 28.5t28 97.5q2 32 2 75.5t-2 73.5h92q1 -31 1 -74.5t-1 -74.5q-7 -113 -56 -161.5t-161 -48.5z" />
    <glyph glyph-name="dotbelowcomb" unicode="&#x323;" 
d="M87 -214v134h134v-134h-134z" />
    <glyph glyph-name="uni0324" unicode="&#x324;" 
d="M365 -185v134h134v-134h-134zM131 -185v134h134v-134h-134z" />
    <glyph glyph-name="uni0326" unicode="&#x326;" 
d="M135 -365l66 129h-95v156h213v-138l-81 -147h-103z" />
    <glyph glyph-name="uni0327" unicode="&#x327;" 
d="M78 -308v96h49q48 0 64.5 22.5t5.5 73.5l-27 116h105l27 -116q37 -192 -174 -192h-50z" />
    <glyph glyph-name="uni0328" unicode="&#x328;" 
d="M308 -308h-50q-211 0 -173 192l26 116h105l-27 -116q-12 -51 5 -73.5t66 -22.5h48v-96z" />
    <glyph glyph-name="uni032E" unicode="&#x32e;" 
d="M358 -324q-128 0 -187.5 59.5t-64.5 184.5h109q1 -72 33 -112t110 -40q142 0 143 152h109q-6 -124 -65.5 -184t-186.5 -60z" />
    <glyph glyph-name="uni0331" unicode="&#x331;" 
d="M53 -80h495v-94h-495v94z" />
    <glyph glyph-name="uni0335" unicode="&#x335;" 
d="M106 815h423v-113h-423v113z" />
    <glyph glyph-name="pi" unicode="&#x3c0;" horiz-adv-x="1149" 
d="M934 -10q-161 0 -219.5 61t-63.5 199l-2 806h-204v-1056h-160v1056h-165v143h872v-143h-183v-820q0 -70 23 -96t102 -26q28 0 49 1.5t46 4.5v-119q-43 -11 -95 -11z" />
    <glyph glyph-name="uni1E08" unicode="&#x1e08;" horiz-adv-x="835" 
d="M420 -15q-159 0 -233.5 64t-76.5 212q-3 197 -4 368t0 341.5t4 367.5q2 145 76.5 209.5t233.5 64.5q158 0 233.5 -65t81.5 -209q3 -79 2.5 -147.5t-4.5 -146.5h-158q3 80 3 149.5t-2 149.5q-3 76 -37.5 104.5t-118.5 28.5q-81 0 -115.5 -28.5t-36.5 -104.5
q-3 -157 -5 -288.5t-2 -255t2 -255t5 -289.5q2 -76 36.5 -105t115.5 -29q88 0 124.5 29t39.5 105q3 68 2 138t-4 184h159q3 -96 4 -170t-2 -146q-6 -148 -82 -212t-241 -64zM273 -301v96h49q48 0 64.5 22.5t5.5 73.5l-27 116h105l27 -116q37 -192 -174 -192h-50zM367 1680
l167 234h125l-171 -234h-121z" />
    <glyph glyph-name="uni1E09" unicode="&#x1e09;" horiz-adv-x="770" 
d="M527 783q2 48 2 99t-1 91q-1 66 -32 92t-104 26q-74 0 -105 -26.5t-32 -92.5q-11 -363 0 -742q1 -68 33.5 -94.5t104.5 -26.5q73 0 103.5 27t31.5 95q1 42 1 86t-2 103h157q3 -36 3.5 -87.5t-1.5 -86.5q-5 -139 -72.5 -200t-220.5 -61q-157 0 -225 61.5t-74 199.5
q-3 95 -4.5 220.5t-0.5 254t5 231.5q7 141 76 202t222 61q154 0 222.5 -60t71.5 -198q1 -41 1 -88t-3 -86h-157zM240 -301v96h49q48 0 64.5 22.5t5.5 73.5l-27 116h105l27 -116q37 -192 -174 -192h-50zM341 1280l167 234h125l-171 -234h-121z" />
    <glyph glyph-name="uni1E0C" unicode="&#x1e0c;" horiz-adv-x="835" 
d="M121 0v1600h302q159 0 229.5 -62t72.5 -204q3 -191 4 -362.5t0 -343t-4 -361.5q-2 -143 -70 -205t-221 -62h-313zM280 143h154q73 0 102 25.5t31 85.5q3 154 5 287t2 259.5t-2 259.5t-5 287q-2 60 -33.5 85t-110.5 25h-143v-1314zM337 -214v134h134v-134h-134z" />
    <glyph glyph-name="uni1E0D" unicode="&#x1e0d;" horiz-adv-x="819" 
d="M314 -15q-110 0 -162.5 59t-57.5 194q-4 109 -4.5 238.5t0.5 256.5t4 229q4 138 61.5 195.5t162.5 57.5q77 0 122 -31t78 -94h28v510h162v-1600h-162v111h-30q-34 -62 -79.5 -94t-122.5 -32zM370 107q60 0 107 27.5t69 89.5v753q-22 61 -68.5 89t-106.5 28
q-61 0 -87.5 -28t-27.5 -89q-5 -124 -6.5 -258t0 -260t4.5 -227q2 -71 30.5 -98t85.5 -27zM332 -214v134h134v-134h-134z" />
    <glyph glyph-name="uni1E0E" unicode="&#x1e0e;" horiz-adv-x="835" 
d="M121 0v1600h302q159 0 229.5 -62t72.5 -204q3 -191 4 -362.5t0 -343t-4 -361.5q-2 -143 -70 -205t-221 -62h-313zM280 143h154q73 0 102 25.5t31 85.5q3 154 5 287t2 259.5t-2 259.5t-5 287q-2 60 -33.5 85t-110.5 25h-143v-1314zM158 -80h495v-94h-495v94z" />
    <glyph glyph-name="uni1E0F" unicode="&#x1e0f;" horiz-adv-x="819" 
d="M314 -15q-110 0 -162.5 59t-57.5 194q-4 109 -4.5 238.5t0.5 256.5t4 229q4 138 61.5 195.5t162.5 57.5q77 0 122 -31t78 -94h28v510h162v-1600h-162v111h-30q-34 -62 -79.5 -94t-122.5 -32zM370 107q60 0 107 27.5t69 89.5v753q-22 61 -68.5 89t-106.5 28
q-61 0 -87.5 -28t-27.5 -89q-5 -124 -6.5 -258t0 -260t4.5 -227q2 -71 30.5 -98t85.5 -27zM152 -80h495v-94h-495v94z" />
    <glyph glyph-name="uni1E14" unicode="&#x1e14;" horiz-adv-x="708" 
d="M121 0v1600h531v-143h-372v-581h352v-142h-352v-591h372v-143h-531zM136 1774h495v-94h-495v94zM308 1854l-163 234h127l160 -234h-124z" />
    <glyph glyph-name="uni1E15" unicode="&#x1e15;" horiz-adv-x="768" 
d="M396 -15q-159 0 -227 61.5t-75 200.5q-3 95 -4.5 220t-0.5 253t5 231q7 142 77.5 203t222.5 61q153 0 220 -62t73 -195q1 -23 2 -87.5t0 -146t-4 -155.5h-435q0 -83 1 -167.5t3 -171.5q1 -68 34.5 -94t104.5 -26t101.5 26t33.5 94q2 30 1.5 82t-3.5 108h159q2 -34 3 -88
t-1 -85q-7 -141 -72.5 -201.5t-218.5 -60.5zM250 691h280q1 56 1 114t-0.5 103t-2.5 63q-4 68 -36 94.5t-98 26.5q-76 0 -107.5 -30t-32.5 -91q-2 -69 -3 -139.5t-1 -140.5zM143 1377h495v-94h-495v94zM314 1457l-163 234h127l160 -234h-124z" />
    <glyph glyph-name="uni1E16" unicode="&#x1e16;" horiz-adv-x="708" 
d="M121 0v1600h531v-143h-372v-581h352v-142h-352v-591h372v-143h-531zM136 1774h495v-94h-495v94zM332 1854l167 234h125l-171 -234h-121z" />
    <glyph glyph-name="uni1E17" unicode="&#x1e17;" horiz-adv-x="768" 
d="M396 -15q-159 0 -227 61.5t-75 200.5q-3 95 -4.5 220t-0.5 253t5 231q7 142 77.5 203t222.5 61q153 0 220 -62t73 -195q1 -23 2 -87.5t0 -146t-4 -155.5h-435q0 -83 1 -167.5t3 -171.5q1 -68 34.5 -94t104.5 -26t101.5 26t33.5 94q2 30 1.5 82t-3.5 108h159q2 -34 3 -88
t-1 -85q-7 -141 -72.5 -201.5t-218.5 -60.5zM250 691h280q1 56 1 114t-0.5 103t-2.5 63q-4 68 -36 94.5t-98 26.5q-76 0 -107.5 -30t-32.5 -91q-2 -69 -3 -139.5t-1 -140.5zM143 1377h495v-94h-495v94zM339 1457l167 234h125l-171 -234h-121z" />
    <glyph glyph-name="uni1E1C" unicode="&#x1e1c;" horiz-adv-x="708" 
d="M121 0v1600h531v-143h-372v-581h352v-142h-352v-591h372v-143h-531zM261 -301v96h49q48 0 64.5 22.5t5.5 73.5l-27 116h105l27 -116q37 -192 -174 -192h-50zM383 1667q-128 0 -187.5 59.5t-64.5 184.5h109q1 -72 33 -112t110 -40q142 0 143 152h109q-6 -124 -65.5 -184
t-186.5 -60z" />
    <glyph glyph-name="uni1E1D" unicode="&#x1e1d;" horiz-adv-x="768" 
d="M396 -15q-159 0 -227 61.5t-75 200.5q-3 95 -4.5 220t-0.5 253t5 231q7 142 77.5 203t222.5 61q153 0 220 -62t73 -195q1 -23 2 -87.5t0 -146t-4 -155.5h-435q0 -83 1 -167.5t3 -171.5q1 -68 34.5 -94t104.5 -26t101.5 26t33.5 94q2 30 1.5 82t-3.5 108h159q2 -34 3 -88
t-1 -85q-7 -141 -72.5 -201.5t-218.5 -60.5zM250 691h280q1 56 1 114t-0.5 103t-2.5 63q-4 68 -36 94.5t-98 26.5q-76 0 -107.5 -30t-32.5 -91q-2 -69 -3 -139.5t-1 -140.5zM245 -301v96h49q48 0 64.5 22.5t5.5 73.5l-27 116h105l27 -116q37 -192 -174 -192h-50zM389 1270
q-128 0 -187.5 59.5t-64.5 184.5h109q1 -72 33 -112t110 -40q142 0 143 152h109q-6 -124 -65.5 -184t-186.5 -60z" />
    <glyph glyph-name="uni1E20" unicode="&#x1e20;" horiz-adv-x="832" 
d="M425 -14q-168 0 -239 64t-75 213q-11 537 0 1069q4 151 75 216.5t238 65.5q163 0 233.5 -63.5t77.5 -212.5q6 -146 0 -293h-159q3 85 3 153.5t-3 152.5q-3 73 -34 100t-118 27q-89 0 -120.5 -27t-34.5 -100q-5 -202 -7 -376t0 -348.5t7 -376.5q3 -73 34.5 -100t121.5 -27
q94 0 126.5 27t35.5 100q3 140 0 280h-159v144h315q2 -125 1.5 -222.5t-3.5 -188.5q-4 -149 -76 -213t-240 -64zM175 1777h495v-94h-495v94z" />
    <glyph glyph-name="uni1E21" unicode="&#x1e21;" horiz-adv-x="814" 
d="M389 -337q-137 0 -221.5 41.5t-93.5 128.5q-1 5 -1.5 21.5t-0.5 28.5q4 57 44 88t90 40v27q-101 27 -106 105q-2 19 0 39q2 40 33 69t77 35v29q-61 27 -90 84t-34 148q-3 80 -4 139.5t0 119.5t4 145q7 142 76 203t222 61q107 0 170.5 -28t93.5 -91h26q6 50 42 77t95 27
v-125h-22q-50 0 -79 -34t-29 -107v-49q2 -67 2.5 -118.5t-0.5 -103t-4 -116.5q-7 -141 -74 -201.5t-221 -60.5q-157 2 -157 -75v-11q0 -38 40.5 -53.5t130.5 -17.5q158 -6 239.5 -50t91.5 -153q2 -19 3 -25t-3 -33q-9 -117 -101 -160.5t-239 -43.5zM384 407q66 0 101.5 26.5
t38.5 98.5q5 95 5 215t-5 223q-3 66 -35 94t-105 28q-74 0 -107 -29.5t-36 -97.5q-2 -62 -3 -140t-0.5 -155t3.5 -137q3 -71 39 -98.5t104 -27.5zM396 -222q85 0 139 19t61 78q4 23 0 47q-7 61 -63.5 72.5t-138.5 14.5q-80 2 -130.5 -13.5t-55.5 -76.5q-2 -22 -2 -23t2 -22
q7 -61 56 -78.5t132 -17.5zM137 1377h495v-94h-495v94z" />
    <glyph glyph-name="uni1E24" unicode="&#x1e24;" horiz-adv-x="855" 
d="M121 0v1600h159v-724h295v724h159v-1600h-159v734h-295v-734h-159zM360 -214v134h134v-134h-134z" />
    <glyph glyph-name="uni1E25" unicode="&#x1e25;" horiz-adv-x="832" 
d="M111 0v1600h162v-510h33q34 63 78 94t124 31q111 0 164 -60.5t53 -192.5l2 -962h-160l-2 974q0 64 -27 92t-88 28q-134 0 -177 -117v-977h-162zM348 -214v134h134v-134h-134z" />
    <glyph glyph-name="uni1E2A" unicode="&#x1e2a;" horiz-adv-x="855" 
d="M121 0v1600h159v-724h295v724h159v-1600h-159v734h-295v-734h-159zM428 -324q-128 0 -187.5 59.5t-64.5 184.5h109q1 -72 33 -112t110 -40q142 0 143 152h109q-6 -124 -65.5 -184t-186.5 -60z" />
    <glyph glyph-name="uni1E2B" unicode="&#x1e2b;" horiz-adv-x="832" 
d="M111 0v1600h162v-510h33q34 63 78 94t124 31q111 0 164 -60.5t53 -192.5l2 -962h-160l-2 974q0 64 -27 92t-88 28q-134 0 -177 -117v-977h-162zM416 -324q-128 0 -187.5 59.5t-64.5 184.5h109q1 -72 33 -112t110 -40q142 0 143 152h109q-6 -124 -65.5 -184t-186.5 -60z
" />
    <glyph glyph-name="uni1E2E" unicode="&#x1e2e;" horiz-adv-x="401" 
d="M121 0v1600h159v-1600h-159zM250 1710v134h134v-134h-134zM16 1710v134h134v-134h-134zM150 1895l167 234h125l-171 -234h-121z" />
    <glyph glyph-name="uni1E2F" unicode="&#x1e2f;" horiz-adv-x="381" 
d="M111 0v1200h159v-1200h-159zM240 1310v134h134v-134h-134zM6 1310v134h134v-134h-134zM140 1495l167 234h125l-171 -234h-121z" />
    <glyph glyph-name="uni1E36" unicode="&#x1e36;" horiz-adv-x="663" 
d="M121 0v1600h159v-1457h371v-143h-530zM319 -214v134h134v-134h-134z" />
    <glyph glyph-name="uni1E37" unicode="&#x1e37;" horiz-adv-x="381" 
d="M111 0v1600h159v-1600h-159zM122 -214v134h134v-134h-134z" />
    <glyph glyph-name="uni1E3A" unicode="&#x1e3a;" horiz-adv-x="663" 
d="M121 0v1600h159v-1457h371v-143h-530zM140 -80h495v-94h-495v94z" />
    <glyph glyph-name="uni1E3B" unicode="&#x1e3b;" horiz-adv-x="381" 
d="M111 0v1600h159v-1600h-159zM-57 -80h495v-94h-495v94z" />
    <glyph glyph-name="uni1E42" unicode="&#x1e42;" horiz-adv-x="1298" 
d="M121 0v1600h343l95 -655l63 -795h55l62 795l96 655h341v-1600h-161v500l20 957h-85l-103 -998l-78 -452h-244l-73 452l-104 998h-84l20 -957v-500h-163zM582 -214v134h134v-134h-134z" />
    <glyph glyph-name="uni1E43" unicode="&#x1e43;" horiz-adv-x="1244" 
d="M111 0v1200h160v-110h31q32 61 73.5 93t120.5 32q78 0 127 -32t70 -102h29q32 62 80 98t127 36q104 0 156.5 -59t53.5 -194v-962h-160v974q0 64 -27.5 92t-82.5 28q-62 0 -100.5 -32t-60.5 -88v-974h-160v974q0 64 -27.5 92t-82.5 28q-126 0 -167 -117v-977h-160z
M559 -214v134h134v-134h-134z" />
    <glyph glyph-name="uni1E44" unicode="&#x1e44;" horiz-adv-x="1006" 
d="M121 0v1600h325l89 -507l134 -949h85l-20 890l-9 566h160v-1600h-335l-97 574l-113 884h-88l18 -859l11 -599h-160zM453 1680v134h133v-134h-133z" />
    <glyph glyph-name="uni1E45" unicode="&#x1e45;" horiz-adv-x="832" 
d="M111 0v1200h160v-110h35q33 62 80.5 93.5t121.5 31.5q111 0 164.5 -60.5t54.5 -192.5v-962h-159v974q-2 64 -29.5 92t-88.5 28q-58 0 -108.5 -31t-70.5 -86v-977h-160zM354 1280v134h133v-134h-133z" />
    <glyph glyph-name="uni1E46" unicode="&#x1e46;" horiz-adv-x="1006" 
d="M121 0v1600h325l89 -507l134 -949h85l-20 890l-9 566h160v-1600h-335l-97 574l-113 884h-88l18 -859l11 -599h-160zM443 -214v134h134v-134h-134z" />
    <glyph glyph-name="uni1E47" unicode="&#x1e47;" horiz-adv-x="832" 
d="M111 0v1200h160v-110h35q33 62 80.5 93.5t121.5 31.5q111 0 164.5 -60.5t54.5 -192.5v-962h-159v974q-2 64 -29.5 92t-88.5 28q-58 0 -108.5 -31t-70.5 -86v-977h-160zM353 -214v134h134v-134h-134z" />
    <glyph glyph-name="uni1E48" unicode="&#x1e48;" horiz-adv-x="1006" 
d="M121 0v1600h325l89 -507l134 -949h85l-20 890l-9 566h160v-1600h-335l-97 574l-113 884h-88l18 -859l11 -599h-160zM264 -80h495v-94h-495v94z" />
    <glyph glyph-name="uni1E49" unicode="&#x1e49;" horiz-adv-x="832" 
d="M111 0v1200h160v-110h35q33 62 80.5 93.5t121.5 31.5q111 0 164.5 -60.5t54.5 -192.5v-962h-159v974q-2 64 -29.5 92t-88.5 28q-58 0 -108.5 -31t-70.5 -86v-977h-160zM174 -80h495v-94h-495v94z" />
    <glyph glyph-name="uni1E4C" unicode="&#x1e4c;" horiz-adv-x="840" 
d="M419 -14q-163 0 -235 66t-74 219q-2 151 -3.5 281t-1.5 252.5t1.5 250t3.5 273.5q2 153 74 219.5t235 66.5q161 0 233 -66.5t75 -219.5q4 -146 5.5 -273.5t1.5 -250t-1.5 -252.5t-5.5 -281q-3 -153 -75 -219t-233 -66zM419 123q84 0 116.5 30t33.5 113q4 154 6 283
t2 250.5t-2 250.5t-6 284q-1 82 -33.5 113t-116.5 31t-116.5 -31t-34.5 -113q-4 -151 -6 -279t-2 -249t2 -252t6 -288q2 -83 34.5 -113t116.5 -30zM610 1853h77q-2 -84 -48.5 -124.5t-117.5 -38.5q-47 2 -78 21t-57.5 39t-61.5 23q-33 4 -60 -12.5t-33 -59.5h-77
q7 92 56 131.5t123 33.5q45 -4 75 -23.5t57 -38.5t61 -21q37 -2 60 18.5t24 51.5zM366 1942l167 234h125l-171 -234h-121z" />
    <glyph glyph-name="uni1E4D" unicode="&#x1e4d;" horiz-adv-x="795" 
d="M398 -15q-162 0 -229.5 65.5t-73.5 215.5q-4 82 -5.5 200.5t-0.5 242.5t6 224q7 153 74 217.5t229 64.5q164 0 229.5 -65.5t72.5 -216.5q4 -91 5.5 -208t0 -237t-5.5 -222q-8 -150 -73.5 -215.5t-228.5 -65.5zM398 109q79 0 110 30t33 94q7 181 7.5 363.5t-7.5 371.5
q-2 67 -34 95t-109 28t-110 -29.5t-35 -96.5q-6 -160 -7 -352t7 -377q3 -69 35.5 -98t109.5 -29zM588 1453h77q-2 -84 -48.5 -124.5t-117.5 -38.5q-47 2 -78 21t-57.5 39t-61.5 23q-33 4 -60 -12.5t-33 -59.5h-77q7 92 56 131.5t123 33.5q45 -4 75 -23.5t57 -38.5t61 -21
q37 -2 60 18.5t24 51.5zM344 1542l167 234h125l-171 -234h-121z" />
    <glyph glyph-name="uni1E4E" unicode="&#x1e4e;" horiz-adv-x="840" 
d="M419 -14q-163 0 -235 66t-74 219q-2 151 -3.5 281t-1.5 252.5t1.5 250t3.5 273.5q2 153 74 219.5t235 66.5q161 0 233 -66.5t75 -219.5q4 -146 5.5 -273.5t1.5 -250t-1.5 -252.5t-5.5 -281q-3 -153 -75 -219t-233 -66zM419 123q84 0 116.5 30t33.5 113q4 154 6 283
t2 250.5t-2 250.5t-6 284q-1 82 -33.5 113t-116.5 31t-116.5 -31t-34.5 -113q-4 -151 -6 -279t-2 -249t2 -252t6 -288q2 -83 34.5 -113t116.5 -30zM610 1853h77q-2 -84 -48.5 -124.5t-117.5 -38.5q-47 2 -78 21t-57.5 39t-61.5 23q-33 4 -60 -12.5t-33 -59.5h-77
q7 92 56 131.5t123 33.5q45 -4 75 -23.5t57 -38.5t61 -21q37 -2 60 18.5t24 51.5zM466 1972v134h134v-134h-134zM232 1972v134h134v-134h-134z" />
    <glyph glyph-name="uni1E4F" unicode="&#x1e4f;" horiz-adv-x="795" 
d="M398 -15q-162 0 -229.5 65.5t-73.5 215.5q-4 82 -5.5 200.5t-0.5 242.5t6 224q7 153 74 217.5t229 64.5q164 0 229.5 -65.5t72.5 -216.5q4 -91 5.5 -208t0 -237t-5.5 -222q-8 -150 -73.5 -215.5t-228.5 -65.5zM398 109q79 0 110 30t33 94q7 181 7.5 363.5t-7.5 371.5
q-2 67 -34 95t-109 28t-110 -29.5t-35 -96.5q-6 -160 -7 -352t7 -377q3 -69 35.5 -98t109.5 -29zM588 1453h77q-2 -84 -48.5 -124.5t-117.5 -38.5q-47 2 -78 21t-57.5 39t-61.5 23q-33 4 -60 -12.5t-33 -59.5h-77q7 92 56 131.5t123 33.5q45 -4 75 -23.5t57 -38.5t61 -21
q37 -2 60 18.5t24 51.5zM444 1572v134h134v-134h-134zM210 1572v134h134v-134h-134z" />
    <glyph glyph-name="uni1E50" unicode="&#x1e50;" horiz-adv-x="840" 
d="M419 -14q-163 0 -235 66t-74 219q-2 151 -3.5 281t-1.5 252.5t1.5 250t3.5 273.5q2 153 74 219.5t235 66.5q161 0 233 -66.5t75 -219.5q4 -146 5.5 -273.5t1.5 -250t-1.5 -252.5t-5.5 -281q-3 -153 -75 -219t-233 -66zM419 123q84 0 116.5 30t33.5 113q4 154 6 283
t2 250.5t-2 250.5t-6 284q-1 82 -33.5 113t-116.5 31t-116.5 -31t-34.5 -113q-4 -151 -6 -279t-2 -249t2 -252t6 -288q2 -83 34.5 -113t116.5 -30zM173 1777h495v-94h-495v94zM344 1857l-163 234h127l160 -234h-124z" />
    <glyph glyph-name="uni1E51" unicode="&#x1e51;" horiz-adv-x="795" 
d="M398 -15q-162 0 -229.5 65.5t-73.5 215.5q-4 82 -5.5 200.5t-0.5 242.5t6 224q7 153 74 217.5t229 64.5q164 0 229.5 -65.5t72.5 -216.5q4 -91 5.5 -208t0 -237t-5.5 -222q-8 -150 -73.5 -215.5t-228.5 -65.5zM398 109q79 0 110 30t33 94q7 181 7.5 363.5t-7.5 371.5
q-2 67 -34 95t-109 28t-110 -29.5t-35 -96.5q-6 -160 -7 -352t7 -377q3 -69 35.5 -98t109.5 -29zM151 1377h495v-94h-495v94zM322 1457l-163 234h127l160 -234h-124z" />
    <glyph glyph-name="uni1E52" unicode="&#x1e52;" horiz-adv-x="840" 
d="M419 -14q-163 0 -235 66t-74 219q-2 151 -3.5 281t-1.5 252.5t1.5 250t3.5 273.5q2 153 74 219.5t235 66.5q161 0 233 -66.5t75 -219.5q4 -146 5.5 -273.5t1.5 -250t-1.5 -252.5t-5.5 -281q-3 -153 -75 -219t-233 -66zM419 123q84 0 116.5 30t33.5 113q4 154 6 283
t2 250.5t-2 250.5t-6 284q-1 82 -33.5 113t-116.5 31t-116.5 -31t-34.5 -113q-4 -151 -6 -279t-2 -249t2 -252t6 -288q2 -83 34.5 -113t116.5 -30zM173 1777h495v-94h-495v94zM369 1857l167 234h125l-171 -234h-121z" />
    <glyph glyph-name="uni1E53" unicode="&#x1e53;" horiz-adv-x="795" 
d="M398 -15q-162 0 -229.5 65.5t-73.5 215.5q-4 82 -5.5 200.5t-0.5 242.5t6 224q7 153 74 217.5t229 64.5q164 0 229.5 -65.5t72.5 -216.5q4 -91 5.5 -208t0 -237t-5.5 -222q-8 -150 -73.5 -215.5t-228.5 -65.5zM398 109q79 0 110 30t33 94q7 181 7.5 363.5t-7.5 371.5
q-2 67 -34 95t-109 28t-110 -29.5t-35 -96.5q-6 -160 -7 -352t7 -377q3 -69 35.5 -98t109.5 -29zM151 1377h495v-94h-495v94zM347 1457l167 234h125l-171 -234h-121z" />
    <glyph glyph-name="uni1E5A" unicode="&#x1e5a;" horiz-adv-x="808" 
d="M121 0v1600h301q150 0 217.5 -60t72.5 -199q5 -142 5 -248t-5 -223q-8 -182 -132 -232l163 -638h-167l-147 612h-149v-612h-159zM280 755h141q71 0 100.5 25t32.5 84q3 91 4.5 166.5t0.5 150.5t-5 166q-3 60 -32 85t-100 25h-142v-702zM355 -214v134h134v-134h-134z" />
    <glyph glyph-name="uni1E5B" unicode="&#x1e5b;" horiz-adv-x="569" 
d="M111 0v1200h163v-119h34q18 68 61 96t117 28q18 0 37 -2t38 -2v-125h-73q-92 0 -143 -29t-71 -103v-944h-163zM125 -214v134h134v-134h-134z" />
    <glyph glyph-name="uni1E5E" unicode="&#x1e5e;" horiz-adv-x="808" 
d="M121 0v1600h301q150 0 217.5 -60t72.5 -199q5 -142 5 -248t-5 -223q-8 -182 -132 -232l163 -638h-167l-147 612h-149v-612h-159zM280 755h141q71 0 100.5 25t32.5 84q3 91 4.5 166.5t0.5 150.5t-5 166q-3 60 -32 85t-100 25h-142v-702zM175 -80h495v-94h-495v94z" />
    <glyph glyph-name="uni1E5F" unicode="&#x1e5f;" horiz-adv-x="569" 
d="M111 0v1200h163v-119h34q18 68 61 96t117 28q18 0 37 -2t38 -2v-125h-73q-92 0 -143 -29t-71 -103v-944h-163zM-55 -80h495v-94h-495v94z" />
    <glyph glyph-name="uni1E60" unicode="&#x1e60;" horiz-adv-x="802" 
d="M403 -14q-161 0 -232.5 64t-76.5 213q-3 84 -2.5 156t4.5 160h153q-4 -89 -5 -171t5 -165q3 -67 37.5 -93.5t116.5 -26.5q77 0 110 26.5t38 93.5q6 65 5 143.5t-5 144.5q-2 80 -32 120t-98 57l-111 27q-123 30 -169 103.5t-50 223.5q-2 65 -1 135.5t2 142.5
q4 147 75.5 210.5t235.5 63.5q155 0 225 -63.5t76 -212.5q1 -62 0.5 -136.5t-2.5 -156.5h-154q3 91 3.5 166.5t-2.5 146.5q-3 67 -36 93.5t-112 26.5t-112.5 -26.5t-37.5 -93.5q-4 -76 -4 -147t4 -149q2 -87 23.5 -127t76.5 -53l105 -24q140 -32 194.5 -106.5t60.5 -220.5
q2 -64 1.5 -135.5t-2.5 -132.5q-6 -149 -77 -213t-230 -64zM334 1680v134h133v-134h-133z" />
    <glyph glyph-name="uni1E61" unicode="&#x1e61;" horiz-adv-x="724" 
d="M356 -15q-152 0 -212.5 61t-65.5 200q-1 46 -0.5 86.5t2.5 84.5h145q-3 -61 -2.5 -107t0.5 -80q1 -68 31.5 -94.5t101.5 -26.5q76 0 109 26.5t35 95.5q1 44 1 70t-1 64q-2 70 -20.5 104t-74.5 52l-110 31q-119 35 -167 97t-52 194q-1 62 0 109q4 140 67.5 201.5
t221.5 61.5q149 0 211.5 -60t67.5 -201q0 -22 -0.5 -77t-3.5 -91h-148q3 48 2.5 101t-1.5 86q-1 67 -28.5 92.5t-99.5 25.5t-100 -25.5t-31 -93.5q-1 -18 -2 -48t0 -65q2 -71 18 -114t79 -61l104 -27q112 -29 165 -93.5t53 -193.5v-63.5t-2 -64.5q-4 -137 -68.5 -197
t-224.5 -60zM295 1280v134h133v-134h-133z" />
    <glyph glyph-name="uni1E62" unicode="&#x1e62;" horiz-adv-x="802" 
d="M403 -14q-161 0 -232.5 64t-76.5 213q-3 84 -2.5 156t4.5 160h153q-4 -89 -5 -171t5 -165q3 -67 37.5 -93.5t116.5 -26.5q77 0 110 26.5t38 93.5q6 65 5 143.5t-5 144.5q-2 80 -32 120t-98 57l-111 27q-123 30 -169 103.5t-50 223.5q-2 65 -1 135.5t2 142.5
q4 147 75.5 210.5t235.5 63.5q155 0 225 -63.5t76 -212.5q1 -62 0.5 -136.5t-2.5 -156.5h-154q3 91 3.5 166.5t-2.5 146.5q-3 67 -36 93.5t-112 26.5t-112.5 -26.5t-37.5 -93.5q-4 -76 -4 -147t4 -149q2 -87 23.5 -127t76.5 -53l105 -24q140 -32 194.5 -106.5t60.5 -220.5
q2 -64 1.5 -135.5t-2.5 -132.5q-6 -149 -77 -213t-230 -64zM332 -214v134h134v-134h-134z" />
    <glyph glyph-name="uni1E63" unicode="&#x1e63;" horiz-adv-x="724" 
d="M356 -15q-152 0 -212.5 61t-65.5 200q-1 46 -0.5 86.5t2.5 84.5h145q-3 -61 -2.5 -107t0.5 -80q1 -68 31.5 -94.5t101.5 -26.5q76 0 109 26.5t35 95.5q1 44 1 70t-1 64q-2 70 -20.5 104t-74.5 52l-110 31q-119 35 -167 97t-52 194q-1 62 0 109q4 140 67.5 201.5
t221.5 61.5q149 0 211.5 -60t67.5 -201q0 -22 -0.5 -77t-3.5 -91h-148q3 48 2.5 101t-1.5 86q-1 67 -28.5 92.5t-99.5 25.5t-100 -25.5t-31 -93.5q-1 -18 -2 -48t0 -65q2 -71 18 -114t79 -61l104 -27q112 -29 165 -93.5t53 -193.5v-63.5t-2 -64.5q-4 -137 -68.5 -197
t-224.5 -60zM293 -214v134h134v-134h-134z" />
    <glyph glyph-name="uni1E64" unicode="&#x1e64;" horiz-adv-x="802" 
d="M403 -14q-161 0 -232.5 64t-76.5 213q-3 84 -2.5 156t4.5 160h153q-4 -89 -5 -171t5 -165q3 -67 37.5 -93.5t116.5 -26.5q77 0 110 26.5t38 93.5q6 65 5 143.5t-5 144.5q-2 80 -32 120t-98 57l-111 27q-123 30 -169 103.5t-50 223.5q-2 65 -1 135.5t2 142.5
q4 147 75.5 210.5t235.5 63.5q155 0 225 -63.5t76 -212.5q1 -62 0.5 -136.5t-2.5 -156.5h-154q3 91 3.5 166.5t-2.5 146.5q-3 67 -36 93.5t-112 26.5t-112.5 -26.5t-37.5 -93.5q-4 -76 -4 -147t4 -149q2 -87 23.5 -127t76.5 -53l105 -24q140 -32 194.5 -106.5t60.5 -220.5
q2 -64 1.5 -135.5t-2.5 -132.5q-6 -149 -77 -213t-230 -64zM350 1680l167 234h125l-171 -234h-121zM334 1995v134h133v-134h-133z" />
    <glyph glyph-name="uni1E65" unicode="&#x1e65;" horiz-adv-x="724" 
d="M356 -15q-152 0 -212.5 61t-65.5 200q-1 46 -0.5 86.5t2.5 84.5h145q-3 -61 -2.5 -107t0.5 -80q1 -68 31.5 -94.5t101.5 -26.5q76 0 109 26.5t35 95.5q1 44 1 70t-1 64q-2 70 -20.5 104t-74.5 52l-110 31q-119 35 -167 97t-52 194q-1 62 0 109q4 140 67.5 201.5
t221.5 61.5q149 0 211.5 -60t67.5 -201q0 -22 -0.5 -77t-3.5 -91h-148q3 48 2.5 101t-1.5 86q-1 67 -28.5 92.5t-99.5 25.5t-100 -25.5t-31 -93.5q-1 -18 -2 -48t0 -65q2 -71 18 -114t79 -61l104 -27q112 -29 165 -93.5t53 -193.5v-63.5t-2 -64.5q-4 -137 -68.5 -197
t-224.5 -60zM311 1280l167 234h125l-171 -234h-121zM295 1595v134h133v-134h-133z" />
    <glyph glyph-name="uni1E66" unicode="&#x1e66;" horiz-adv-x="802" 
d="M403 -14q-161 0 -232.5 64t-76.5 213q-3 84 -2.5 156t4.5 160h153q-4 -89 -5 -171t5 -165q3 -67 37.5 -93.5t116.5 -26.5q77 0 110 26.5t38 93.5q6 65 5 143.5t-5 144.5q-2 80 -32 120t-98 57l-111 27q-123 30 -169 103.5t-50 223.5q-2 65 -1 135.5t2 142.5
q4 147 75.5 210.5t235.5 63.5q155 0 225 -63.5t76 -212.5q1 -62 0.5 -136.5t-2.5 -156.5h-154q3 91 3.5 166.5t-2.5 146.5q-3 67 -36 93.5t-112 26.5t-112.5 -26.5t-37.5 -93.5q-4 -76 -4 -147t4 -149q2 -87 23.5 -127t76.5 -53l105 -24q140 -32 194.5 -106.5t60.5 -220.5
q2 -64 1.5 -135.5t-2.5 -132.5q-6 -149 -77 -213t-230 -64zM352 1680l-151 234h113l89 -146l88 146h113l-152 -234h-100zM334 1995v134h133v-134h-133z" />
    <glyph glyph-name="uni1E67" unicode="&#x1e67;" horiz-adv-x="724" 
d="M356 -15q-152 0 -212.5 61t-65.5 200q-1 46 -0.5 86.5t2.5 84.5h145q-3 -61 -2.5 -107t0.5 -80q1 -68 31.5 -94.5t101.5 -26.5q76 0 109 26.5t35 95.5q1 44 1 70t-1 64q-2 70 -20.5 104t-74.5 52l-110 31q-119 35 -167 97t-52 194q-1 62 0 109q4 140 67.5 201.5
t221.5 61.5q149 0 211.5 -60t67.5 -201q0 -22 -0.5 -77t-3.5 -91h-148q3 48 2.5 101t-1.5 86q-1 67 -28.5 92.5t-99.5 25.5t-100 -25.5t-31 -93.5q-1 -18 -2 -48t0 -65q2 -71 18 -114t79 -61l104 -27q112 -29 165 -93.5t53 -193.5v-63.5t-2 -64.5q-4 -137 -68.5 -197
t-224.5 -60zM313 1280l-151 234h113l89 -146l88 146h113l-152 -234h-100zM295 1595v134h133v-134h-133z" />
    <glyph glyph-name="uni1E68" unicode="&#x1e68;" horiz-adv-x="802" 
d="M403 -14q-161 0 -232.5 64t-76.5 213q-3 84 -2.5 156t4.5 160h153q-4 -89 -5 -171t5 -165q3 -67 37.5 -93.5t116.5 -26.5q77 0 110 26.5t38 93.5q6 65 5 143.5t-5 144.5q-2 80 -32 120t-98 57l-111 27q-123 30 -169 103.5t-50 223.5q-2 65 -1 135.5t2 142.5
q4 147 75.5 210.5t235.5 63.5q155 0 225 -63.5t76 -212.5q1 -62 0.5 -136.5t-2.5 -156.5h-154q3 91 3.5 166.5t-2.5 146.5q-3 67 -36 93.5t-112 26.5t-112.5 -26.5t-37.5 -93.5q-4 -76 -4 -147t4 -149q2 -87 23.5 -127t76.5 -53l105 -24q140 -32 194.5 -106.5t60.5 -220.5
q2 -64 1.5 -135.5t-2.5 -132.5q-6 -149 -77 -213t-230 -64zM332 -214v134h134v-134h-134zM334 1680v134h133v-134h-133z" />
    <glyph glyph-name="uni1E69" unicode="&#x1e69;" horiz-adv-x="724" 
d="M356 -15q-152 0 -212.5 61t-65.5 200q-1 46 -0.5 86.5t2.5 84.5h145q-3 -61 -2.5 -107t0.5 -80q1 -68 31.5 -94.5t101.5 -26.5q76 0 109 26.5t35 95.5q1 44 1 70t-1 64q-2 70 -20.5 104t-74.5 52l-110 31q-119 35 -167 97t-52 194q-1 62 0 109q4 140 67.5 201.5
t221.5 61.5q149 0 211.5 -60t67.5 -201q0 -22 -0.5 -77t-3.5 -91h-148q3 48 2.5 101t-1.5 86q-1 67 -28.5 92.5t-99.5 25.5t-100 -25.5t-31 -93.5q-1 -18 -2 -48t0 -65q2 -71 18 -114t79 -61l104 -27q112 -29 165 -93.5t53 -193.5v-63.5t-2 -64.5q-4 -137 -68.5 -197
t-224.5 -60zM293 -214v134h134v-134h-134zM295 1280v134h133v-134h-133z" />
    <glyph glyph-name="uni1E6C" unicode="&#x1e6c;" horiz-adv-x="673" 
d="M258 0v1457h-244v143h645v-143h-243v-1457h-158zM268 -214v134h134v-134h-134z" />
    <glyph glyph-name="uni1E6D" unicode="&#x1e6d;" horiz-adv-x="540" 
d="M418 -15q-161 0 -226 59.5t-65 204.5l-1 827h-94v124h99v340h160v-340h208v-124h-213l1 -845q0 -72 26.5 -97.5t107.5 -25.5q30 0 51.5 1.5t50.5 4.5v-119q-24 -4 -50 -7t-55 -3zM275 -214v134h134v-134h-134z" />
    <glyph glyph-name="uni1E6E" unicode="&#x1e6e;" horiz-adv-x="673" 
d="M258 0v1457h-244v143h645v-143h-243v-1457h-158zM89 -80h495v-94h-495v94z" />
    <glyph glyph-name="uni1E6F" unicode="&#x1e6f;" horiz-adv-x="540" 
d="M418 -15q-161 0 -226 59.5t-65 204.5l-1 827h-94v124h99v340h160v-340h208v-124h-213l1 -845q0 -72 26.5 -97.5t107.5 -25.5q30 0 51.5 1.5t50.5 4.5v-119q-24 -4 -50 -7t-55 -3zM96 -80h495v-94h-495v94z" />
    <glyph glyph-name="uni1E78" unicode="&#x1e78;" horiz-adv-x="827" 
d="M414 -14q-163 0 -234 63.5t-73 208.5q-4 339 -3.5 671.5t3.5 670.5h159q-4 -338 -3.5 -677t1.5 -677q0 -67 33.5 -94t116.5 -27q82 0 115 27t33 94q1 338 2.5 677t-2.5 677h158q4 -338 4 -670.5t-4 -671.5q-2 -145 -73 -208.5t-233 -63.5zM604 1853h77
q-2 -84 -48.5 -124.5t-117.5 -38.5q-47 2 -78 21t-57.5 39t-61.5 23q-33 4 -60 -12.5t-33 -59.5h-77q7 92 56 131.5t123 33.5q45 -4 75 -23.5t57 -38.5t61 -21q37 -2 60 18.5t24 51.5zM360 1942l167 234h125l-171 -234h-121z" />
    <glyph glyph-name="uni1E79" unicode="&#x1e79;" horiz-adv-x="829" 
d="M326 -15q-110 0 -166.5 60t-56.5 195v960h161l1 -973q0 -64 26.5 -92t86.5 -28q59 0 108 30.5t70 86.5v976h161v-1200h-161v111h-28q-67 -126 -202 -126zM598 1453h77q-2 -84 -48.5 -124.5t-117.5 -38.5q-47 2 -78 21t-57.5 39t-61.5 23q-33 4 -60 -12.5t-33 -59.5h-77
q7 92 56 131.5t123 33.5q45 -4 75 -23.5t57 -38.5t61 -21q37 -2 60 18.5t24 51.5zM354 1542l167 234h125l-171 -234h-121z" />
    <glyph glyph-name="uni1E7A" unicode="&#x1e7a;" horiz-adv-x="827" 
d="M414 -14q-163 0 -234 63.5t-73 208.5q-4 339 -3.5 671.5t3.5 670.5h159q-4 -338 -3.5 -677t1.5 -677q0 -67 33.5 -94t116.5 -27q82 0 115 27t33 94q1 338 2.5 677t-2.5 677h158q4 -338 4 -670.5t-4 -671.5q-2 -145 -73 -208.5t-233 -63.5zM167 1777h495v-94h-495v94z
M463 1887v134h134v-134h-134zM229 1887v134h134v-134h-134z" />
    <glyph glyph-name="uni1E7B" unicode="&#x1e7b;" horiz-adv-x="829" 
d="M326 -15q-110 0 -166.5 60t-56.5 195v960h161l1 -973q0 -64 26.5 -92t86.5 -28q59 0 108 30.5t70 86.5v976h161v-1200h-161v111h-28q-67 -126 -202 -126zM161 1377h495v-94h-495v94zM457 1487v134h134v-134h-134zM223 1487v134h134v-134h-134z" />
    <glyph glyph-name="Wgrave" unicode="&#x1e80;" horiz-adv-x="1296" 
d="M179 0l-109 1600h160l34 -602l42 -854h79l44 854l73 592h290l73 -592l44 -854h79l44 854l36 602h158l-111 -1600h-324l-53 525l-52 926h-76l-53 -926l-54 -525h-324zM549 1680l-163 234h127l160 -234h-124z" />
    <glyph glyph-name="wgrave" unicode="&#x1e81;" horiz-adv-x="1139" 
d="M183 0l-143 1200h162l61 -605l36 -473h39l37 473l62 600h266l60 -600l36 -473h40l39 473l61 605h160l-145 -1200h-273l-46 462l-46 611h-40l-47 -611l-45 -462h-274zM495 1280l-163 234h127l160 -234h-124z" />
    <glyph glyph-name="Wacute" unicode="&#x1e82;" horiz-adv-x="1296" 
d="M179 0l-109 1600h160l34 -602l42 -854h79l44 854l73 592h290l73 -592l44 -854h79l44 854l36 602h158l-111 -1600h-324l-53 525l-52 926h-76l-53 -926l-54 -525h-324zM574 1680l167 234h125l-171 -234h-121z" />
    <glyph glyph-name="wacute" unicode="&#x1e83;" horiz-adv-x="1139" 
d="M183 0l-143 1200h162l61 -605l36 -473h39l37 473l62 600h266l60 -600l36 -473h40l39 473l61 605h160l-145 -1200h-273l-46 462l-46 611h-40l-47 -611l-45 -462h-274zM520 1280l167 234h125l-171 -234h-121z" />
    <glyph glyph-name="Wdieresis" unicode="&#x1e84;" horiz-adv-x="1296" 
d="M179 0l-109 1600h160l34 -602l42 -854h79l44 854l73 592h290l73 -592l44 -854h79l44 854l36 602h158l-111 -1600h-324l-53 525l-52 926h-76l-53 -926l-54 -525h-324zM674 1710v134h134v-134h-134zM440 1710v134h134v-134h-134z" />
    <glyph glyph-name="wdieresis" unicode="&#x1e85;" horiz-adv-x="1139" 
d="M183 0l-143 1200h162l61 -605l36 -473h39l37 473l62 600h266l60 -600l36 -473h40l39 473l61 605h160l-145 -1200h-273l-46 462l-46 611h-40l-47 -611l-45 -462h-274zM620 1310v134h134v-134h-134zM386 1310v134h134v-134h-134z" />
    <glyph glyph-name="uni1E8E" unicode="&#x1e8e;" horiz-adv-x="729" 
d="M284 0v555h-51l-192 1045h161l78 -452l54 -457h61l52 457l78 452h163l-194 -1045h-51v-555h-159zM297 1680v134h133v-134h-133z" />
    <glyph glyph-name="uni1E8F" unicode="&#x1e8f;" horiz-adv-x="723" 
d="M186 -410q-29 0 -69.5 4t-71.5 8v123q26 -3 65.5 -5.5t71.5 -2.5q82 0 111.5 26.5t40.5 96.5l28 160h-121l-187 1200h166l76 -578l56 -500h46l58 500l66 578h166l-194 -1350q-13 -88 -44 -145.5t-93.5 -86t-170.5 -28.5zM301 1280v134h133v-134h-133z" />
    <glyph glyph-name="uni1E92" unicode="&#x1e92;" horiz-adv-x="641" 
d="M36 0v132l401 1325h-378v143h546v-136l-407 -1321h371v-143h-533zM231 -214v134h134v-134h-134z" />
    <glyph glyph-name="uni1E93" unicode="&#x1e93;" horiz-adv-x="641" 
d="M44 0v102l391 976l-382 -3v122l556 3v-106l-397 -972h383v-122h-551zM259 -214v134h134v-134h-134z" />
    <glyph glyph-name="uni1E97" unicode="&#x1e97;" horiz-adv-x="540" 
d="M418 -15q-161 0 -226 59.5t-65 204.5l-1 827h-94v124h99v340h160v-340h208v-124h-213l1 -845q0 -72 26.5 -97.5t107.5 -25.5q30 0 51.5 1.5t50.5 4.5v-119q-24 -4 -50 -7t-55 -3zM303 1687v134h134v-134h-134zM69 1687v134h134v-134h-134z" />
    <glyph glyph-name="uni1E9E" unicode="&#x1e9e;" horiz-adv-x="794" 
d="M80 0v1342q0 138 68.5 199t221.5 61h326v-122l-191 -624q101 -22 152 -91t55 -195q2 -53 2 -94.5t-0.5 -85t-1.5 -101.5q-6 -149 -74 -219t-225 -70h-114v136h114q76 0 106 33t34 100q4 84 4 151t-4 150q-4 77 -29 112.5t-92 35.5h-84l-1 131l176 617h-153
q-72 0 -102 -23.5t-30 -80.5v-1362h-158z" />
    <glyph glyph-name="uni1EA0" unicode="&#x1ea0;" horiz-adv-x="777" 
d="M53 0l172 1600h327l171 -1600h-162l-41 452h-264l-40 -452h-163zM270 595h237l-31 339l-44 523h-86l-45 -524zM320 -214v134h134v-134h-134z" />
    <glyph glyph-name="uni1EA1" unicode="&#x1ea1;" horiz-adv-x="779" 
d="M317 -13q-226 0 -242 236q-2 25 -2.5 49.5t0.5 49.5q7 108 56.5 183.5t180.5 138.5q47 22 100.5 45t106.5 41v238q0 65 -27.5 94.5t-98.5 29.5q-60 0 -96 -25t-39 -89q-3 -45 -2.5 -106t2.5 -89h-156q-2 43 -3 88t1 87q6 132 72.5 194.5t227.5 62.5q160 0 218 -65.5
t58 -213.5l-1 -936h-159v111h-22q-26 -58 -61.5 -91t-113.5 -33zM359 107q113 0 156 113l2 375q-41 -13 -82.5 -31.5t-93.5 -50.5q-65 -38 -86 -84t-22 -107q-1 -28 -0.5 -48.5t1.5 -41.5q5 -58 37 -91.5t88 -33.5zM282 -214v134h134v-134h-134z" />
    <glyph glyph-name="uni1EA2" unicode="&#x1ea2;" horiz-adv-x="777" 
d="M53 0l172 1600h327l171 -1600h-162l-41 452h-264l-40 -452h-163zM270 595h237l-31 339l-44 523h-86l-45 -524zM389 1699l10 61q5 42 -11 56.5t-61 14.5h-54v82h54q96 0 135 -35t27 -118l-10 -61h-90z" />
    <glyph glyph-name="uni1EA3" unicode="&#x1ea3;" horiz-adv-x="779" 
d="M317 -13q-226 0 -242 236q-2 25 -2.5 49.5t0.5 49.5q7 108 56.5 183.5t180.5 138.5q47 22 100.5 45t106.5 41v238q0 65 -27.5 94.5t-98.5 29.5q-60 0 -96 -25t-39 -89q-3 -45 -2.5 -106t2.5 -89h-156q-2 43 -3 88t1 87q6 132 72.5 194.5t227.5 62.5q160 0 218 -65.5
t58 -213.5l-1 -936h-159v111h-22q-26 -58 -61.5 -91t-113.5 -33zM359 107q113 0 156 113l2 375q-41 -13 -82.5 -31.5t-93.5 -50.5q-65 -38 -86 -84t-22 -107q-1 -28 -0.5 -48.5t1.5 -41.5q5 -58 37 -91.5t88 -33.5zM353 1303l10 61q5 42 -11 56.5t-61 14.5h-54v82h54
q96 0 135 -35t27 -118l-10 -61h-90z" />
    <glyph glyph-name="uni1EA4" unicode="&#x1ea4;" horiz-adv-x="777" 
d="M53 0l172 1600h327l171 -1600h-162l-41 452h-264l-40 -452h-163zM270 595h237l-31 339l-44 523h-86l-45 -524zM182 1681l151 234h107l152 -234h-117l-88 143l-87 -143h-118zM337 1995l167 234h125l-171 -234h-121z" />
    <glyph glyph-name="uni1EA5" unicode="&#x1ea5;" horiz-adv-x="779" 
d="M317 -13q-226 0 -242 236q-2 25 -2.5 49.5t0.5 49.5q7 108 56.5 183.5t180.5 138.5q47 22 100.5 45t106.5 41v238q0 65 -27.5 94.5t-98.5 29.5q-60 0 -96 -25t-39 -89q-3 -45 -2.5 -106t2.5 -89h-156q-2 43 -3 88t1 87q6 132 72.5 194.5t227.5 62.5q160 0 218 -65.5
t58 -213.5l-1 -936h-159v111h-22q-26 -58 -61.5 -91t-113.5 -33zM359 107q113 0 156 113l2 375q-41 -13 -82.5 -31.5t-93.5 -50.5q-65 -38 -86 -84t-22 -107q-1 -28 -0.5 -48.5t1.5 -41.5q5 -58 37 -91.5t88 -33.5zM166 1281l151 234h107l152 -234h-117l-88 143l-87 -143
h-118zM321 1595l167 234h125l-171 -234h-121z" />
    <glyph glyph-name="uni1EA6" unicode="&#x1ea6;" horiz-adv-x="777" 
d="M53 0l172 1600h327l171 -1600h-162l-41 452h-264l-40 -452h-163zM270 595h237l-31 339l-44 523h-86l-45 -524zM182 1681l151 234h107l152 -234h-117l-88 143l-87 -143h-118zM312 1995l-163 234h127l160 -234h-124z" />
    <glyph glyph-name="uni1EA7" unicode="&#x1ea7;" horiz-adv-x="779" 
d="M317 -13q-226 0 -242 236q-2 25 -2.5 49.5t0.5 49.5q7 108 56.5 183.5t180.5 138.5q47 22 100.5 45t106.5 41v238q0 65 -27.5 94.5t-98.5 29.5q-60 0 -96 -25t-39 -89q-3 -45 -2.5 -106t2.5 -89h-156q-2 43 -3 88t1 87q6 132 72.5 194.5t227.5 62.5q160 0 218 -65.5
t58 -213.5l-1 -936h-159v111h-22q-26 -58 -61.5 -91t-113.5 -33zM359 107q113 0 156 113l2 375q-41 -13 -82.5 -31.5t-93.5 -50.5q-65 -38 -86 -84t-22 -107q-1 -28 -0.5 -48.5t1.5 -41.5q5 -58 37 -91.5t88 -33.5zM166 1281l151 234h107l152 -234h-117l-88 143l-87 -143
h-118zM296 1595l-163 234h127l160 -234h-124z" />
    <glyph glyph-name="uni1EA8" unicode="&#x1ea8;" horiz-adv-x="777" 
d="M53 0l172 1600h327l171 -1600h-162l-41 452h-264l-40 -452h-163zM270 595h237l-31 339l-44 523h-86l-45 -524zM182 1681l151 234h107l152 -234h-117l-88 143l-87 -143h-118zM547 1905l10 61q5 42 -11 56.5t-61 14.5h-54v82h54q96 0 135 -35t27 -118l-10 -61h-90z" />
    <glyph glyph-name="uni1EA9" unicode="&#x1ea9;" horiz-adv-x="779" 
d="M317 -13q-226 0 -242 236q-2 25 -2.5 49.5t0.5 49.5q7 108 56.5 183.5t180.5 138.5q47 22 100.5 45t106.5 41v238q0 65 -27.5 94.5t-98.5 29.5q-60 0 -96 -25t-39 -89q-3 -45 -2.5 -106t2.5 -89h-156q-2 43 -3 88t1 87q6 132 72.5 194.5t227.5 62.5q160 0 218 -65.5
t58 -213.5l-1 -936h-159v111h-22q-26 -58 -61.5 -91t-113.5 -33zM359 107q113 0 156 113l2 375q-41 -13 -82.5 -31.5t-93.5 -50.5q-65 -38 -86 -84t-22 -107q-1 -28 -0.5 -48.5t1.5 -41.5q5 -58 37 -91.5t88 -33.5zM166 1281l151 234h107l152 -234h-117l-88 143l-87 -143
h-118zM531 1505l10 61q5 42 -11 56.5t-61 14.5h-54v82h54q96 0 135 -35t27 -118l-10 -61h-90z" />
    <glyph glyph-name="uni1EAA" unicode="&#x1eaa;" horiz-adv-x="777" 
d="M53 0l172 1600h327l171 -1600h-162l-41 452h-264l-40 -452h-163zM270 595h237l-31 339l-44 523h-86l-45 -524zM182 1681l151 234h107l152 -234h-117l-88 143l-87 -143h-118zM578 2168h77q-2 -84 -48.5 -124.5t-117.5 -38.5q-47 2 -78 21t-57.5 39t-61.5 23
q-33 4 -60 -12.5t-33 -59.5h-77q7 92 56 131.5t123 33.5q45 -4 75 -23.5t57 -38.5t61 -21q37 -2 60 18.5t24 51.5z" />
    <glyph glyph-name="uni1EAB" unicode="&#x1eab;" horiz-adv-x="779" 
d="M317 -13q-226 0 -242 236q-2 25 -2.5 49.5t0.5 49.5q7 108 56.5 183.5t180.5 138.5q47 22 100.5 45t106.5 41v238q0 65 -27.5 94.5t-98.5 29.5q-60 0 -96 -25t-39 -89q-3 -45 -2.5 -106t2.5 -89h-156q-2 43 -3 88t1 87q6 132 72.5 194.5t227.5 62.5q160 0 218 -65.5
t58 -213.5l-1 -936h-159v111h-22q-26 -58 -61.5 -91t-113.5 -33zM359 107q113 0 156 113l2 375q-41 -13 -82.5 -31.5t-93.5 -50.5q-65 -38 -86 -84t-22 -107q-1 -28 -0.5 -48.5t1.5 -41.5q5 -58 37 -91.5t88 -33.5zM166 1281l151 234h107l152 -234h-117l-88 143l-87 -143
h-118zM562 1768h77q-2 -84 -48.5 -124.5t-117.5 -38.5q-47 2 -78 21t-57.5 39t-61.5 23q-33 4 -60 -12.5t-33 -59.5h-77q7 92 56 131.5t123 33.5q45 -4 75 -23.5t57 -38.5t61 -21q37 -2 60 18.5t24 51.5z" />
    <glyph glyph-name="uni1EAC" unicode="&#x1eac;" horiz-adv-x="777" 
d="M53 0l172 1600h327l171 -1600h-162l-41 452h-264l-40 -452h-163zM270 595h237l-31 339l-44 523h-86l-45 -524zM320 -214v134h134v-134h-134zM182 1681l151 234h107l152 -234h-117l-88 143l-87 -143h-118z" />
    <glyph glyph-name="uni1EAD" unicode="&#x1ead;" horiz-adv-x="779" 
d="M317 -13q-226 0 -242 236q-2 25 -2.5 49.5t0.5 49.5q7 108 56.5 183.5t180.5 138.5q47 22 100.5 45t106.5 41v238q0 65 -27.5 94.5t-98.5 29.5q-60 0 -96 -25t-39 -89q-3 -45 -2.5 -106t2.5 -89h-156q-2 43 -3 88t1 87q6 132 72.5 194.5t227.5 62.5q160 0 218 -65.5
t58 -213.5l-1 -936h-159v111h-22q-26 -58 -61.5 -91t-113.5 -33zM359 107q113 0 156 113l2 375q-41 -13 -82.5 -31.5t-93.5 -50.5q-65 -38 -86 -84t-22 -107q-1 -28 -0.5 -48.5t1.5 -41.5q5 -58 37 -91.5t88 -33.5zM282 -214v134h134v-134h-134zM166 1281l151 234h107
l152 -234h-117l-88 143l-87 -143h-118z" />
    <glyph glyph-name="uni1EAE" unicode="&#x1eae;" horiz-adv-x="777" 
d="M53 0l172 1600h327l171 -1600h-162l-41 452h-264l-40 -452h-163zM270 595h237l-31 339l-44 523h-86l-45 -524zM388 1670q-128 0 -187.5 59.5t-64.5 184.5h109q1 -72 33 -112t110 -40q142 0 143 152h109q-6 -124 -65.5 -184t-186.5 -60zM337 1970l167 234h125l-171 -234
h-121z" />
    <glyph glyph-name="uni1EAF" unicode="&#x1eaf;" horiz-adv-x="779" 
d="M317 -13q-226 0 -242 236q-2 25 -2.5 49.5t0.5 49.5q7 108 56.5 183.5t180.5 138.5q47 22 100.5 45t106.5 41v238q0 65 -27.5 94.5t-98.5 29.5q-60 0 -96 -25t-39 -89q-3 -45 -2.5 -106t2.5 -89h-156q-2 43 -3 88t1 87q6 132 72.5 194.5t227.5 62.5q160 0 218 -65.5
t58 -213.5l-1 -936h-159v111h-22q-26 -58 -61.5 -91t-113.5 -33zM359 107q113 0 156 113l2 375q-41 -13 -82.5 -31.5t-93.5 -50.5q-65 -38 -86 -84t-22 -107q-1 -28 -0.5 -48.5t1.5 -41.5q5 -58 37 -91.5t88 -33.5zM372 1270q-128 0 -187.5 59.5t-64.5 184.5h109
q1 -72 33 -112t110 -40q142 0 143 152h109q-6 -124 -65.5 -184t-186.5 -60zM321 1570l167 234h125l-171 -234h-121z" />
    <glyph glyph-name="uni1EB0" unicode="&#x1eb0;" horiz-adv-x="777" 
d="M53 0l172 1600h327l171 -1600h-162l-41 452h-264l-40 -452h-163zM270 595h237l-31 339l-44 523h-86l-45 -524zM388 1670q-128 0 -187.5 59.5t-64.5 184.5h109q1 -72 33 -112t110 -40q142 0 143 152h109q-6 -124 -65.5 -184t-186.5 -60zM313 1970l-163 234h127l160 -234
h-124z" />
    <glyph glyph-name="uni1EB1" unicode="&#x1eb1;" horiz-adv-x="779" 
d="M317 -13q-226 0 -242 236q-2 25 -2.5 49.5t0.5 49.5q7 108 56.5 183.5t180.5 138.5q47 22 100.5 45t106.5 41v238q0 65 -27.5 94.5t-98.5 29.5q-60 0 -96 -25t-39 -89q-3 -45 -2.5 -106t2.5 -89h-156q-2 43 -3 88t1 87q6 132 72.5 194.5t227.5 62.5q160 0 218 -65.5
t58 -213.5l-1 -936h-159v111h-22q-26 -58 -61.5 -91t-113.5 -33zM359 107q113 0 156 113l2 375q-41 -13 -82.5 -31.5t-93.5 -50.5q-65 -38 -86 -84t-22 -107q-1 -28 -0.5 -48.5t1.5 -41.5q5 -58 37 -91.5t88 -33.5zM372 1270q-128 0 -187.5 59.5t-64.5 184.5h109
q1 -72 33 -112t110 -40q142 0 143 152h109q-6 -124 -65.5 -184t-186.5 -60zM297 1570l-163 234h127l160 -234h-124z" />
    <glyph glyph-name="uni1EB2" unicode="&#x1eb2;" horiz-adv-x="777" 
d="M53 0l172 1600h327l171 -1600h-162l-41 452h-264l-40 -452h-163zM270 595h237l-31 339l-44 523h-86l-45 -524zM388 1670q-128 0 -187.5 59.5t-64.5 184.5h109q1 -72 33 -112t110 -40q142 0 143 152h109q-6 -124 -65.5 -184t-186.5 -60zM377 1941l10 61q5 42 -11 56.5
t-61 14.5h-54v82h54q96 0 135 -35t27 -118l-10 -61h-90z" />
    <glyph glyph-name="uni1EB3" unicode="&#x1eb3;" horiz-adv-x="779" 
d="M317 -13q-226 0 -242 236q-2 25 -2.5 49.5t0.5 49.5q7 108 56.5 183.5t180.5 138.5q47 22 100.5 45t106.5 41v238q0 65 -27.5 94.5t-98.5 29.5q-60 0 -96 -25t-39 -89q-3 -45 -2.5 -106t2.5 -89h-156q-2 43 -3 88t1 87q6 132 72.5 194.5t227.5 62.5q160 0 218 -65.5
t58 -213.5l-1 -936h-159v111h-22q-26 -58 -61.5 -91t-113.5 -33zM359 107q113 0 156 113l2 375q-41 -13 -82.5 -31.5t-93.5 -50.5q-65 -38 -86 -84t-22 -107q-1 -28 -0.5 -48.5t1.5 -41.5q5 -58 37 -91.5t88 -33.5zM372 1270q-128 0 -187.5 59.5t-64.5 184.5h109
q1 -72 33 -112t110 -40q142 0 143 152h109q-6 -124 -65.5 -184t-186.5 -60zM361 1541l10 61q5 42 -11 56.5t-61 14.5h-54v82h54q96 0 135 -35t27 -118l-10 -61h-90z" />
    <glyph glyph-name="uni1EB4" unicode="&#x1eb4;" horiz-adv-x="777" 
d="M53 0l172 1600h327l171 -1600h-162l-41 452h-264l-40 -452h-163zM270 595h237l-31 339l-44 523h-86l-45 -524zM388 1670q-128 0 -187.5 59.5t-64.5 184.5h109q1 -72 33 -112t110 -40q142 0 143 152h109q-6 -124 -65.5 -184t-186.5 -60zM579 2143h77q-2 -84 -48.5 -124.5
t-117.5 -38.5q-47 2 -78 21t-57.5 39t-61.5 23q-33 4 -60 -12.5t-33 -59.5h-77q7 92 56 131.5t123 33.5q45 -4 75 -23.5t57 -38.5t61 -21q37 -2 60 18.5t24 51.5z" />
    <glyph glyph-name="uni1EB5" unicode="&#x1eb5;" horiz-adv-x="779" 
d="M317 -13q-226 0 -242 236q-2 25 -2.5 49.5t0.5 49.5q7 108 56.5 183.5t180.5 138.5q47 22 100.5 45t106.5 41v238q0 65 -27.5 94.5t-98.5 29.5q-60 0 -96 -25t-39 -89q-3 -45 -2.5 -106t2.5 -89h-156q-2 43 -3 88t1 87q6 132 72.5 194.5t227.5 62.5q160 0 218 -65.5
t58 -213.5l-1 -936h-159v111h-22q-26 -58 -61.5 -91t-113.5 -33zM359 107q113 0 156 113l2 375q-41 -13 -82.5 -31.5t-93.5 -50.5q-65 -38 -86 -84t-22 -107q-1 -28 -0.5 -48.5t1.5 -41.5q5 -58 37 -91.5t88 -33.5zM372 1270q-128 0 -187.5 59.5t-64.5 184.5h109
q1 -72 33 -112t110 -40q142 0 143 152h109q-6 -124 -65.5 -184t-186.5 -60zM563 1743h77q-2 -84 -48.5 -124.5t-117.5 -38.5q-47 2 -78 21t-57.5 39t-61.5 23q-33 4 -60 -12.5t-33 -59.5h-77q7 92 56 131.5t123 33.5q45 -4 75 -23.5t57 -38.5t61 -21q37 -2 60 18.5t24 51.5z
" />
    <glyph glyph-name="uni1EB6" unicode="&#x1eb6;" horiz-adv-x="777" 
d="M53 0l172 1600h327l171 -1600h-162l-41 452h-264l-40 -452h-163zM270 595h237l-31 339l-44 523h-86l-45 -524zM320 -214v134h134v-134h-134zM388 1670q-128 0 -187.5 59.5t-64.5 184.5h109q1 -72 33 -112t110 -40q142 0 143 152h109q-6 -124 -65.5 -184t-186.5 -60z" />
    <glyph glyph-name="uni1EB7" unicode="&#x1eb7;" horiz-adv-x="779" 
d="M317 -13q-226 0 -242 236q-2 25 -2.5 49.5t0.5 49.5q7 108 56.5 183.5t180.5 138.5q47 22 100.5 45t106.5 41v238q0 65 -27.5 94.5t-98.5 29.5q-60 0 -96 -25t-39 -89q-3 -45 -2.5 -106t2.5 -89h-156q-2 43 -3 88t1 87q6 132 72.5 194.5t227.5 62.5q160 0 218 -65.5
t58 -213.5l-1 -936h-159v111h-22q-26 -58 -61.5 -91t-113.5 -33zM359 107q113 0 156 113l2 375q-41 -13 -82.5 -31.5t-93.5 -50.5q-65 -38 -86 -84t-22 -107q-1 -28 -0.5 -48.5t1.5 -41.5q5 -58 37 -91.5t88 -33.5zM282 -214v134h134v-134h-134zM372 1270
q-128 0 -187.5 59.5t-64.5 184.5h109q1 -72 33 -112t110 -40q142 0 143 152h109q-6 -124 -65.5 -184t-186.5 -60z" />
    <glyph glyph-name="uni1EB8" unicode="&#x1eb8;" horiz-adv-x="708" 
d="M121 0v1600h531v-143h-372v-581h352v-142h-352v-591h372v-143h-531zM338 -214v134h134v-134h-134z" />
    <glyph glyph-name="uni1EB9" unicode="&#x1eb9;" horiz-adv-x="768" 
d="M396 -15q-159 0 -227 61.5t-75 200.5q-3 95 -4.5 220t-0.5 253t5 231q7 142 77.5 203t222.5 61q153 0 220 -62t73 -195q1 -23 2 -87.5t0 -146t-4 -155.5h-435q0 -83 1 -167.5t3 -171.5q1 -68 34.5 -94t104.5 -26t101.5 26t33.5 94q2 30 1.5 82t-3.5 108h159q2 -34 3 -88
t-1 -85q-7 -141 -72.5 -201.5t-218.5 -60.5zM250 691h280q1 56 1 114t-0.5 103t-2.5 63q-4 68 -36 94.5t-98 26.5q-76 0 -107.5 -30t-32.5 -91q-2 -69 -3 -139.5t-1 -140.5zM321 -214v134h134v-134h-134z" />
    <glyph glyph-name="uni1EBA" unicode="&#x1eba;" horiz-adv-x="708" 
d="M121 0v1600h531v-143h-372v-581h352v-142h-352v-591h372v-143h-531zM368 1696l10 61q5 42 -11 56.5t-61 14.5h-54v82h54q96 0 135 -35t27 -118l-10 -61h-90z" />
    <glyph glyph-name="uni1EBB" unicode="&#x1ebb;" horiz-adv-x="768" 
d="M396 -15q-159 0 -227 61.5t-75 200.5q-3 95 -4.5 220t-0.5 253t5 231q7 142 77.5 203t222.5 61q153 0 220 -62t73 -195q1 -23 2 -87.5t0 -146t-4 -155.5h-435q0 -83 1 -167.5t3 -171.5q1 -68 34.5 -94t104.5 -26t101.5 26t33.5 94q2 30 1.5 82t-3.5 108h159q2 -34 3 -88
t-1 -85q-7 -141 -72.5 -201.5t-218.5 -60.5zM250 691h280q1 56 1 114t-0.5 103t-2.5 63q-4 68 -36 94.5t-98 26.5q-76 0 -107.5 -30t-32.5 -91q-2 -69 -3 -139.5t-1 -140.5zM393 1301l10 61q5 42 -11 56.5t-61 14.5h-54v82h54q96 0 135 -35t27 -118l-10 -61h-90z" />
    <glyph glyph-name="uni1EBC" unicode="&#x1ebc;" horiz-adv-x="708" 
d="M121 0v1600h531v-143h-372v-581h352v-142h-352v-591h372v-143h-531zM573 1850h77q-2 -84 -48.5 -124.5t-117.5 -38.5q-47 2 -78 21t-57.5 39t-61.5 23q-33 4 -60 -12.5t-33 -59.5h-77q7 92 56 131.5t123 33.5q45 -4 75 -23.5t57 -38.5t61 -21q37 -2 60 18.5t24 51.5z" />
    <glyph glyph-name="uni1EBD" unicode="&#x1ebd;" horiz-adv-x="768" 
d="M396 -15q-159 0 -227 61.5t-75 200.5q-3 95 -4.5 220t-0.5 253t5 231q7 142 77.5 203t222.5 61q153 0 220 -62t73 -195q1 -23 2 -87.5t0 -146t-4 -155.5h-435q0 -83 1 -167.5t3 -171.5q1 -68 34.5 -94t104.5 -26t101.5 26t33.5 94q2 30 1.5 82t-3.5 108h159q2 -34 3 -88
t-1 -85q-7 -141 -72.5 -201.5t-218.5 -60.5zM250 691h280q1 56 1 114t-0.5 103t-2.5 63q-4 68 -36 94.5t-98 26.5q-76 0 -107.5 -30t-32.5 -91q-2 -69 -3 -139.5t-1 -140.5zM580 1453h77q-2 -84 -48.5 -124.5t-117.5 -38.5q-47 2 -78 21t-57.5 39t-61.5 23q-33 4 -60 -12.5
t-33 -59.5h-77q7 92 56 131.5t123 33.5q45 -4 75 -23.5t57 -38.5t61 -21q37 -2 60 18.5t24 51.5z" />
    <glyph glyph-name="uni1EBE" unicode="&#x1ebe;" horiz-adv-x="708" 
d="M121 0v1600h531v-143h-372v-581h352v-142h-352v-591h372v-143h-531zM176 1678l151 234h107l152 -234h-117l-88 143l-87 -143h-118zM331 1992l167 234h125l-171 -234h-121z" />
    <glyph glyph-name="uni1EBF" unicode="&#x1ebf;" horiz-adv-x="768" 
d="M396 -15q-159 0 -227 61.5t-75 200.5q-3 95 -4.5 220t-0.5 253t5 231q7 142 77.5 203t222.5 61q153 0 220 -62t73 -195q1 -23 2 -87.5t0 -146t-4 -155.5h-435q0 -83 1 -167.5t3 -171.5q1 -68 34.5 -94t104.5 -26t101.5 26t33.5 94q2 30 1.5 82t-3.5 108h159q2 -34 3 -88
t-1 -85q-7 -141 -72.5 -201.5t-218.5 -60.5zM250 691h280q1 56 1 114t-0.5 103t-2.5 63q-4 68 -36 94.5t-98 26.5q-76 0 -107.5 -30t-32.5 -91q-2 -69 -3 -139.5t-1 -140.5zM183 1281l151 234h107l152 -234h-117l-88 143l-87 -143h-118zM338 1595l167 234h125l-171 -234
h-121z" />
    <glyph glyph-name="uni1EC0" unicode="&#x1ec0;" horiz-adv-x="708" 
d="M121 0v1600h531v-143h-372v-581h352v-142h-352v-591h372v-143h-531zM176 1678l151 234h107l152 -234h-117l-88 143l-87 -143h-118zM306 1992l-163 234h127l160 -234h-124z" />
    <glyph glyph-name="uni1EC1" unicode="&#x1ec1;" horiz-adv-x="768" 
d="M396 -15q-159 0 -227 61.5t-75 200.5q-3 95 -4.5 220t-0.5 253t5 231q7 142 77.5 203t222.5 61q153 0 220 -62t73 -195q1 -23 2 -87.5t0 -146t-4 -155.5h-435q0 -83 1 -167.5t3 -171.5q1 -68 34.5 -94t104.5 -26t101.5 26t33.5 94q2 30 1.5 82t-3.5 108h159q2 -34 3 -88
t-1 -85q-7 -141 -72.5 -201.5t-218.5 -60.5zM250 691h280q1 56 1 114t-0.5 103t-2.5 63q-4 68 -36 94.5t-98 26.5q-76 0 -107.5 -30t-32.5 -91q-2 -69 -3 -139.5t-1 -140.5zM183 1281l151 234h107l152 -234h-117l-88 143l-87 -143h-118zM313 1595l-163 234h127l160 -234
h-124z" />
    <glyph glyph-name="uni1EC2" unicode="&#x1ec2;" horiz-adv-x="708" 
d="M121 0v1600h531v-143h-372v-581h352v-142h-352v-591h372v-143h-531zM176 1678l151 234h107l152 -234h-117l-88 143l-87 -143h-118zM541 1902l10 61q5 42 -11 56.5t-61 14.5h-54v82h54q96 0 135 -35t27 -118l-10 -61h-90z" />
    <glyph glyph-name="uni1EC3" unicode="&#x1ec3;" horiz-adv-x="768" 
d="M396 -15q-159 0 -227 61.5t-75 200.5q-3 95 -4.5 220t-0.5 253t5 231q7 142 77.5 203t222.5 61q153 0 220 -62t73 -195q1 -23 2 -87.5t0 -146t-4 -155.5h-435q0 -83 1 -167.5t3 -171.5q1 -68 34.5 -94t104.5 -26t101.5 26t33.5 94q2 30 1.5 82t-3.5 108h159q2 -34 3 -88
t-1 -85q-7 -141 -72.5 -201.5t-218.5 -60.5zM250 691h280q1 56 1 114t-0.5 103t-2.5 63q-4 68 -36 94.5t-98 26.5q-76 0 -107.5 -30t-32.5 -91q-2 -69 -3 -139.5t-1 -140.5zM183 1281l151 234h107l152 -234h-117l-88 143l-87 -143h-118zM548 1505l10 61q5 42 -11 56.5
t-61 14.5h-54v82h54q96 0 135 -35t27 -118l-10 -61h-90z" />
    <glyph glyph-name="uni1EC4" unicode="&#x1ec4;" horiz-adv-x="708" 
d="M121 0v1600h531v-143h-372v-581h352v-142h-352v-591h372v-143h-531zM176 1678l151 234h107l152 -234h-117l-88 143l-87 -143h-118zM572 2165h77q-2 -84 -48.5 -124.5t-117.5 -38.5q-47 2 -78 21t-57.5 39t-61.5 23q-33 4 -60 -12.5t-33 -59.5h-77q7 92 56 131.5t123 33.5
q45 -4 75 -23.5t57 -38.5t61 -21q37 -2 60 18.5t24 51.5z" />
    <glyph glyph-name="uni1EC5" unicode="&#x1ec5;" horiz-adv-x="768" 
d="M396 -15q-159 0 -227 61.5t-75 200.5q-3 95 -4.5 220t-0.5 253t5 231q7 142 77.5 203t222.5 61q153 0 220 -62t73 -195q1 -23 2 -87.5t0 -146t-4 -155.5h-435q0 -83 1 -167.5t3 -171.5q1 -68 34.5 -94t104.5 -26t101.5 26t33.5 94q2 30 1.5 82t-3.5 108h159q2 -34 3 -88
t-1 -85q-7 -141 -72.5 -201.5t-218.5 -60.5zM250 691h280q1 56 1 114t-0.5 103t-2.5 63q-4 68 -36 94.5t-98 26.5q-76 0 -107.5 -30t-32.5 -91q-2 -69 -3 -139.5t-1 -140.5zM183 1281l151 234h107l152 -234h-117l-88 143l-87 -143h-118zM579 1768h77q-2 -84 -48.5 -124.5
t-117.5 -38.5q-47 2 -78 21t-57.5 39t-61.5 23q-33 4 -60 -12.5t-33 -59.5h-77q7 92 56 131.5t123 33.5q45 -4 75 -23.5t57 -38.5t61 -21q37 -2 60 18.5t24 51.5z" />
    <glyph glyph-name="uni1EC6" unicode="&#x1ec6;" horiz-adv-x="708" 
d="M121 0v1600h531v-143h-372v-581h352v-142h-352v-591h372v-143h-531zM338 -214v134h134v-134h-134zM176 1678l151 234h107l152 -234h-117l-88 143l-87 -143h-118z" />
    <glyph glyph-name="uni1EC7" unicode="&#x1ec7;" horiz-adv-x="768" 
d="M396 -15q-159 0 -227 61.5t-75 200.5q-3 95 -4.5 220t-0.5 253t5 231q7 142 77.5 203t222.5 61q153 0 220 -62t73 -195q1 -23 2 -87.5t0 -146t-4 -155.5h-435q0 -83 1 -167.5t3 -171.5q1 -68 34.5 -94t104.5 -26t101.5 26t33.5 94q2 30 1.5 82t-3.5 108h159q2 -34 3 -88
t-1 -85q-7 -141 -72.5 -201.5t-218.5 -60.5zM250 691h280q1 56 1 114t-0.5 103t-2.5 63q-4 68 -36 94.5t-98 26.5q-76 0 -107.5 -30t-32.5 -91q-2 -69 -3 -139.5t-1 -140.5zM321 -214v134h134v-134h-134zM183 1281l151 234h107l152 -234h-117l-88 143l-87 -143h-118z" />
    <glyph glyph-name="uni1EC8" unicode="&#x1ec8;" horiz-adv-x="401" 
d="M121 0v1600h159v-1600h-159zM186 1699l10 61q5 42 -11 56.5t-61 14.5h-54v82h54q96 0 135 -35t27 -118l-10 -61h-90z" />
    <glyph glyph-name="uni1EC9" unicode="&#x1ec9;" horiz-adv-x="381" 
d="M111 0v1200h159v-1200h-159zM173 1301l10 61q5 42 -11 56.5t-61 14.5h-54v82h54q96 0 135 -35t27 -118l-10 -61h-90z" />
    <glyph glyph-name="uni1ECA" unicode="&#x1eca;" horiz-adv-x="401" 
d="M121 0v1600h159v-1600h-159zM133 -214v134h134v-134h-134z" />
    <glyph glyph-name="uni1ECB" unicode="&#x1ecb;" horiz-adv-x="381" 
d="M85 1440v160h210v-160h-210zM111 0v1200h159v-1200h-159zM122 -214v134h134v-134h-134z" />
    <glyph glyph-name="uni1ECC" unicode="&#x1ecc;" horiz-adv-x="840" 
d="M419 -14q-163 0 -235 66t-74 219q-2 151 -3.5 281t-1.5 252.5t1.5 250t3.5 273.5q2 153 74 219.5t235 66.5q161 0 233 -66.5t75 -219.5q4 -146 5.5 -273.5t1.5 -250t-1.5 -252.5t-5.5 -281q-3 -153 -75 -219t-233 -66zM419 123q84 0 116.5 30t33.5 113q4 154 6 283
t2 250.5t-2 250.5t-6 284q-1 82 -33.5 113t-116.5 31t-116.5 -31t-34.5 -113q-4 -151 -6 -279t-2 -249t2 -252t6 -288q2 -83 34.5 -113t116.5 -30zM351 -214v134h134v-134h-134z" />
    <glyph glyph-name="uni1ECD" unicode="&#x1ecd;" horiz-adv-x="795" 
d="M398 -15q-162 0 -229.5 65.5t-73.5 215.5q-4 82 -5.5 200.5t-0.5 242.5t6 224q7 153 74 217.5t229 64.5q164 0 229.5 -65.5t72.5 -216.5q4 -91 5.5 -208t0 -237t-5.5 -222q-8 -150 -73.5 -215.5t-228.5 -65.5zM398 109q79 0 110 30t33 94q7 181 7.5 363.5t-7.5 371.5
q-2 67 -34 95t-109 28t-110 -29.5t-35 -96.5q-6 -160 -7 -352t7 -377q3 -69 35.5 -98t109.5 -29zM329 -214v134h134v-134h-134z" />
    <glyph glyph-name="uni1ECE" unicode="&#x1ece;" horiz-adv-x="840" 
d="M419 -14q-163 0 -235 66t-74 219q-2 151 -3.5 281t-1.5 252.5t1.5 250t3.5 273.5q2 153 74 219.5t235 66.5q161 0 233 -66.5t75 -219.5q4 -146 5.5 -273.5t1.5 -250t-1.5 -252.5t-5.5 -281q-3 -153 -75 -219t-233 -66zM419 123q84 0 116.5 30t33.5 113q4 154 6 283
t2 250.5t-2 250.5t-6 284q-1 82 -33.5 113t-116.5 31t-116.5 -31t-34.5 -113q-4 -151 -6 -279t-2 -249t2 -252t6 -288q2 -83 34.5 -113t116.5 -30zM422 1700l10 61q5 42 -11 56.5t-61 14.5h-54v82h54q96 0 135 -35t27 -118l-10 -61h-90z" />
    <glyph glyph-name="uni1ECF" unicode="&#x1ecf;" horiz-adv-x="795" 
d="M398 -15q-162 0 -229.5 65.5t-73.5 215.5q-4 82 -5.5 200.5t-0.5 242.5t6 224q7 153 74 217.5t229 64.5q164 0 229.5 -65.5t72.5 -216.5q4 -91 5.5 -208t0 -237t-5.5 -222q-8 -150 -73.5 -215.5t-228.5 -65.5zM398 109q79 0 110 30t33 94q7 181 7.5 363.5t-7.5 371.5
q-2 67 -34 95t-109 28t-110 -29.5t-35 -96.5q-6 -160 -7 -352t7 -377q3 -69 35.5 -98t109.5 -29zM402 1300l10 61q5 42 -11 56.5t-61 14.5h-54v82h54q96 0 135 -35t27 -118l-10 -61h-90z" />
    <glyph glyph-name="uni1ED0" unicode="&#x1ed0;" horiz-adv-x="840" 
d="M419 -14q-163 0 -235 66t-74 219q-2 151 -3.5 281t-1.5 252.5t1.5 250t3.5 273.5q2 153 74 219.5t235 66.5q161 0 233 -66.5t75 -219.5q4 -146 5.5 -273.5t1.5 -250t-1.5 -252.5t-5.5 -281q-3 -153 -75 -219t-233 -66zM419 123q84 0 116.5 30t33.5 113q4 154 6 283
t2 250.5t-2 250.5t-6 284q-1 82 -33.5 113t-116.5 31t-116.5 -31t-34.5 -113q-4 -151 -6 -279t-2 -249t2 -252t6 -288q2 -83 34.5 -113t116.5 -30zM213 1681l151 234h107l152 -234h-117l-88 143l-87 -143h-118zM368 1995l167 234h125l-171 -234h-121z" />
    <glyph glyph-name="uni1ED1" unicode="&#x1ed1;" horiz-adv-x="795" 
d="M398 -15q-162 0 -229.5 65.5t-73.5 215.5q-4 82 -5.5 200.5t-0.5 242.5t6 224q7 153 74 217.5t229 64.5q164 0 229.5 -65.5t72.5 -216.5q4 -91 5.5 -208t0 -237t-5.5 -222q-8 -150 -73.5 -215.5t-228.5 -65.5zM398 109q79 0 110 30t33 94q7 181 7.5 363.5t-7.5 371.5
q-2 67 -34 95t-109 28t-110 -29.5t-35 -96.5q-6 -160 -7 -352t7 -377q3 -69 35.5 -98t109.5 -29zM191 1281l151 234h107l152 -234h-117l-88 143l-87 -143h-118zM346 1595l167 234h125l-171 -234h-121z" />
    <glyph glyph-name="uni1ED2" unicode="&#x1ed2;" horiz-adv-x="840" 
d="M419 -14q-163 0 -235 66t-74 219q-2 151 -3.5 281t-1.5 252.5t1.5 250t3.5 273.5q2 153 74 219.5t235 66.5q161 0 233 -66.5t75 -219.5q4 -146 5.5 -273.5t1.5 -250t-1.5 -252.5t-5.5 -281q-3 -153 -75 -219t-233 -66zM419 123q84 0 116.5 30t33.5 113q4 154 6 283
t2 250.5t-2 250.5t-6 284q-1 82 -33.5 113t-116.5 31t-116.5 -31t-34.5 -113q-4 -151 -6 -279t-2 -249t2 -252t6 -288q2 -83 34.5 -113t116.5 -30zM213 1681l151 234h107l152 -234h-117l-88 143l-87 -143h-118zM343 1995l-163 234h127l160 -234h-124z" />
    <glyph glyph-name="uni1ED3" unicode="&#x1ed3;" horiz-adv-x="795" 
d="M398 -15q-162 0 -229.5 65.5t-73.5 215.5q-4 82 -5.5 200.5t-0.5 242.5t6 224q7 153 74 217.5t229 64.5q164 0 229.5 -65.5t72.5 -216.5q4 -91 5.5 -208t0 -237t-5.5 -222q-8 -150 -73.5 -215.5t-228.5 -65.5zM398 109q79 0 110 30t33 94q7 181 7.5 363.5t-7.5 371.5
q-2 67 -34 95t-109 28t-110 -29.5t-35 -96.5q-6 -160 -7 -352t7 -377q3 -69 35.5 -98t109.5 -29zM191 1281l151 234h107l152 -234h-117l-88 143l-87 -143h-118zM321 1595l-163 234h127l160 -234h-124z" />
    </font>
</defs>
</svg>
